<svg id="svg" version="1.1" width="400" height="400" viewBox="0 0 400 400" xmlns="http://www.w3.org/2000/svg" xmlns:xlink="http://www.w3.org/1999/xlink" ><g id="svgg"><path id="path0" d="M188.200 80.793 C 187.320 80.967,184.710 81.401,182.400 81.759 C 180.090 82.116,177.788 82.586,177.285 82.802 C 176.782 83.019,175.342 83.312,174.085 83.454 C 172.828 83.595,171.350 83.931,170.800 84.200 C 170.250 84.469,169.022 84.808,168.072 84.954 C 167.121 85.099,165.951 85.464,165.472 85.764 C 164.992 86.065,163.889 86.435,163.020 86.588 C 162.152 86.741,161.077 87.121,160.631 87.433 C 160.186 87.745,159.581 88.000,159.286 88.000 C 158.992 88.000,157.727 88.466,156.475 89.035 C 155.224 89.604,153.660 90.305,153.000 90.593 C 150.309 91.768,142.943 95.466,141.425 96.404 C 140.531 96.957,139.440 97.633,139.000 97.907 C 138.560 98.181,137.750 98.627,137.200 98.898 C 136.650 99.169,135.986 99.573,135.724 99.795 C 135.462 100.018,134.652 100.613,133.924 101.117 C 131.120 103.059,128.176 105.198,127.630 105.688 C 127.317 105.970,126.740 106.382,126.348 106.605 C 124.781 107.494,111.200 120.519,111.200 121.133 C 111.200 121.283,110.615 121.948,109.900 122.611 C 108.589 123.826,107.194 125.432,105.893 127.226 C 105.504 127.762,104.025 129.820,102.607 131.800 C 101.188 133.780,99.885 135.580,99.711 135.800 C 99.537 136.020,99.172 136.650,98.900 137.200 C 98.398 138.216,98.110 138.703,96.539 141.200 C 95.127 143.442,92.400 148.892,92.400 149.470 C 92.400 149.762,92.220 150.000,92.000 150.000 C 91.780 150.000,91.598 150.225,91.596 150.500 C 91.594 150.775,91.150 151.900,90.609 153.000 C 90.068 154.100,89.619 155.153,89.613 155.340 C 89.600 155.666,89.137 156.764,87.555 160.210 C 87.149 161.095,86.701 162.445,86.559 163.210 C 86.418 163.974,86.082 164.960,85.812 165.400 C 85.542 165.840,85.198 166.920,85.048 167.800 C 84.898 168.680,84.530 170.030,84.230 170.800 C 83.931 171.570,83.497 173.280,83.267 174.600 C 83.036 175.920,82.661 177.900,82.433 179.000 C 79.268 194.235,79.425 213.790,82.829 228.400 C 83.264 230.270,83.616 232.214,83.610 232.720 C 83.605 233.226,83.849 234.126,84.153 234.720 C 84.457 235.314,84.839 236.606,85.003 237.591 C 85.167 238.576,85.535 239.746,85.821 240.191 C 86.107 240.636,86.471 241.720,86.631 242.600 C 86.790 243.480,87.146 244.560,87.421 245.000 C 87.696 245.440,88.041 246.373,88.186 247.072 C 88.332 247.772,88.710 248.559,89.026 248.821 C 89.342 249.083,89.600 249.564,89.600 249.888 C 89.600 250.415,90.326 252.042,93.894 259.508 C 94.448 260.667,95.039 261.700,95.206 261.804 C 95.374 261.908,95.633 262.478,95.782 263.072 C 95.931 263.665,96.295 264.342,96.590 264.575 C 96.885 264.809,97.606 265.900,98.192 267.000 C 98.777 268.100,99.977 269.990,100.857 271.200 C 102.327 273.220,104.003 275.617,105.000 277.125 C 105.220 277.458,105.670 278.029,106.000 278.394 C 107.637 280.205,109.205 282.023,111.026 284.220 C 114.808 288.782,123.987 297.321,128.914 300.860 C 132.765 303.626,137.779 306.996,138.794 307.500 C 139.347 307.774,140.340 308.352,141.000 308.784 C 141.660 309.216,143.460 310.213,145.000 311.000 C 146.540 311.787,148.070 312.592,148.400 312.787 C 149.475 313.425,152.643 314.800,153.037 314.800 C 153.249 314.800,153.867 315.112,154.411 315.494 C 155.358 316.159,157.407 316.978,161.119 318.178 C 162.064 318.483,163.054 318.905,163.319 319.116 C 163.583 319.327,164.651 319.622,165.691 319.773 C 166.731 319.923,167.680 320.205,167.800 320.400 C 167.920 320.595,168.869 320.878,169.909 321.029 C 170.949 321.180,172.261 321.538,172.825 321.824 C 173.389 322.110,175.009 322.469,176.425 322.623 C 177.841 322.777,179.720 323.137,180.600 323.422 C 181.480 323.708,184.270 324.140,186.800 324.382 C 189.330 324.623,192.390 325.011,193.601 325.243 C 198.397 326.163,220.759 324.860,225.023 323.413 C 226.016 323.076,227.407 322.803,228.114 322.806 C 228.821 322.809,230.660 322.434,232.200 321.973 C 239.253 319.861,240.238 319.589,240.815 319.594 C 241.154 319.597,242.137 319.240,243.000 318.800 C 243.863 318.360,244.880 318.000,245.261 318.000 C 245.641 318.000,246.056 317.833,246.182 317.629 C 246.308 317.425,247.084 317.050,247.906 316.796 C 248.728 316.542,250.120 315.994,251.000 315.579 C 256.132 313.157,260.541 310.954,263.000 309.583 C 264.540 308.725,266.226 307.834,266.747 307.603 C 267.268 307.373,268.102 306.873,268.601 306.492 C 269.099 306.111,269.907 305.530,270.395 305.200 C 273.627 303.015,279.559 298.514,282.800 295.787 C 288.707 290.818,298.698 279.678,303.600 272.597 C 304.150 271.802,304.789 270.938,305.020 270.676 C 305.251 270.414,306.401 268.530,307.576 266.489 C 308.751 264.448,309.867 262.682,310.056 262.565 C 310.245 262.448,310.400 262.016,310.400 261.605 C 310.400 261.194,310.630 260.619,310.912 260.329 C 311.596 259.621,314.672 253.293,315.023 251.868 C 315.177 251.245,315.532 250.647,315.812 250.540 C 316.092 250.433,316.446 249.682,316.597 248.872 C 316.749 248.063,317.105 246.950,317.388 246.400 C 318.104 245.007,319.601 241.067,319.594 240.592 C 319.589 240.225,320.505 236.999,321.816 232.770 C 322.128 231.764,322.568 229.635,322.795 228.038 C 323.021 226.442,323.371 224.828,323.573 224.451 C 325.800 220.290,325.806 188.026,323.581 181.307 C 323.346 180.595,322.910 178.525,322.613 176.707 C 322.316 174.888,321.686 172.140,321.213 170.600 C 320.740 169.060,320.168 166.990,319.942 166.000 C 319.715 165.010,319.186 163.468,318.765 162.574 C 318.344 161.679,318.000 160.757,318.000 160.525 C 318.000 160.094,316.937 157.482,315.589 154.600 C 315.177 153.720,314.457 152.100,313.989 151.000 C 313.521 149.900,312.900 148.550,312.608 148.000 C 312.317 147.450,311.609 146.100,311.035 145.000 C 310.461 143.900,309.807 142.730,309.581 142.400 C 309.083 141.671,308.211 140.150,307.519 138.800 C 307.237 138.250,306.866 137.620,306.696 137.400 C 306.525 137.180,305.480 135.650,304.372 134.000 C 300.861 128.772,299.297 126.688,296.310 123.264 C 292.889 119.342,284.919 111.202,284.494 111.197 C 284.332 111.195,283.538 110.566,282.729 109.799 C 281.265 108.411,276.509 104.608,274.110 102.906 C 270.626 100.436,266.480 97.738,265.500 97.304 C 264.895 97.036,264.400 96.633,264.400 96.409 C 264.400 96.184,264.064 96.000,263.654 96.000 C 263.244 96.000,262.450 95.640,261.891 95.200 C 261.331 94.760,260.609 94.400,260.286 94.400 C 259.963 94.400,259.475 94.131,259.202 93.802 C 258.928 93.473,258.004 92.994,257.148 92.737 C 256.291 92.480,255.391 92.030,255.146 91.735 C 254.902 91.441,254.404 91.200,254.040 91.200 C 253.676 91.200,253.023 90.954,252.589 90.654 C 252.155 90.354,251.350 89.980,250.800 89.823 C 250.250 89.667,248.990 89.167,248.000 88.712 C 244.434 87.072,243.776 86.829,242.200 86.566 C 241.320 86.419,240.330 86.077,240.000 85.806 C 239.670 85.535,238.500 85.127,237.400 84.899 C 236.300 84.670,234.860 84.298,234.200 84.070 C 232.924 83.630,230.240 83.070,226.000 82.359 C 224.570 82.119,222.230 81.629,220.800 81.269 C 217.936 80.549,191.400 80.161,188.200 80.793 " stroke="none" fill="#eb0c34" fill-rule="evenodd"></path><path id="path1" d="M0.000 200.000 L 0.000 400.000 200.000 400.000 L 400.000 400.000 400.000 200.000 L 400.000 0.000 200.000 0.000 L 0.000 0.000 0.000 200.000 M210.800 78.407 C 213.110 78.616,217.336 78.986,220.192 79.230 C 223.048 79.473,226.108 79.913,226.992 80.207 C 227.876 80.501,229.500 80.865,230.600 81.017 C 231.700 81.168,233.140 81.526,233.800 81.812 C 234.460 82.098,235.831 82.445,236.846 82.583 C 237.861 82.720,239.031 83.090,239.446 83.404 C 239.861 83.718,240.657 83.980,241.215 83.987 C 241.774 83.994,242.937 84.360,243.800 84.800 C 244.663 85.240,245.577 85.600,245.831 85.600 C 246.084 85.600,246.750 85.960,247.309 86.400 C 247.869 86.840,248.658 87.201,249.063 87.203 C 249.468 87.204,250.340 87.563,251.000 88.000 C 251.660 88.437,252.583 88.796,253.051 88.797 C 253.519 88.799,254.111 89.052,254.367 89.361 C 254.623 89.669,255.320 90.043,255.916 90.192 C 256.512 90.341,257.270 90.686,257.600 90.959 C 257.930 91.232,259.338 91.893,260.729 92.428 C 262.119 92.963,263.597 93.715,264.012 94.100 C 264.427 94.485,265.151 94.800,265.621 94.800 C 266.138 94.800,266.557 95.115,266.684 95.600 C 266.820 96.119,267.230 96.400,267.851 96.400 C 268.377 96.400,269.116 96.760,269.493 97.200 C 269.870 97.640,270.380 98.000,270.627 98.000 C 270.874 98.000,271.402 98.360,271.800 98.800 C 272.198 99.240,272.753 99.600,273.033 99.600 C 273.314 99.600,273.781 99.835,274.071 100.122 C 274.362 100.410,274.915 100.764,275.300 100.910 C 275.685 101.056,276.000 101.438,276.000 101.760 C 276.000 102.083,276.360 102.460,276.800 102.600 C 277.240 102.740,277.600 103.068,277.600 103.329 C 277.600 103.591,278.095 104.026,278.700 104.296 C 279.305 104.567,280.520 105.417,281.400 106.186 C 282.280 106.955,283.674 108.173,284.499 108.892 C 287.636 111.631,296.000 120.098,296.000 120.536 C 296.000 120.793,297.948 122.800,298.198 122.800 C 298.561 122.800,300.278 124.650,300.517 125.300 C 300.659 125.685,300.940 126.000,301.142 126.000 C 301.344 126.000,301.808 126.630,302.173 127.400 C 302.539 128.170,303.009 128.800,303.219 128.800 C 303.428 128.800,303.600 129.064,303.600 129.386 C 303.600 129.708,303.960 130.165,304.400 130.400 C 304.840 130.635,305.200 131.052,305.200 131.325 C 305.200 131.599,305.560 132.130,306.000 132.507 C 306.440 132.884,306.800 133.554,306.800 133.996 C 306.800 134.438,306.958 134.800,307.151 134.800 C 307.345 134.800,307.741 135.385,308.032 136.100 C 308.322 136.815,309.109 138.213,309.780 139.207 C 310.451 140.201,311.450 141.911,312.000 143.007 C 312.550 144.103,313.315 145.429,313.700 145.954 C 314.085 146.479,314.400 147.260,314.400 147.691 C 314.400 148.121,314.760 148.931,315.200 149.491 C 315.640 150.050,316.000 150.822,316.000 151.205 C 316.000 151.588,316.263 152.120,316.585 152.387 C 316.906 152.654,317.291 153.261,317.440 153.736 C 317.588 154.211,318.045 155.029,318.455 155.554 C 318.865 156.079,319.200 156.894,319.200 157.365 C 319.200 157.836,319.455 158.586,319.767 159.031 C 320.079 159.477,320.459 160.552,320.612 161.420 C 320.765 162.289,321.140 163.399,321.445 163.886 C 321.750 164.373,322.000 165.186,322.000 165.692 C 322.000 166.198,322.333 167.239,322.740 168.006 C 323.148 168.773,323.601 170.300,323.747 171.400 C 323.893 172.500,324.272 174.120,324.589 175.000 C 324.906 175.880,325.173 177.517,325.182 178.639 C 325.192 179.760,325.514 181.290,325.897 182.039 C 327.091 184.369,327.212 219.207,326.038 222.687 C 325.577 224.055,325.200 225.894,325.200 226.773 C 325.200 227.653,324.912 229.221,324.559 230.259 C 324.207 231.297,323.767 233.222,323.581 234.536 C 323.395 235.851,323.070 237.033,322.858 237.164 C 322.647 237.295,322.347 238.121,322.192 239.001 C 322.037 239.880,321.683 240.964,321.406 241.409 C 321.128 241.854,320.772 242.982,320.614 243.917 C 320.456 244.851,320.101 245.842,319.824 246.119 C 319.547 246.396,319.100 247.292,318.829 248.111 C 318.559 248.930,318.195 249.600,318.020 249.600 C 317.845 249.600,317.586 250.327,317.444 251.215 C 317.302 252.104,316.919 252.933,316.593 253.058 C 316.267 253.183,316.000 253.598,316.000 253.979 C 316.000 254.780,313.726 259.475,313.172 259.817 C 312.967 259.944,312.800 260.384,312.800 260.795 C 312.800 261.206,312.573 261.781,312.295 262.071 C 312.018 262.362,311.564 263.050,311.287 263.600 C 311.011 264.150,310.350 265.320,309.819 266.200 C 309.289 267.080,308.299 268.925,307.620 270.300 C 306.940 271.675,306.140 272.800,305.842 272.800 C 305.544 272.800,305.199 273.295,305.075 273.900 C 304.952 274.505,304.164 275.741,303.325 276.648 C 300.860 279.311,299.275 281.176,299.133 281.582 C 298.460 283.501,281.151 300.400,279.859 300.400 C 279.699 300.400,278.631 301.317,277.485 302.438 C 276.338 303.559,274.815 304.732,274.100 305.043 C 273.385 305.355,272.800 305.785,272.800 305.998 C 272.800 306.210,271.675 306.937,270.300 307.613 C 266.747 309.359,265.446 310.128,265.080 310.700 C 264.904 310.975,264.437 311.200,264.041 311.200 C 263.646 311.200,262.907 311.560,262.400 312.000 C 261.893 312.440,261.156 312.800,260.762 312.800 C 260.369 312.800,259.944 312.967,259.817 313.172 C 259.525 313.645,254.834 316.000,254.185 316.000 C 253.917 316.000,253.473 316.272,253.197 316.604 C 252.922 316.936,251.999 317.319,251.148 317.455 C 250.297 317.591,249.600 317.845,249.600 318.020 C 249.600 318.195,248.925 318.555,248.100 318.820 C 247.275 319.084,246.307 319.556,245.950 319.868 C 245.592 320.179,244.602 320.541,243.750 320.671 C 242.897 320.802,241.930 321.130,241.600 321.401 C 241.270 321.672,240.222 322.012,239.272 322.156 C 238.321 322.300,237.151 322.667,236.672 322.971 C 236.192 323.275,234.828 323.652,233.639 323.808 C 232.450 323.964,230.881 324.341,230.152 324.646 C 229.422 324.951,228.004 325.200,227.000 325.200 C 225.996 325.200,224.055 325.577,222.687 326.038 C 219.191 327.217,184.122 327.097,182.296 325.900 C 181.612 325.451,180.452 325.200,179.066 325.200 C 177.877 325.200,175.777 324.840,174.400 324.400 C 173.023 323.960,171.311 323.600,170.597 323.600 C 169.882 323.600,169.078 323.335,168.809 323.011 C 168.540 322.686,167.663 322.318,166.860 322.192 C 166.057 322.066,164.860 321.715,164.200 321.412 C 163.540 321.110,162.280 320.745,161.400 320.601 C 160.520 320.458,159.437 320.108,158.994 319.823 C 158.551 319.538,157.618 319.180,156.922 319.027 C 156.225 318.874,155.441 318.490,155.179 318.174 C 154.917 317.858,154.478 317.600,154.205 317.600 C 153.932 317.600,153.279 317.263,152.754 316.852 C 152.229 316.441,151.215 315.976,150.500 315.820 C 149.785 315.664,149.200 315.378,149.200 315.184 C 149.200 314.990,148.501 314.643,147.647 314.413 C 146.792 314.182,145.870 313.726,145.598 313.397 C 145.325 313.069,144.878 312.800,144.605 312.800 C 144.332 312.800,143.650 312.440,143.091 312.000 C 142.531 311.560,141.875 311.200,141.633 311.200 C 141.390 311.200,140.339 310.606,139.296 309.880 C 138.253 309.154,136.815 308.322,136.100 308.032 C 135.385 307.741,134.800 307.345,134.800 307.151 C 134.800 306.958,134.468 306.800,134.062 306.800 C 133.656 306.800,132.998 306.440,132.600 306.000 C 132.202 305.560,131.635 305.200,131.341 305.200 C 131.047 305.200,130.582 304.840,130.307 304.400 C 130.032 303.960,129.581 303.600,129.304 303.600 C 129.027 303.600,128.800 303.428,128.800 303.219 C 128.800 303.009,128.184 302.545,127.431 302.188 C 126.678 301.831,125.964 301.282,125.843 300.969 C 125.723 300.656,125.415 300.400,125.158 300.400 C 124.738 300.400,122.800 298.590,122.800 298.198 C 122.800 297.872,120.752 296.000,120.396 296.000 C 120.194 296.000,119.835 295.640,119.600 295.200 C 119.365 294.760,119.019 294.400,118.832 294.400 C 118.465 294.400,113.200 289.398,113.200 289.049 C 113.200 288.678,111.180 286.800,110.782 286.800 C 110.572 286.800,110.400 286.646,110.400 286.458 C 110.400 286.271,109.995 285.663,109.500 285.109 C 109.005 284.554,107.970 283.344,107.200 282.420 C 106.430 281.495,105.395 280.293,104.900 279.749 C 104.405 279.204,104.000 278.498,104.000 278.179 C 104.000 277.861,103.730 277.600,103.400 277.600 C 103.070 277.600,102.800 277.449,102.800 277.265 C 102.800 277.081,102.080 276.173,101.200 275.248 C 100.320 274.323,99.600 273.363,99.600 273.115 C 99.600 272.866,99.301 272.333,98.936 271.929 C 98.181 271.095,97.490 269.964,96.626 268.149 C 96.298 267.460,95.753 266.791,95.415 266.661 C 95.077 266.531,94.800 266.070,94.800 265.636 C 94.800 265.202,94.610 264.730,94.377 264.586 C 93.886 264.282,92.187 260.683,91.792 259.110 C 91.643 258.518,91.269 257.823,90.961 257.567 C 90.652 257.311,90.400 256.926,90.400 256.712 C 90.400 256.497,89.680 254.827,88.800 253.000 C 87.920 251.173,87.200 249.374,87.200 249.002 C 87.200 248.631,86.840 247.869,86.400 247.309 C 85.960 246.750,85.600 246.084,85.600 245.831 C 85.600 245.577,85.240 244.663,84.800 243.800 C 84.360 242.937,84.000 241.813,84.000 241.301 C 84.000 240.790,83.739 239.973,83.421 239.486 C 83.102 238.999,82.667 237.610,82.454 236.400 C 82.241 235.190,81.790 233.480,81.451 232.600 C 81.112 231.720,80.827 230.361,80.818 229.580 C 80.808 228.799,80.601 227.961,80.357 227.717 C 80.113 227.473,79.764 225.322,79.581 222.937 C 79.399 220.552,79.021 216.800,78.742 214.600 C 77.990 208.658,78.110 193.754,78.940 190.074 C 79.303 188.464,79.600 185.636,79.600 183.788 C 79.600 181.940,79.854 179.657,80.165 178.714 C 80.475 177.771,80.855 176.010,81.009 174.800 C 81.163 173.590,81.487 172.356,81.728 172.058 C 81.970 171.760,82.287 170.360,82.433 168.945 C 82.580 167.531,82.972 166.065,83.306 165.687 C 83.640 165.309,84.040 164.222,84.196 163.272 C 84.352 162.322,84.732 161.448,85.040 161.329 C 85.387 161.196,85.600 160.523,85.600 159.557 C 85.600 158.533,85.874 157.726,86.400 157.200 C 86.840 156.760,87.200 156.154,87.200 155.854 C 87.200 155.554,87.533 154.879,87.939 154.354 C 88.345 153.829,88.804 152.883,88.959 152.252 C 89.113 151.620,89.501 150.842,89.820 150.523 C 90.139 150.204,90.400 149.528,90.400 149.020 C 90.400 148.513,90.669 147.875,90.997 147.602 C 91.326 147.330,91.782 146.408,92.013 145.553 C 92.243 144.699,92.584 144.000,92.771 144.000 C 92.958 144.000,93.229 143.370,93.374 142.600 C 93.518 141.830,93.806 141.200,94.013 141.200 C 94.220 141.200,94.668 140.615,95.009 139.900 C 96.147 137.513,96.841 136.400,97.190 136.400 C 97.381 136.400,97.657 135.851,97.804 135.181 C 97.951 134.510,98.416 133.747,98.836 133.485 C 99.256 133.222,99.600 132.849,99.600 132.655 C 99.600 132.088,103.203 127.200,103.620 127.200 C 103.829 127.200,104.000 126.966,104.000 126.681 C 104.000 125.288,125.212 104.000,126.600 104.000 C 126.883 104.000,127.205 103.764,127.315 103.476 C 127.426 103.188,128.800 102.083,130.368 101.021 C 131.937 99.959,133.318 98.932,133.438 98.739 C 133.557 98.546,134.227 98.124,134.927 97.802 C 136.295 97.173,137.233 96.607,138.749 95.500 C 139.277 95.115,140.044 94.800,140.454 94.800 C 140.864 94.800,141.200 94.538,141.200 94.218 C 141.200 93.870,141.762 93.531,142.600 93.374 C 143.370 93.229,144.000 92.958,144.000 92.771 C 144.000 92.584,144.765 92.225,145.700 91.974 C 146.635 91.723,147.490 91.386,147.600 91.225 C 147.897 90.792,152.261 88.800,152.913 88.800 C 153.223 88.800,153.802 88.440,154.200 88.000 C 154.598 87.560,155.318 87.200,155.800 87.200 C 156.282 87.200,157.002 86.840,157.400 86.400 C 157.798 85.960,158.598 85.600,159.177 85.600 C 159.757 85.600,160.937 85.240,161.800 84.800 C 162.663 84.360,163.651 84.000,163.996 84.000 C 164.340 84.000,165.005 83.732,165.473 83.404 C 165.942 83.076,167.524 82.638,168.990 82.430 C 170.455 82.222,171.867 81.878,172.127 81.665 C 172.387 81.452,173.680 81.148,175.000 80.989 C 176.320 80.831,177.625 80.521,177.900 80.302 C 178.175 80.082,180.900 79.767,183.955 79.602 C 187.010 79.438,189.712 79.178,189.960 79.025 C 191.353 78.164,203.976 77.789,210.800 78.407 " stroke="none" fill="#f4f4f4" fill-rule="evenodd"></path><path id="path2" d="M192.800 79.391 L 188.200 79.906 194.800 79.653 C 202.800 79.346,203.301 79.346,211.600 79.650 C 215.953 79.810,217.043 79.783,214.800 79.571 C 208.234 78.951,197.514 78.863,192.800 79.391 M181.200 80.635 L 179.800 81.208 181.600 80.947 C 182.590 80.804,184.210 80.556,185.200 80.396 L 187.000 80.107 184.800 80.084 C 183.590 80.071,181.970 80.319,181.200 80.635 M221.000 80.445 C 221.880 80.639,224.130 81.065,226.000 81.390 C 229.772 82.047,231.698 82.506,235.712 83.701 C 237.204 84.145,238.505 84.428,238.603 84.330 C 238.891 84.042,235.308 82.944,231.000 82.000 C 228.800 81.519,225.883 80.871,224.518 80.562 C 223.153 80.253,221.443 80.021,220.718 80.046 C 219.405 80.092,219.406 80.093,221.000 80.445 M172.800 82.385 C 165.241 84.417,160.456 85.977,158.571 87.024 C 157.108 87.836,158.182 87.558,161.800 86.187 C 163.340 85.603,165.530 84.892,166.668 84.606 C 167.805 84.321,168.948 83.956,169.208 83.795 C 169.668 83.511,174.992 82.213,178.200 81.604 L 179.800 81.300 178.400 81.278 C 177.630 81.266,175.110 81.764,172.800 82.385 M240.600 85.036 C 241.480 85.367,242.973 85.884,243.919 86.185 C 244.864 86.486,245.893 86.945,246.205 87.204 C 246.518 87.464,247.004 87.583,247.287 87.469 C 247.609 87.340,247.540 87.251,247.100 87.232 C 246.715 87.214,246.400 87.027,246.400 86.815 C 246.400 86.604,245.635 86.233,244.700 85.992 C 243.765 85.751,242.433 85.294,241.740 84.977 C 241.046 84.659,240.146 84.408,239.740 84.418 C 239.333 84.427,239.720 84.706,240.600 85.036 M155.200 88.200 C 154.926 88.530,154.513 88.800,154.282 88.800 C 153.728 88.800,147.146 92.079,147.330 92.264 C 147.408 92.342,148.896 91.685,150.636 90.805 C 152.376 89.924,153.980 89.201,154.200 89.199 C 154.420 89.197,155.140 88.837,155.800 88.400 C 156.572 87.888,156.768 87.604,156.349 87.603 C 155.991 87.601,155.474 87.870,155.200 88.200 M249.400 88.400 C 250.060 88.837,250.867 89.196,251.194 89.197 C 251.521 89.199,251.116 88.840,250.296 88.400 C 248.378 87.372,247.848 87.372,249.400 88.400 M254.979 90.818 C 256.728 91.688,258.348 92.391,258.579 92.381 C 259.092 92.358,252.764 89.239,252.200 89.237 C 251.980 89.236,253.231 89.947,254.979 90.818 M144.200 93.426 C 143.320 93.944,142.060 94.646,141.400 94.987 C 138.723 96.369,131.075 101.386,130.392 102.210 C 130.123 102.534,129.742 102.800,129.545 102.800 C 129.250 102.800,126.968 104.543,124.166 106.908 C 119.889 110.520,113.804 116.479,109.800 120.979 C 108.480 122.463,107.124 123.974,106.787 124.338 C 105.801 125.403,103.100 128.838,102.037 130.379 C 99.150 134.562,97.442 137.147,96.736 138.400 C 96.302 139.170,95.523 140.520,95.006 141.400 C 93.532 143.906,92.410 146.144,92.556 146.289 C 92.629 146.362,93.775 144.482,95.104 142.111 C 98.821 135.477,104.303 127.589,108.339 123.069 C 119.373 110.711,130.419 101.610,142.621 94.825 C 145.019 93.491,146.716 92.419,146.391 92.443 C 146.066 92.466,145.080 92.909,144.200 93.426 M259.600 93.000 C 259.874 93.330,260.278 93.600,260.498 93.600 C 260.721 93.600,260.678 93.335,260.400 93.000 C 260.126 92.670,259.722 92.400,259.502 92.400 C 259.279 92.400,259.322 92.665,259.600 93.000 M261.811 94.132 C 262.245 94.424,263.680 95.269,265.000 96.009 C 266.320 96.750,268.219 97.905,269.220 98.578 C 270.221 99.250,271.319 99.980,271.660 100.200 C 275.127 102.435,275.632 102.827,283.928 109.704 C 285.318 110.857,288.469 113.874,290.930 116.408 C 294.710 120.301,296.576 122.391,300.925 127.600 C 301.200 127.930,301.936 128.961,302.561 129.891 C 303.696 131.581,305.350 133.287,304.607 132.000 C 300.590 125.046,276.732 101.200,273.792 101.200 C 273.651 101.200,272.784 100.598,271.867 99.863 C 270.950 99.128,269.142 97.913,267.849 97.163 C 266.555 96.413,264.665 95.317,263.649 94.727 C 261.741 93.619,260.412 93.189,261.811 94.132 M304.800 132.951 C 304.800 133.399,307.299 136.834,307.487 136.646 C 307.597 136.536,307.269 135.851,306.757 135.123 C 305.727 133.658,304.800 132.630,304.800 132.951 M307.600 137.492 C 307.600 137.712,307.944 138.329,308.364 138.864 C 308.784 139.398,309.693 140.947,310.384 142.306 C 311.461 144.426,312.400 145.708,312.400 145.059 C 312.400 144.742,309.101 139.062,308.327 138.046 C 307.927 137.521,307.600 137.272,307.600 137.492 M312.404 145.800 C 312.405 146.020,312.763 146.740,313.200 147.400 C 314.236 148.964,314.237 148.408,313.201 146.710 C 312.762 145.989,312.404 145.580,312.404 145.800 M90.493 150.389 C 89.562 152.333,88.800 154.086,88.800 154.282 C 88.800 154.479,88.597 154.843,88.348 155.092 C 87.861 155.579,87.367 156.900,84.595 165.132 C 83.608 168.065,82.818 170.855,82.841 171.332 C 82.872 171.999,82.956 171.922,83.202 171.000 C 83.379 170.340,83.711 169.260,83.941 168.600 C 84.170 167.940,84.828 165.870,85.403 164.000 C 85.977 162.130,86.707 160.122,87.024 159.538 C 87.341 158.954,87.600 158.272,87.600 158.022 C 87.600 157.568,88.979 154.462,91.298 149.692 C 91.969 148.313,92.443 147.110,92.352 147.019 C 92.261 146.927,91.424 148.444,90.493 150.389 M314.020 148.986 C 314.009 149.198,314.699 150.818,315.554 152.586 C 317.440 156.489,319.801 162.491,320.200 164.400 C 320.361 165.170,320.648 165.994,320.838 166.231 C 321.028 166.468,321.450 167.818,321.777 169.231 C 322.811 173.710,324.064 178.958,324.397 180.200 L 324.718 181.400 324.759 180.326 C 324.782 179.735,324.606 178.745,324.370 178.126 C 324.133 177.507,323.764 176.010,323.549 174.800 C 323.335 173.590,322.892 171.700,322.565 170.600 C 320.841 164.788,319.845 161.672,319.351 160.540 C 319.048 159.846,318.800 159.087,318.800 158.852 C 318.800 158.617,318.465 157.744,318.056 156.912 C 317.647 156.081,316.575 153.870,315.676 152.000 C 314.776 150.130,314.030 148.774,314.020 148.986 M82.116 173.933 C 81.852 174.780,81.445 176.667,81.212 178.127 C 80.979 179.586,80.611 181.246,80.394 181.816 C 80.177 182.386,80.021 183.785,80.046 184.926 C 80.098 187.249,80.081 187.306,80.985 181.800 C 81.346 179.600,81.924 176.786,82.270 175.547 C 82.984 172.985,82.851 171.579,82.116 173.933 M324.869 184.200 C 324.842 185.300,325.010 187.010,325.244 188.000 C 325.477 188.990,325.806 192.140,325.974 195.000 L 326.280 200.200 326.327 196.200 C 326.353 194.000,326.182 190.940,325.948 189.400 C 325.714 187.860,325.386 185.610,325.220 184.400 L 324.918 182.200 324.869 184.200 M79.366 192.600 C 78.901 198.187,78.953 208.059,79.479 214.000 C 79.779 217.389,79.898 217.968,79.931 216.200 C 79.956 214.880,79.803 211.460,79.590 208.600 C 79.327 205.065,79.344 201.136,79.644 196.328 C 80.136 188.440,79.935 185.754,79.366 192.600 M325.987 209.100 C 325.980 211.245,325.802 214.260,325.592 215.800 C 325.382 217.340,325.125 219.680,325.021 221.000 L 324.833 223.400 325.168 221.340 C 325.352 220.208,325.632 219.072,325.790 218.816 C 326.152 218.230,326.594 205.200,326.252 205.200 C 326.114 205.200,325.994 206.955,325.987 209.100 M80.046 220.518 C 80.021 221.353,80.274 223.243,80.608 224.718 C 80.942 226.193,81.594 229.110,82.056 231.200 C 82.518 233.290,83.235 235.961,83.648 237.136 C 84.062 238.310,84.401 239.570,84.402 239.936 C 84.404 240.301,84.667 241.103,84.988 241.717 C 85.308 242.331,85.682 243.430,85.819 244.158 C 86.096 245.635,87.593 248.179,87.597 247.180 C 87.599 246.839,87.424 246.384,87.209 246.169 C 86.767 245.727,85.354 241.818,84.762 239.400 C 84.546 238.520,84.123 237.080,83.822 236.200 C 83.141 234.212,81.834 228.497,81.032 224.000 C 80.144 219.021,80.097 218.856,80.046 220.518 M324.308 225.400 C 323.813 227.666,322.431 233.402,321.658 236.400 C 320.812 239.681,320.465 240.720,318.714 245.200 C 317.344 248.708,316.886 250.308,317.742 248.600 C 319.319 245.454,320.008 243.759,320.246 242.439 C 320.389 241.647,320.702 240.640,320.942 240.200 C 321.442 239.286,322.595 235.020,323.375 231.200 C 323.667 229.770,324.121 228.026,324.384 227.324 C 324.647 226.622,324.796 225.632,324.716 225.124 C 324.585 224.296,324.543 224.325,324.308 225.400 M87.601 248.574 C 87.601 248.779,87.946 249.679,88.368 250.574 C 88.790 251.468,89.877 253.820,90.782 255.800 C 91.687 257.780,92.674 259.850,92.975 260.400 C 93.275 260.950,93.953 262.210,94.481 263.200 C 97.439 268.751,106.332 281.183,109.962 284.843 C 110.313 285.197,112.055 286.997,113.834 288.843 C 117.625 292.778,123.801 298.484,126.496 300.541 C 129.760 303.033,132.622 304.964,132.091 304.317 C 131.811 303.976,130.821 303.185,129.891 302.561 C 128.961 301.936,127.930 301.197,127.600 300.917 C 127.270 300.638,125.470 299.136,123.600 297.579 C 115.872 291.146,104.033 278.035,100.200 271.665 C 99.980 271.299,99.149 270.010,98.354 268.800 C 95.436 264.363,89.200 252.382,89.200 251.214 C 89.200 250.997,88.841 250.230,88.401 249.510 C 87.962 248.789,87.602 248.368,87.601 248.574 M316.165 251.670 C 314.910 254.413,310.181 263.692,309.269 265.200 C 308.803 265.970,308.125 267.140,307.763 267.800 C 303.695 275.199,291.692 289.242,283.600 296.067 C 278.913 300.022,274.085 303.767,271.468 305.481 C 269.966 306.465,268.826 307.360,268.937 307.470 C 269.106 307.639,271.369 306.251,272.000 305.591 C 272.110 305.476,272.658 305.091,273.218 304.735 C 273.778 304.380,275.398 303.170,276.818 302.047 C 278.238 300.925,279.692 299.780,280.050 299.503 C 282.630 297.505,285.244 295.115,289.783 290.600 C 294.844 285.565,296.471 283.806,299.000 280.627 C 299.660 279.798,300.388 278.912,300.619 278.660 C 300.849 278.407,301.971 276.940,303.112 275.400 C 304.253 273.860,305.326 272.420,305.496 272.200 C 306.221 271.264,307.437 269.301,308.096 268.000 C 308.487 267.230,309.444 265.520,310.225 264.200 C 311.005 262.880,311.999 261.080,312.434 260.200 C 312.869 259.320,313.392 258.330,313.597 258.000 C 314.331 256.819,317.225 250.291,317.079 250.146 C 316.997 250.064,316.586 250.750,316.165 251.670 M133.639 305.638 C 134.656 306.525,136.800 307.746,136.800 307.439 C 136.800 307.213,133.251 304.800,132.919 304.800 C 132.786 304.800,133.110 305.177,133.639 305.638 M138.046 308.346 C 138.571 308.756,140.080 309.666,141.400 310.368 C 142.720 311.070,143.971 311.814,144.180 312.022 C 144.675 312.514,145.317 312.512,145.012 312.020 C 144.883 311.811,143.665 311.075,142.306 310.384 C 140.947 309.693,139.398 308.784,138.864 308.364 C 138.329 307.944,137.712 307.600,137.492 307.600 C 137.272 307.600,137.521 307.936,138.046 308.346 M266.754 308.306 C 266.229 308.694,264.990 309.455,264.000 309.997 C 263.010 310.538,261.300 311.478,260.200 312.084 C 259.100 312.690,257.750 313.374,257.200 313.604 C 255.539 314.297,253.623 315.356,253.768 315.501 C 253.900 315.633,256.785 314.315,258.000 313.567 C 258.330 313.364,259.050 313.019,259.600 312.799 C 260.150 312.580,260.870 312.217,261.200 311.992 C 261.530 311.768,262.340 311.307,263.000 310.968 C 265.501 309.684,268.687 307.603,268.154 307.601 C 267.909 307.601,267.279 307.918,266.754 308.306 M146.710 313.201 C 148.393 314.228,148.796 314.227,147.491 313.200 C 146.931 312.760,146.232 312.401,145.937 312.401 C 145.642 312.402,145.989 312.762,146.710 313.201 M149.910 314.801 C 150.630 315.241,151.440 315.592,151.710 315.583 C 152.261 315.564,149.625 314.042,149.000 314.018 C 148.780 314.010,149.189 314.362,149.910 314.801 M153.800 316.610 C 154.680 317.152,155.670 317.603,156.000 317.611 C 156.330 317.619,156.949 317.890,157.376 318.213 C 157.804 318.536,158.434 318.801,158.776 318.802 C 159.119 318.804,159.883 319.057,160.473 319.365 C 161.063 319.673,162.143 320.045,162.873 320.192 C 163.603 320.339,165.100 320.793,166.200 321.200 C 169.511 322.425,174.124 323.606,175.400 323.555 C 176.186 323.524,176.324 323.448,175.800 323.336 C 172.203 322.568,166.545 321.020,165.671 320.564 C 165.082 320.256,164.284 320.004,163.897 320.002 C 163.039 319.999,156.359 317.480,154.321 316.391 C 152.239 315.278,151.881 315.429,153.800 316.610 M251.200 316.431 C 250.155 317.025,250.054 317.160,250.800 316.960 C 251.870 316.673,253.638 315.589,252.989 315.617 C 252.775 315.626,251.970 315.992,251.200 316.431 M247.200 317.958 C 246.430 318.355,244.810 319.000,243.600 319.390 C 239.055 320.856,237.826 321.342,238.279 321.493 C 238.536 321.579,239.253 321.392,239.873 321.078 C 240.493 320.764,241.647 320.390,242.439 320.247 C 243.230 320.104,244.670 319.617,245.639 319.165 C 246.607 318.714,247.940 318.091,248.600 317.781 C 249.260 317.471,249.530 317.222,249.200 317.227 C 248.870 317.232,247.970 317.560,247.200 317.958 M233.600 322.377 C 232.170 322.770,230.010 323.300,228.800 323.556 C 227.590 323.813,226.060 324.179,225.400 324.370 L 224.200 324.718 225.313 324.759 C 225.925 324.782,227.005 324.559,227.713 324.264 C 228.421 323.969,229.900 323.606,231.000 323.457 C 233.209 323.159,238.272 321.637,237.000 321.653 C 236.560 321.659,235.030 321.985,233.600 322.377 M177.800 324.214 C 178.460 324.517,179.540 324.760,180.200 324.755 C 181.162 324.748,181.003 324.636,179.400 324.191 C 176.886 323.493,176.245 323.502,177.800 324.214 M184.400 325.215 C 185.610 325.378,187.770 325.708,189.200 325.948 C 190.630 326.188,193.690 326.358,196.000 326.327 L 200.200 326.270 195.000 325.980 C 192.140 325.821,188.830 325.490,187.645 325.245 C 186.460 325.000,184.750 324.826,183.845 324.859 C 182.298 324.914,182.330 324.935,184.400 325.215 M218.400 325.268 C 217.410 325.477,214.080 325.795,211.000 325.976 L 205.400 326.304 210.600 326.311 C 213.460 326.314,217.060 326.076,218.600 325.782 C 220.140 325.487,221.850 325.170,222.400 325.077 C 222.992 324.978,222.747 324.905,221.800 324.898 C 220.920 324.892,219.390 325.059,218.400 325.268 " stroke="none" fill="#f491a4" fill-rule="evenodd"></path><path id="path3" d="M199.200 79.475 C 191.415 79.836,184.514 80.428,181.549 80.990 C 176.013 82.038,170.662 83.244,169.600 83.684 C 169.050 83.912,167.700 84.329,166.600 84.612 C 165.500 84.894,163.340 85.603,161.800 86.187 C 160.260 86.772,158.460 87.394,157.800 87.571 C 157.140 87.749,156.060 88.183,155.400 88.536 C 154.740 88.890,151.860 90.285,149.000 91.636 C 133.926 98.756,121.405 108.436,108.339 123.069 C 103.564 128.417,92.400 145.281,92.400 147.147 C 92.400 147.326,91.877 148.536,91.237 149.836 C 89.123 154.133,87.600 157.560,87.600 158.022 C 87.600 158.272,87.341 158.954,87.024 159.538 C 86.707 160.122,85.977 162.130,85.403 164.000 C 84.828 165.870,84.168 167.940,83.935 168.600 C 83.702 169.260,83.283 170.880,83.003 172.200 C 82.723 173.520,82.293 175.410,82.048 176.400 C 79.174 188.004,78.647 212.284,81.010 224.200 C 82.035 229.370,83.233 234.481,83.822 236.200 C 84.123 237.080,84.546 238.520,84.762 239.400 C 85.354 241.818,86.767 245.727,87.209 246.169 C 87.424 246.384,87.601 246.929,87.601 247.380 C 87.602 247.831,87.962 248.789,88.401 249.510 C 88.841 250.230,89.200 250.997,89.200 251.214 C 89.200 252.382,95.436 264.363,98.354 268.800 C 99.149 270.010,99.980 271.299,100.200 271.665 C 104.823 279.348,119.440 294.897,127.800 301.025 C 128.240 301.348,129.540 302.329,130.688 303.206 C 131.837 304.083,132.874 304.800,132.992 304.800 C 133.111 304.800,134.105 305.430,135.200 306.200 C 136.295 306.970,137.349 307.600,137.542 307.600 C 137.735 307.600,138.329 307.944,138.864 308.364 C 139.398 308.784,140.907 309.691,142.218 310.378 C 144.716 311.688,145.545 312.137,146.700 312.805 C 147.085 313.028,148.210 313.580,149.200 314.032 C 150.190 314.483,152.080 315.368,153.400 315.997 C 156.750 317.594,163.054 320.000,163.897 320.002 C 164.284 320.004,165.082 320.256,165.671 320.564 C 166.653 321.076,168.424 321.550,178.413 323.972 C 180.290 324.428,182.630 324.800,183.613 324.801 C 184.596 324.801,186.930 325.081,188.800 325.424 C 196.021 326.745,215.629 326.186,224.800 324.397 C 232.223 322.948,238.860 321.121,244.800 318.890 C 246.230 318.353,248.082 317.661,248.915 317.353 C 250.657 316.710,257.107 313.762,258.000 313.201 C 258.330 312.994,259.320 312.469,260.200 312.034 C 261.080 311.599,262.880 310.608,264.200 309.830 C 265.520 309.053,267.050 308.190,267.600 307.913 C 270.456 306.473,277.539 301.203,284.200 295.561 C 291.777 289.144,303.847 274.923,307.763 267.800 C 308.125 267.140,308.803 265.970,309.269 265.200 C 312.211 260.336,318.297 247.264,319.605 243.000 C 319.875 242.120,320.316 240.860,320.584 240.200 C 320.853 239.540,321.571 236.840,322.180 234.200 C 322.789 231.560,323.552 228.512,323.876 227.426 C 324.200 226.341,324.622 224.001,324.814 222.226 C 325.006 220.452,325.369 217.470,325.620 215.600 C 326.208 211.224,326.207 194.242,325.619 190.600 C 325.370 189.060,325.004 185.954,324.806 183.699 C 324.608 181.443,324.339 179.426,324.210 179.216 C 324.080 179.006,323.613 177.251,323.172 175.317 C 321.387 167.490,321.170 166.645,320.838 166.231 C 320.648 165.994,320.361 165.170,320.200 164.400 C 319.260 159.905,311.484 143.167,308.300 138.785 C 307.915 138.255,307.600 137.680,307.600 137.507 C 307.600 137.334,306.970 136.295,306.200 135.200 C 305.430 134.105,304.800 133.111,304.800 132.992 C 304.800 132.874,304.083 131.837,303.206 130.688 C 302.329 129.540,301.351 128.240,301.032 127.800 C 298.082 123.731,288.070 113.138,283.928 109.704 C 275.650 102.842,274.671 102.084,271.643 100.200 C 271.289 99.980,270.010 99.149,268.800 98.353 C 267.590 97.557,265.250 96.152,263.600 95.231 C 261.950 94.310,260.330 93.385,260.000 93.176 C 259.670 92.966,259.130 92.687,258.800 92.556 C 258.470 92.424,256.719 91.616,254.908 90.758 C 253.098 89.901,251.388 89.199,251.108 89.197 C 250.829 89.196,250.060 88.837,249.400 88.400 C 248.740 87.963,247.831 87.604,247.380 87.603 C 246.929 87.601,246.384 87.424,246.169 87.209 C 245.954 86.994,244.703 86.441,243.389 85.980 C 241.063 85.165,239.552 84.719,234.600 83.391 C 233.280 83.036,231.300 82.501,230.200 82.200 C 229.100 81.899,227.120 81.527,225.800 81.373 C 224.480 81.219,222.950 80.922,222.400 80.713 C 221.569 80.398,202.627 79.073,202.000 79.286 C 201.890 79.323,200.630 79.408,199.200 79.475 M220.800 81.269 C 222.230 81.629,224.570 82.119,226.000 82.359 C 230.240 83.070,232.924 83.630,234.200 84.070 C 234.860 84.298,236.300 84.670,237.400 84.899 C 238.500 85.127,239.670 85.535,240.000 85.806 C 240.330 86.077,241.320 86.419,242.200 86.566 C 243.776 86.829,244.434 87.072,248.000 88.712 C 248.990 89.167,250.250 89.667,250.800 89.823 C 251.350 89.980,252.155 90.354,252.589 90.654 C 253.023 90.954,253.676 91.200,254.040 91.200 C 254.404 91.200,254.902 91.441,255.146 91.735 C 255.391 92.030,256.291 92.480,257.148 92.737 C 258.004 92.994,258.928 93.473,259.202 93.802 C 259.475 94.131,259.963 94.400,260.286 94.400 C 260.609 94.400,261.331 94.760,261.891 95.200 C 262.450 95.640,263.244 96.000,263.654 96.000 C 264.064 96.000,264.400 96.184,264.400 96.409 C 264.400 96.633,264.895 97.036,265.500 97.304 C 266.480 97.738,270.626 100.436,274.110 102.906 C 276.509 104.608,281.265 108.411,282.729 109.799 C 283.538 110.566,284.332 111.195,284.494 111.197 C 284.919 111.202,292.889 119.342,296.310 123.264 C 299.297 126.688,300.861 128.772,304.372 134.000 C 305.480 135.650,306.525 137.180,306.696 137.400 C 306.866 137.620,307.237 138.250,307.519 138.800 C 308.211 140.150,309.083 141.671,309.581 142.400 C 309.807 142.730,310.461 143.900,311.035 145.000 C 311.609 146.100,312.317 147.450,312.608 148.000 C 312.900 148.550,313.521 149.900,313.989 151.000 C 314.457 152.100,315.177 153.720,315.589 154.600 C 316.937 157.482,318.000 160.094,318.000 160.525 C 318.000 160.757,318.344 161.679,318.765 162.574 C 319.186 163.468,319.715 165.010,319.942 166.000 C 320.168 166.990,320.740 169.060,321.213 170.600 C 321.686 172.140,322.316 174.888,322.613 176.707 C 322.910 178.525,323.346 180.595,323.581 181.307 C 325.806 188.026,325.800 220.290,323.573 224.451 C 323.371 224.828,323.021 226.442,322.795 228.038 C 322.568 229.635,322.128 231.764,321.816 232.770 C 320.505 236.999,319.589 240.225,319.594 240.592 C 319.601 241.067,318.104 245.007,317.388 246.400 C 317.105 246.950,316.749 248.063,316.597 248.872 C 316.446 249.682,316.092 250.433,315.812 250.540 C 315.532 250.647,315.177 251.245,315.023 251.868 C 314.672 253.293,311.596 259.621,310.912 260.329 C 310.630 260.619,310.400 261.194,310.400 261.605 C 310.400 262.016,310.245 262.448,310.056 262.565 C 309.867 262.682,308.751 264.448,307.576 266.489 C 306.401 268.530,305.251 270.414,305.020 270.676 C 304.789 270.938,304.150 271.802,303.600 272.597 C 302.021 274.878,298.351 279.711,296.600 281.815 C 295.186 283.515,284.364 294.471,282.800 295.787 C 279.559 298.514,273.627 303.015,270.395 305.200 C 269.907 305.530,269.099 306.111,268.601 306.492 C 268.102 306.873,267.268 307.373,266.747 307.603 C 266.226 307.834,264.540 308.725,263.000 309.583 C 260.541 310.954,256.132 313.157,251.000 315.579 C 250.120 315.994,248.728 316.542,247.906 316.796 C 247.084 317.050,246.308 317.425,246.182 317.629 C 246.056 317.833,245.641 318.000,245.261 318.000 C 244.880 318.000,243.863 318.360,243.000 318.800 C 242.137 319.240,241.154 319.597,240.815 319.594 C 240.238 319.589,239.253 319.861,232.200 321.973 C 230.660 322.434,228.821 322.809,228.114 322.806 C 227.407 322.803,226.016 323.076,225.023 323.413 C 220.759 324.860,198.397 326.163,193.601 325.243 C 192.390 325.011,189.330 324.623,186.800 324.382 C 184.270 324.140,181.480 323.708,180.600 323.422 C 179.720 323.137,177.841 322.777,176.425 322.623 C 175.009 322.469,173.389 322.110,172.825 321.824 C 172.261 321.538,170.949 321.180,169.909 321.029 C 168.869 320.878,167.920 320.595,167.800 320.400 C 167.680 320.205,166.731 319.923,165.691 319.773 C 164.651 319.622,163.583 319.327,163.319 319.116 C 163.054 318.905,162.064 318.483,161.119 318.178 C 157.407 316.978,155.358 316.159,154.411 315.494 C 153.867 315.112,153.249 314.800,153.037 314.800 C 152.643 314.800,149.475 313.425,148.400 312.787 C 148.070 312.592,146.540 311.787,145.000 311.000 C 143.460 310.213,141.660 309.216,141.000 308.784 C 140.340 308.352,139.347 307.774,138.794 307.500 C 137.779 306.996,132.765 303.626,128.914 300.860 C 123.987 297.321,114.808 288.782,111.026 284.220 C 109.205 282.023,107.637 280.205,106.000 278.394 C 105.670 278.029,105.220 277.458,105.000 277.125 C 104.003 275.617,102.327 273.220,100.857 271.200 C 99.977 269.990,98.777 268.100,98.192 267.000 C 97.606 265.900,96.885 264.809,96.590 264.575 C 96.295 264.342,95.931 263.665,95.782 263.072 C 95.633 262.478,95.374 261.908,95.206 261.804 C 95.039 261.700,94.448 260.667,93.894 259.508 C 90.326 252.042,89.600 250.415,89.600 249.888 C 89.600 249.564,89.342 249.083,89.026 248.821 C 88.710 248.559,88.332 247.772,88.186 247.072 C 88.041 246.373,87.696 245.440,87.421 245.000 C 87.146 244.560,86.790 243.480,86.631 242.600 C 86.471 241.720,86.107 240.636,85.821 240.191 C 85.535 239.746,85.167 238.576,85.003 237.591 C 84.839 236.606,84.457 235.314,84.153 234.720 C 83.849 234.126,83.605 233.226,83.610 232.720 C 83.616 232.214,83.264 230.270,82.829 228.400 C 80.620 218.918,80.391 216.533,80.394 203.000 C 80.397 189.935,80.560 188.015,82.433 179.000 C 82.661 177.900,83.036 175.920,83.267 174.600 C 83.497 173.280,83.931 171.570,84.230 170.800 C 84.530 170.030,84.898 168.680,85.048 167.800 C 85.198 166.920,85.542 165.840,85.812 165.400 C 86.082 164.960,86.418 163.974,86.559 163.210 C 86.701 162.445,87.149 161.095,87.555 160.210 C 89.137 156.764,89.600 155.666,89.613 155.340 C 89.619 155.153,90.068 154.100,90.609 153.000 C 91.150 151.900,91.594 150.775,91.596 150.500 C 91.598 150.225,91.780 150.000,92.000 150.000 C 92.220 150.000,92.400 149.762,92.400 149.470 C 92.400 148.892,95.127 143.442,96.539 141.200 C 98.110 138.703,98.398 138.216,98.900 137.200 C 99.172 136.650,99.537 136.020,99.711 135.800 C 99.885 135.580,101.188 133.780,102.607 131.800 C 104.025 129.820,105.504 127.762,105.893 127.226 C 107.194 125.432,108.589 123.826,109.900 122.611 C 110.615 121.948,111.200 121.283,111.200 121.133 C 111.200 120.519,124.781 107.494,126.348 106.605 C 126.740 106.382,127.317 105.970,127.630 105.688 C 128.176 105.198,131.120 103.059,133.924 101.117 C 134.652 100.613,135.462 100.018,135.724 99.795 C 135.986 99.573,136.650 99.169,137.200 98.898 C 137.750 98.627,138.560 98.181,139.000 97.907 C 139.440 97.633,140.531 96.957,141.425 96.404 C 142.943 95.466,150.309 91.768,153.000 90.593 C 153.660 90.305,155.224 89.604,156.475 89.035 C 157.727 88.466,158.992 88.000,159.286 88.000 C 159.581 88.000,160.186 87.745,160.631 87.433 C 161.077 87.121,162.152 86.741,163.020 86.588 C 163.889 86.435,164.992 86.065,165.472 85.764 C 165.951 85.464,167.121 85.099,168.072 84.954 C 169.022 84.808,170.250 84.469,170.800 84.200 C 171.350 83.931,172.828 83.595,174.085 83.454 C 175.342 83.312,176.782 83.019,177.285 82.802 C 177.788 82.586,180.090 82.116,182.400 81.759 C 184.710 81.401,187.320 80.967,188.200 80.793 C 191.400 80.161,217.936 80.549,220.800 81.269 " stroke="none" fill="#e66c84" fill-rule="evenodd"></path><path id="path4" d="M193.705 78.428 C 191.893 78.603,190.208 78.872,189.960 79.025 C 189.712 79.178,187.010 79.438,183.955 79.602 C 180.900 79.767,178.175 80.082,177.900 80.302 C 177.625 80.521,176.320 80.831,175.000 80.989 C 173.680 81.148,172.387 81.452,172.127 81.665 C 171.867 81.878,170.455 82.222,168.990 82.430 C 167.524 82.638,165.942 83.076,165.473 83.404 C 165.005 83.732,164.340 84.000,163.996 84.000 C 163.651 84.000,162.663 84.360,161.800 84.800 C 160.937 85.240,159.757 85.600,159.177 85.600 C 158.598 85.600,157.798 85.960,157.400 86.400 C 157.002 86.840,156.282 87.200,155.800 87.200 C 155.318 87.200,154.598 87.560,154.200 88.000 C 153.802 88.440,153.223 88.800,152.913 88.800 C 152.261 88.800,147.897 90.792,147.600 91.225 C 147.490 91.386,146.635 91.723,145.700 91.974 C 144.765 92.225,144.000 92.584,144.000 92.771 C 144.000 92.958,143.370 93.229,142.600 93.374 C 141.762 93.531,141.200 93.870,141.200 94.218 C 141.200 94.538,140.864 94.800,140.454 94.800 C 140.044 94.800,139.277 95.115,138.749 95.500 C 137.233 96.607,136.295 97.173,134.927 97.802 C 134.227 98.124,133.557 98.546,133.438 98.739 C 133.318 98.932,131.937 99.959,130.368 101.021 C 128.800 102.083,127.426 103.188,127.315 103.476 C 127.205 103.764,126.883 104.000,126.600 104.000 C 125.212 104.000,104.000 125.288,104.000 126.681 C 104.000 126.966,103.829 127.200,103.620 127.200 C 103.203 127.200,99.600 132.088,99.600 132.655 C 99.600 132.849,99.256 133.222,98.836 133.485 C 98.416 133.747,97.951 134.510,97.804 135.181 C 97.657 135.851,97.381 136.400,97.190 136.400 C 96.841 136.400,96.147 137.513,95.009 139.900 C 94.668 140.615,94.220 141.200,94.013 141.200 C 93.806 141.200,93.518 141.830,93.374 142.600 C 93.229 143.370,92.958 144.000,92.771 144.000 C 92.584 144.000,92.243 144.699,92.013 145.553 C 91.782 146.408,91.326 147.330,90.997 147.602 C 90.669 147.875,90.400 148.513,90.400 149.020 C 90.400 149.528,90.139 150.204,89.820 150.523 C 89.501 150.842,89.113 151.620,88.959 152.252 C 88.804 152.883,88.345 153.829,87.939 154.354 C 87.533 154.879,87.200 155.554,87.200 155.854 C 87.200 156.154,86.840 156.760,86.400 157.200 C 85.874 157.726,85.600 158.533,85.600 159.557 C 85.600 160.523,85.387 161.196,85.040 161.329 C 84.732 161.448,84.352 162.322,84.196 163.272 C 84.040 164.222,83.640 165.309,83.306 165.687 C 82.972 166.065,82.580 167.531,82.433 168.945 C 82.287 170.360,81.970 171.760,81.728 172.058 C 81.487 172.356,81.163 173.590,81.009 174.800 C 80.855 176.010,80.475 177.771,80.165 178.714 C 79.854 179.657,79.600 181.940,79.600 183.788 C 79.600 185.636,79.303 188.464,78.940 190.074 C 78.110 193.754,77.990 208.658,78.742 214.600 C 79.021 216.800,79.399 220.552,79.581 222.937 C 79.764 225.322,80.113 227.473,80.357 227.717 C 80.601 227.961,80.808 228.799,80.818 229.580 C 80.827 230.361,81.112 231.720,81.451 232.600 C 81.790 233.480,82.241 235.190,82.454 236.400 C 82.667 237.610,83.102 238.999,83.421 239.486 C 83.739 239.973,84.000 240.790,84.000 241.301 C 84.000 241.813,84.360 242.937,84.800 243.800 C 85.240 244.663,85.600 245.577,85.600 245.831 C 85.600 246.084,85.960 246.750,86.400 247.309 C 86.840 247.869,87.200 248.631,87.200 249.002 C 87.200 249.374,87.920 251.173,88.800 253.000 C 89.680 254.827,90.400 256.497,90.400 256.712 C 90.400 256.926,90.652 257.311,90.961 257.567 C 91.269 257.823,91.643 258.518,91.792 259.110 C 92.187 260.683,93.886 264.282,94.377 264.586 C 94.610 264.730,94.800 265.202,94.800 265.636 C 94.800 266.070,95.077 266.531,95.415 266.661 C 95.753 266.791,96.298 267.460,96.626 268.149 C 97.490 269.964,98.181 271.095,98.936 271.929 C 99.301 272.333,99.600 272.866,99.600 273.115 C 99.600 273.363,100.320 274.323,101.200 275.248 C 102.080 276.173,102.800 277.081,102.800 277.265 C 102.800 277.449,103.070 277.600,103.400 277.600 C 103.730 277.600,104.000 277.861,104.000 278.179 C 104.000 278.498,104.405 279.204,104.900 279.749 C 105.395 280.293,106.430 281.495,107.200 282.420 C 107.970 283.344,109.005 284.554,109.500 285.109 C 109.995 285.663,110.400 286.271,110.400 286.458 C 110.400 286.646,110.572 286.800,110.782 286.800 C 111.180 286.800,113.200 288.678,113.200 289.049 C 113.200 289.398,118.465 294.400,118.832 294.400 C 119.019 294.400,119.365 294.760,119.600 295.200 C 119.835 295.640,120.194 296.000,120.396 296.000 C 120.752 296.000,122.800 297.872,122.800 298.198 C 122.800 298.590,124.738 300.400,125.158 300.400 C 125.415 300.400,125.723 300.656,125.843 300.969 C 125.964 301.282,126.678 301.831,127.431 302.188 C 128.184 302.545,128.800 303.009,128.800 303.219 C 128.800 303.428,129.027 303.600,129.304 303.600 C 129.581 303.600,130.032 303.960,130.307 304.400 C 130.582 304.840,131.047 305.200,131.341 305.200 C 131.635 305.200,132.202 305.560,132.600 306.000 C 132.998 306.440,133.656 306.800,134.062 306.800 C 134.468 306.800,134.800 306.958,134.800 307.151 C 134.800 307.345,135.385 307.741,136.100 308.032 C 136.815 308.322,138.253 309.154,139.296 309.880 C 140.339 310.606,141.390 311.200,141.633 311.200 C 141.875 311.200,142.531 311.560,143.091 312.000 C 143.650 312.440,144.332 312.800,144.605 312.800 C 144.878 312.800,145.325 313.069,145.598 313.397 C 145.870 313.726,146.792 314.182,147.647 314.413 C 148.501 314.643,149.200 314.990,149.200 315.184 C 149.200 315.378,149.785 315.664,150.500 315.820 C 151.215 315.976,152.229 316.441,152.754 316.852 C 153.279 317.263,153.932 317.600,154.205 317.600 C 154.478 317.600,154.917 317.858,155.179 318.174 C 155.441 318.490,156.225 318.874,156.922 319.027 C 157.618 319.180,158.551 319.538,158.994 319.823 C 159.437 320.108,160.520 320.458,161.400 320.601 C 162.280 320.745,163.540 321.110,164.200 321.412 C 164.860 321.715,166.057 322.066,166.860 322.192 C 167.663 322.318,168.540 322.686,168.809 323.011 C 169.078 323.335,169.882 323.600,170.597 323.600 C 171.311 323.600,173.023 323.960,174.400 324.400 C 175.777 324.840,177.877 325.200,179.066 325.200 C 180.452 325.200,181.612 325.451,182.296 325.900 C 184.122 327.097,219.191 327.217,222.687 326.038 C 224.055 325.577,225.996 325.200,227.000 325.200 C 228.004 325.200,229.422 324.951,230.152 324.646 C 230.881 324.341,232.450 323.964,233.639 323.808 C 234.828 323.652,236.192 323.275,236.672 322.971 C 237.151 322.667,238.321 322.300,239.272 322.156 C 240.222 322.012,241.270 321.672,241.600 321.401 C 241.930 321.130,242.897 320.802,243.750 320.671 C 244.602 320.541,245.592 320.179,245.950 319.868 C 246.307 319.556,247.275 319.084,248.100 318.820 C 248.925 318.555,249.600 318.195,249.600 318.020 C 249.600 317.845,250.297 317.591,251.148 317.455 C 251.999 317.319,252.922 316.936,253.197 316.604 C 253.473 316.272,253.917 316.000,254.185 316.000 C 254.834 316.000,259.525 313.645,259.817 313.172 C 259.944 312.967,260.369 312.800,260.762 312.800 C 261.156 312.800,261.893 312.440,262.400 312.000 C 262.907 311.560,263.646 311.200,264.041 311.200 C 264.437 311.200,264.904 310.975,265.080 310.700 C 265.446 310.128,266.747 309.359,270.300 307.613 C 271.675 306.937,272.800 306.210,272.800 305.998 C 272.800 305.785,273.385 305.355,274.100 305.043 C 274.815 304.732,276.338 303.559,277.485 302.438 C 278.631 301.317,279.699 300.400,279.859 300.400 C 281.151 300.400,298.460 283.501,299.133 281.582 C 299.275 281.176,300.860 279.311,303.325 276.648 C 304.164 275.741,304.952 274.505,305.075 273.900 C 305.199 273.295,305.544 272.800,305.842 272.800 C 306.140 272.800,306.940 271.675,307.620 270.300 C 308.299 268.925,309.289 267.080,309.819 266.200 C 310.350 265.320,311.011 264.150,311.287 263.600 C 311.564 263.050,312.018 262.362,312.295 262.071 C 312.573 261.781,312.800 261.206,312.800 260.795 C 312.800 260.384,312.967 259.944,313.172 259.817 C 313.726 259.475,316.000 254.780,316.000 253.979 C 316.000 253.598,316.267 253.183,316.593 253.058 C 316.919 252.933,317.302 252.104,317.444 251.215 C 317.586 250.327,317.845 249.600,318.020 249.600 C 318.195 249.600,318.559 248.930,318.829 248.111 C 319.100 247.292,319.547 246.396,319.824 246.119 C 320.101 245.842,320.456 244.851,320.614 243.917 C 320.772 242.982,321.128 241.854,321.406 241.409 C 321.683 240.964,322.037 239.880,322.192 239.001 C 322.347 238.121,322.647 237.295,322.858 237.164 C 323.070 237.033,323.395 235.851,323.581 234.536 C 323.767 233.222,324.207 231.297,324.559 230.259 C 324.912 229.221,325.200 227.653,325.200 226.773 C 325.200 225.894,325.577 224.055,326.038 222.687 C 327.212 219.207,327.091 184.369,325.897 182.039 C 325.514 181.290,325.192 179.760,325.182 178.639 C 325.173 177.517,324.906 175.880,324.589 175.000 C 324.272 174.120,323.893 172.500,323.747 171.400 C 323.601 170.300,323.148 168.773,322.740 168.006 C 322.333 167.239,322.000 166.198,322.000 165.692 C 322.000 165.186,321.750 164.373,321.445 163.886 C 321.140 163.399,320.765 162.289,320.612 161.420 C 320.459 160.552,320.079 159.477,319.767 159.031 C 319.455 158.586,319.200 157.836,319.200 157.365 C 319.200 156.894,318.865 156.079,318.455 155.554 C 318.045 155.029,317.588 154.211,317.440 153.736 C 317.291 153.261,316.906 152.654,316.585 152.387 C 316.263 152.120,316.000 151.588,316.000 151.205 C 316.000 150.822,315.640 150.050,315.200 149.491 C 314.760 148.931,314.400 148.121,314.400 147.691 C 314.400 147.260,314.085 146.479,313.700 145.954 C 313.315 145.429,312.550 144.103,312.000 143.007 C 311.450 141.911,310.451 140.201,309.780 139.207 C 309.109 138.213,308.322 136.815,308.032 136.100 C 307.741 135.385,307.345 134.800,307.151 134.800 C 306.958 134.800,306.800 134.438,306.800 133.996 C 306.800 133.554,306.440 132.884,306.000 132.507 C 305.560 132.130,305.200 131.599,305.200 131.325 C 305.200 131.052,304.840 130.635,304.400 130.400 C 303.960 130.165,303.600 129.708,303.600 129.386 C 303.600 129.064,303.428 128.800,303.219 128.800 C 303.009 128.800,302.539 128.170,302.173 127.400 C 301.808 126.630,301.344 126.000,301.142 126.000 C 300.940 126.000,300.659 125.685,300.517 125.300 C 300.278 124.650,298.561 122.800,298.198 122.800 C 297.948 122.800,296.000 120.793,296.000 120.536 C 296.000 120.098,287.636 111.631,284.499 108.892 C 283.674 108.173,282.280 106.955,281.400 106.186 C 280.520 105.417,279.305 104.567,278.700 104.296 C 278.095 104.026,277.600 103.591,277.600 103.329 C 277.600 103.068,277.240 102.740,276.800 102.600 C 276.360 102.460,276.000 102.083,276.000 101.760 C 276.000 101.438,275.685 101.056,275.300 100.910 C 274.915 100.764,274.362 100.410,274.071 100.122 C 273.781 99.835,273.314 99.600,273.033 99.600 C 272.753 99.600,272.198 99.240,271.800 98.800 C 271.402 98.360,270.874 98.000,270.627 98.000 C 270.380 98.000,269.870 97.640,269.493 97.200 C 269.116 96.760,268.377 96.400,267.851 96.400 C 267.230 96.400,266.820 96.119,266.684 95.600 C 266.557 95.115,266.138 94.800,265.621 94.800 C 265.151 94.800,264.427 94.485,264.012 94.100 C 263.597 93.715,262.119 92.963,260.729 92.428 C 259.338 91.893,257.930 91.232,257.600 90.959 C 257.270 90.686,256.512 90.341,255.916 90.192 C 255.320 90.043,254.623 89.669,254.367 89.361 C 254.111 89.052,253.519 88.799,253.051 88.797 C 252.583 88.796,251.660 88.437,251.000 88.000 C 250.340 87.563,249.468 87.204,249.063 87.203 C 248.658 87.201,247.869 86.840,247.309 86.400 C 246.750 85.960,246.084 85.600,245.831 85.600 C 245.577 85.600,244.663 85.240,243.800 84.800 C 242.937 84.360,241.774 83.994,241.215 83.987 C 240.657 83.980,239.861 83.718,239.446 83.404 C 239.031 83.090,237.861 82.720,236.846 82.583 C 235.831 82.445,234.460 82.098,233.800 81.812 C 233.140 81.526,231.700 81.168,230.600 81.017 C 229.500 80.865,227.876 80.501,226.992 80.207 C 226.108 79.913,223.048 79.473,220.192 79.230 C 217.336 78.986,213.110 78.616,210.800 78.407 C 205.908 77.964,198.402 77.973,193.705 78.428 M215.800 79.547 C 218.880 79.784,222.840 80.269,224.600 80.626 C 231.124 81.948,235.057 82.893,237.136 83.636 C 238.310 84.056,239.543 84.400,239.875 84.400 C 240.207 84.400,241.046 84.659,241.740 84.977 C 242.433 85.294,243.765 85.751,244.700 85.992 C 245.635 86.233,246.400 86.590,246.400 86.784 C 246.400 86.978,246.985 87.265,247.700 87.422 C 248.415 87.578,249.627 88.043,250.394 88.453 C 251.161 88.864,251.931 89.200,252.105 89.200 C 252.280 89.200,253.728 89.819,255.323 90.576 C 256.918 91.333,258.668 92.148,259.212 92.388 C 260.255 92.847,263.947 94.886,267.859 97.163 C 269.146 97.913,270.950 99.128,271.867 99.863 C 272.784 100.598,273.651 101.200,273.792 101.200 C 276.847 101.200,301.335 125.825,304.794 132.375 C 305.077 132.911,305.636 133.702,306.037 134.132 C 306.437 134.562,307.138 135.653,307.593 136.557 C 308.049 137.461,308.981 139.100,309.666 140.200 C 311.029 142.391,313.884 147.998,316.183 153.000 C 316.992 154.760,317.911 156.678,318.227 157.262 C 318.542 157.846,318.800 158.538,318.800 158.801 C 318.800 159.064,319.048 159.846,319.351 160.540 C 319.845 161.672,320.841 164.788,322.565 170.600 C 322.892 171.700,323.344 173.645,323.570 174.923 C 323.796 176.201,324.103 177.443,324.251 177.683 C 324.400 177.924,324.765 180.118,325.063 182.560 C 325.361 185.002,325.782 188.170,325.998 189.600 C 326.482 192.793,326.430 215.348,325.934 217.698 C 325.737 218.634,325.329 221.232,325.030 223.470 C 324.730 225.709,324.342 227.770,324.168 228.051 C 323.995 228.332,323.626 229.741,323.348 231.181 C 322.652 234.796,321.467 239.240,320.942 240.200 C 320.702 240.640,320.387 241.657,320.242 242.460 C 320.097 243.263,319.731 244.433,319.428 245.060 C 318.477 247.026,317.200 249.948,317.200 250.154 C 317.200 250.421,314.067 257.243,313.597 258.000 C 313.392 258.330,312.869 259.320,312.434 260.200 C 311.999 261.080,311.005 262.880,310.225 264.200 C 309.444 265.520,308.487 267.230,308.096 268.000 C 307.437 269.301,306.221 271.264,305.496 272.200 C 305.326 272.420,304.253 273.860,303.112 275.400 C 301.971 276.940,300.849 278.407,300.619 278.660 C 300.388 278.912,299.660 279.798,299.000 280.627 C 294.698 286.033,285.101 295.593,280.050 299.503 C 279.692 299.780,278.238 300.925,276.818 302.047 C 275.398 303.170,273.778 304.380,273.218 304.735 C 272.658 305.091,272.110 305.480,272.000 305.600 C 271.638 305.995,269.426 307.373,268.000 308.092 C 267.230 308.480,266.060 309.152,265.400 309.586 C 264.740 310.020,263.660 310.647,263.000 310.979 C 262.340 311.312,261.530 311.768,261.200 311.992 C 260.870 312.217,260.150 312.580,259.600 312.799 C 259.050 313.019,258.330 313.370,258.000 313.580 C 257.146 314.123,250.531 317.200,250.217 317.200 C 249.958 317.200,247.243 318.372,245.060 319.428 C 244.433 319.731,243.263 320.097,242.460 320.242 C 241.657 320.387,240.687 320.667,240.305 320.864 C 239.209 321.430,233.024 323.158,231.123 323.429 C 230.175 323.565,228.680 323.917,227.800 324.212 C 226.920 324.507,225.080 324.858,223.711 324.993 C 222.342 325.127,220.039 325.485,218.594 325.787 C 215.409 326.453,193.117 326.612,189.400 325.995 C 188.080 325.775,185.017 325.356,182.594 325.063 C 180.171 324.769,177.798 324.320,177.320 324.064 C 176.843 323.809,175.946 323.601,175.326 323.601 C 174.077 323.603,169.290 322.343,166.200 321.200 C 165.100 320.793,163.603 320.339,162.873 320.192 C 162.143 320.045,161.063 319.673,160.473 319.365 C 159.883 319.057,159.158 318.804,158.862 318.802 C 158.566 318.801,157.846 318.560,157.262 318.267 C 156.678 317.975,155.210 317.265,154.000 316.691 C 146.088 312.937,139.537 309.529,138.348 308.548 C 138.046 308.300,137.054 307.721,136.142 307.262 C 135.230 306.802,134.240 306.195,133.942 305.913 C 133.644 305.631,132.590 304.862,131.600 304.204 C 126.308 300.689,119.950 295.192,113.834 288.843 C 112.055 286.997,110.313 285.197,109.962 284.843 C 106.332 281.183,97.439 268.751,94.481 263.200 C 93.953 262.210,93.275 260.950,92.975 260.400 C 92.674 259.850,91.687 257.780,90.782 255.800 C 89.877 253.820,88.790 251.468,88.368 250.574 C 87.946 249.679,87.600 248.710,87.600 248.421 C 87.600 248.131,87.259 247.333,86.843 246.647 C 86.427 245.961,85.960 244.803,85.805 244.073 C 85.651 243.343,85.273 242.263,84.965 241.673 C 84.657 241.083,84.404 240.301,84.402 239.936 C 84.401 239.570,84.062 238.310,83.648 237.136 C 82.960 235.180,82.234 232.187,80.611 224.600 C 78.588 215.148,78.590 190.693,80.616 181.000 C 82.653 171.250,83.107 169.458,84.809 164.460 C 87.480 156.618,87.880 155.560,88.348 155.092 C 88.597 154.843,88.800 154.474,88.800 154.272 C 88.800 154.070,89.627 152.171,90.637 150.052 C 93.273 144.525,93.942 143.199,95.003 141.400 C 95.522 140.520,96.302 139.170,96.736 138.400 C 97.442 137.147,99.150 134.562,102.037 130.379 C 103.100 128.838,105.801 125.403,106.787 124.338 C 107.124 123.974,108.480 122.463,109.800 120.979 C 113.804 116.479,119.889 110.520,124.166 106.908 C 126.968 104.543,129.250 102.800,129.545 102.800 C 129.742 102.800,130.123 102.534,130.392 102.210 C 130.883 101.618,136.342 97.904,138.600 96.625 C 139.260 96.251,140.520 95.521,141.400 95.002 C 142.280 94.484,143.810 93.672,144.800 93.198 C 145.790 92.724,148.229 91.540,150.220 90.568 C 152.211 89.596,154.034 88.800,154.271 88.800 C 154.508 88.800,154.926 88.530,155.200 88.200 C 155.474 87.870,156.081 87.599,156.549 87.598 C 157.017 87.596,157.927 87.320,158.571 86.984 C 161.683 85.362,175.942 81.216,178.450 81.205 C 179.027 81.202,180.265 80.930,181.200 80.600 C 182.135 80.270,184.003 79.982,185.350 79.960 C 186.698 79.938,189.960 79.686,192.600 79.400 C 197.899 78.827,207.194 78.886,215.800 79.547 " stroke="none" fill="#fcb9c4" fill-rule="evenodd"></path></g></svg>