<svg id="svg" version="1.1" width="400" height="429.3785310734463" viewBox="0 0 400 429.3785310734463" xmlns="http://www.w3.org/2000/svg" xmlns:xlink="http://www.w3.org/1999/xlink" ><g id="svgg"><path id="path0" d="M98.557 56.938 C 97.213 58.292,92.893 62.534,88.957 66.365 C 66.860 87.868,47.601 106.959,47.611 107.351 C 47.625 107.877,49.254 109.625,62.200 123.000 C 67.524 128.500,74.471 135.699,77.640 138.997 C 80.808 142.296,85.940 147.606,89.044 150.797 C 96.936 158.911,99.206 161.261,103.956 166.242 C 106.242 168.639,110.832 173.393,114.156 176.807 C 136.202 199.450,139.182 202.618,139.194 203.423 C 139.202 203.968,132.869 210.523,95.554 248.595 C 91.239 252.998,86.019 258.338,83.954 260.462 C 81.889 262.586,74.946 269.696,68.524 276.262 C 51.101 294.076,47.600 297.746,47.602 298.193 C 47.605 298.686,51.424 302.597,61.444 312.370 C 80.463 330.919,86.707 337.029,93.633 343.864 C 97.721 347.899,101.335 351.200,101.665 351.200 C 102.157 351.200,111.930 341.398,135.200 317.566 C 136.630 316.101,141.130 311.499,145.200 307.338 C 158.533 293.708,184.515 267.115,188.602 262.914 C 190.804 260.651,192.928 258.800,193.322 258.800 C 193.718 258.800,196.680 261.479,199.920 264.767 C 203.154 268.049,216.624 281.684,229.853 295.067 C 243.082 308.450,256.189 321.740,258.981 324.600 C 274.283 340.276,284.247 350.021,284.864 349.915 C 285.482 349.809,298.037 337.818,312.000 324.000 C 315.223 320.810,322.572 313.624,328.330 308.032 C 334.560 301.982,338.800 297.566,338.800 297.127 C 338.800 296.721,336.415 293.913,333.500 290.885 C 328.687 285.886,315.708 272.366,306.000 262.238 C 303.910 260.058,301.210 257.252,300.000 256.002 C 298.790 254.753,295.843 251.676,293.450 249.165 C 291.058 246.654,287.096 242.530,284.646 240.000 C 275.617 230.678,257.356 211.637,251.463 205.400 C 247.706 201.424,245.133 205.001,270.163 179.400 C 276.830 172.580,282.969 166.280,283.805 165.400 C 284.640 164.520,289.751 159.287,295.162 153.771 C 304.107 144.652,327.336 120.841,335.500 112.422 C 337.315 110.551,338.800 108.730,338.800 108.377 C 338.800 108.024,333.097 102.170,326.127 95.367 C 319.156 88.565,311.011 80.595,308.027 77.655 C 294.833 64.661,285.478 55.791,284.852 55.684 C 284.278 55.585,271.702 68.077,257.219 83.132 C 254.997 85.442,228.036 113.008,214.135 127.184 C 209.919 131.483,203.979 137.567,200.935 140.705 C 197.321 144.430,195.114 146.408,194.576 146.405 C 194.017 146.402,179.036 131.598,148.017 100.400 C 122.863 75.100,101.994 54.417,101.641 54.438 C 101.289 54.458,99.901 55.583,98.557 56.938 " stroke="none" fill="#dd0505" fill-rule="evenodd"></path><path id="path1" d="M0.000 214.600 L 0.000 429.200 200.000 429.200 L 400.000 429.200 400.000 214.600 L 400.000 0.000 200.000 0.000 L 0.000 0.000 0.000 214.600 M114.222 64.300 C 120.604 70.625,126.196 76.250,126.648 76.800 C 127.100 77.350,127.905 78.183,128.435 78.650 C 128.966 79.118,130.989 81.143,132.930 83.150 C 134.872 85.158,136.582 86.800,136.730 86.800 C 136.879 86.800,139.520 89.416,142.600 92.612 C 148.895 99.145,157.042 107.360,163.363 113.549 C 165.693 115.832,167.600 117.790,167.600 117.901 C 167.600 118.581,194.519 144.769,194.947 144.506 C 195.220 144.338,196.244 143.316,197.222 142.235 C 198.200 141.155,200.170 139.121,201.600 137.716 C 208.421 131.013,214.788 124.591,216.600 122.589 C 219.561 119.317,227.096 111.600,227.330 111.600 C 227.442 111.600,228.673 110.404,230.067 108.941 C 231.460 107.479,234.400 104.416,236.600 102.134 C 238.800 99.853,241.860 96.630,243.400 94.972 C 244.940 93.314,246.986 91.202,247.946 90.279 C 250.443 87.877,261.025 77.064,263.828 74.050 C 265.133 72.647,267.605 70.127,269.322 68.450 C 271.039 66.772,274.994 62.835,278.109 59.700 C 285.164 52.601,284.429 52.679,290.338 58.403 C 292.834 60.822,294.960 62.800,295.062 62.800 C 295.296 62.800,301.547 68.912,305.085 72.600 C 308.151 75.796,315.125 82.622,322.347 89.493 C 325.068 92.082,328.128 95.093,329.147 96.185 C 330.166 97.276,333.115 100.248,335.700 102.788 C 341.714 108.698,341.725 108.075,335.500 114.447 C 332.805 117.205,329.941 120.259,329.136 121.231 C 328.330 122.204,325.312 125.340,322.428 128.200 C 314.135 136.424,308.292 142.412,306.165 144.867 C 305.084 146.114,303.975 147.149,303.700 147.167 C 303.425 147.185,303.200 147.375,303.200 147.589 C 303.200 147.980,296.868 154.457,291.998 159.050 C 288.757 162.105,284.800 166.315,284.800 166.707 C 284.800 166.869,281.967 169.792,278.505 173.201 C 265.992 185.524,259.200 192.586,259.200 193.271 C 259.200 193.452,258.945 193.600,258.633 193.600 C 258.322 193.600,258.007 193.766,257.933 193.969 C 257.860 194.173,256.225 195.963,254.300 197.948 C 250.110 202.269,250.160 201.811,253.500 205.292 C 254.985 206.839,256.650 208.594,257.200 209.192 C 263.313 215.834,271.629 224.441,273.439 226.000 C 274.768 227.145,279.830 232.579,282.200 235.404 C 283.080 236.454,287.708 241.249,292.484 246.061 C 297.259 250.873,301.669 255.470,302.284 256.276 C 302.898 257.082,304.885 259.248,306.700 261.088 C 308.515 262.929,310.000 264.607,310.000 264.817 C 310.000 265.028,310.176 265.200,310.392 265.200 C 310.607 265.200,311.538 266.019,312.461 267.020 C 313.383 268.020,316.402 271.125,319.169 273.920 C 321.936 276.714,325.944 280.890,328.076 283.200 C 330.208 285.510,333.853 289.379,336.176 291.797 C 341.680 297.526,341.757 296.851,334.797 303.737 C 331.719 306.783,329.200 309.423,329.200 309.604 C 329.200 309.785,329.032 309.993,328.827 310.067 C 328.080 310.333,315.871 322.042,311.664 326.524 C 310.490 327.776,309.489 328.800,309.440 328.800 C 309.392 328.800,306.131 331.950,302.194 335.800 C 298.258 339.650,294.938 342.803,294.818 342.807 C 294.503 342.817,290.800 346.332,290.800 346.621 C 290.800 346.755,289.734 347.930,288.432 349.232 C 285.168 352.496,284.213 352.486,281.200 349.161 C 279.136 346.883,275.946 343.681,268.381 336.294 C 266.631 334.586,265.200 333.011,265.200 332.794 C 265.200 332.577,265.034 332.400,264.831 332.400 C 264.628 332.400,262.873 330.740,260.931 328.711 C 258.989 326.682,252.270 319.855,246.000 313.539 C 239.730 307.224,232.980 300.377,231.000 298.325 C 229.020 296.273,225.960 293.221,224.200 291.543 C 220.202 287.731,212.000 279.315,212.000 279.024 C 212.000 278.598,193.791 260.804,193.353 260.802 C 193.107 260.801,191.281 262.465,189.295 264.500 C 187.310 266.535,184.991 268.888,184.142 269.728 C 182.206 271.647,175.709 278.260,172.800 281.274 C 167.200 287.075,144.664 310.111,138.200 316.641 C 134.240 320.642,128.570 326.464,125.600 329.580 C 122.630 332.696,119.994 335.460,119.742 335.723 C 119.490 335.985,116.925 338.514,114.042 341.342 C 111.159 344.170,108.800 346.575,108.800 346.687 C 108.800 346.799,107.470 348.220,105.845 349.845 C 102.054 353.637,101.373 353.706,98.435 350.600 C 97.291 349.390,96.185 348.400,95.977 348.400 C 95.770 348.400,95.600 348.265,95.600 348.099 C 95.600 347.657,92.125 344.000,91.705 344.000 C 91.508 344.000,90.810 343.415,90.154 342.700 C 89.498 341.985,83.335 335.910,76.459 329.200 C 45.722 299.205,44.408 297.786,46.600 296.945 C 46.930 296.818,47.200 296.464,47.200 296.157 C 47.200 295.851,47.367 295.600,47.572 295.600 C 47.776 295.600,48.991 294.495,50.272 293.143 C 51.552 291.792,54.630 288.612,57.112 286.075 C 59.593 283.539,62.805 280.144,64.250 278.530 C 65.694 276.916,67.593 274.922,68.469 274.098 C 71.367 271.375,83.119 259.443,85.279 257.032 C 87.762 254.260,91.561 250.400,91.805 250.400 C 91.899 250.400,94.219 248.105,96.961 245.300 C 105.645 236.418,108.000 233.950,108.000 233.731 C 108.000 233.614,111.465 230.060,115.700 225.834 C 119.935 221.609,124.930 216.525,126.800 214.537 C 134.061 206.819,135.624 205.200,135.809 205.200 C 136.057 205.200,137.600 203.659,137.600 203.411 C 137.600 203.307,135.575 201.157,133.100 198.634 C 127.919 193.353,125.309 190.599,120.000 184.815 C 117.910 182.538,115.750 180.298,115.200 179.837 C 113.576 178.477,105.685 170.424,101.800 166.162 C 99.820 163.990,94.507 158.520,89.993 154.006 C 85.480 149.493,81.070 144.907,80.193 143.815 C 79.317 142.724,74.709 137.954,69.954 133.215 C 65.198 128.477,60.046 123.160,58.504 121.400 C 56.962 119.640,53.517 115.972,50.850 113.250 C 47.598 109.930,46.000 108.007,46.000 107.413 C 46.000 106.784,49.260 103.273,57.186 95.363 C 73.020 79.562,90.810 62.134,92.066 61.194 C 92.652 60.755,94.869 58.686,96.992 56.598 C 99.517 54.114,101.157 52.800,101.735 52.800 C 102.356 52.800,106.061 56.212,114.222 64.300 " stroke="none" fill="#f9f8f8" fill-rule="evenodd"></path><path id="path2" d="M108.200 59.540 C 111.280 62.682,114.073 65.404,114.407 65.590 C 114.945 65.890,103.582 54.477,102.882 54.014 C 102.727 53.912,105.120 56.398,108.200 59.540 M95.393 58.900 L 91.000 63.400 95.500 59.007 C 97.975 56.591,100.000 54.566,100.000 54.507 C 100.000 54.218,99.474 54.720,95.393 58.900 M275.200 63.400 C 270.254 68.350,266.311 72.400,266.439 72.400 C 266.566 72.400,270.615 68.434,275.435 63.587 C 281.151 57.841,284.442 54.814,284.895 54.887 C 285.277 54.949,288.638 57.925,292.363 61.500 C 296.089 65.075,299.236 68.000,299.356 68.000 C 299.477 68.000,296.386 64.941,292.488 61.202 C 288.590 57.462,285.128 54.402,284.797 54.402 C 284.465 54.401,280.146 58.450,275.200 63.400 M88.700 65.185 C 87.682 66.177,87.840 66.580,88.871 65.620 C 89.350 65.174,89.665 64.740,89.571 64.656 C 89.477 64.572,89.085 64.810,88.700 65.185 M78.797 75.096 L 70.200 83.792 78.000 76.196 C 85.064 69.316,87.901 66.400,87.527 66.400 C 87.453 66.400,83.525 70.313,78.797 75.096 M131.020 82.441 C 139.809 91.263,147.238 98.733,147.529 99.041 C 147.819 99.348,148.164 99.600,148.295 99.600 C 148.426 99.600,148.458 99.525,148.367 99.433 C 148.275 99.341,140.856 91.871,131.881 82.833 C 122.906 73.795,115.445 66.400,115.301 66.400 C 115.158 66.400,122.231 73.618,131.020 82.441 M302.400 71.343 C 304.050 72.961,305.476 74.220,305.569 74.140 C 305.768 73.969,300.032 68.400,299.657 68.401 C 299.516 68.401,300.750 69.725,302.400 71.343 M263.842 74.900 C 263.437 75.395,261.552 77.420,259.653 79.400 C 256.692 82.488,256.841 82.376,260.701 78.607 C 263.175 76.191,265.200 74.166,265.200 74.107 C 265.200 73.712,264.460 74.144,263.842 74.900 M306.769 75.488 C 307.612 76.738,308.353 77.426,308.549 77.140 C 308.602 77.063,308.027 76.370,307.272 75.600 L 305.900 74.200 306.769 75.488 M312.800 81.400 C 313.546 82.170,314.247 82.800,314.357 82.800 C 314.467 82.800,313.946 82.170,313.200 81.400 C 312.454 80.630,311.753 80.000,311.643 80.000 C 311.533 80.000,312.054 80.630,312.800 81.400 M322.968 91.314 C 327.385 95.667,332.983 101.157,335.406 103.514 C 337.830 105.871,336.120 104.104,331.606 99.587 C 327.093 95.071,321.495 89.581,319.168 87.387 C 316.840 85.194,318.550 86.961,322.968 91.314 M63.238 90.100 C 57.841 95.377,47.687 105.756,48.470 105.194 C 49.158 104.699,69.888 84.000,69.695 84.000 C 69.574 84.000,66.668 86.745,63.238 90.100 M248.704 90.400 C 247.788 91.280,247.158 92.000,247.303 92.000 C 247.448 92.000,248.323 91.280,249.248 90.400 C 250.173 89.520,250.804 88.800,250.650 88.800 C 250.495 88.800,249.620 89.520,248.704 90.400 M245.842 93.300 C 245.437 93.795,243.283 96.090,241.054 98.400 C 237.337 102.251,237.424 102.185,242.100 97.606 C 244.905 94.859,247.200 92.564,247.200 92.506 C 247.200 92.112,246.459 92.545,245.842 93.300 M149.475 101.154 C 150.094 101.789,150.669 102.245,150.754 102.167 C 150.965 101.973,149.080 100.016,148.675 100.007 C 148.496 100.003,148.856 100.519,149.475 101.154 M151.200 102.537 C 151.200 102.659,151.650 103.244,152.200 103.838 C 152.750 104.431,153.197 104.756,153.193 104.558 C 153.186 104.176,151.200 102.163,151.200 102.537 M227.213 112.460 C 222.710 117.052,218.859 121.123,218.654 121.505 C 218.449 121.887,218.354 122.107,218.441 121.994 C 218.528 121.881,222.555 117.786,227.388 112.894 C 232.221 108.002,236.001 104.025,235.788 104.055 C 235.575 104.085,231.716 107.867,227.213 112.460 M161.265 112.778 C 163.297 114.770,165.055 116.400,165.171 116.400 C 165.516 116.400,159.061 109.978,158.285 109.550 C 157.891 109.333,159.232 110.785,161.265 112.778 M48.800 110.338 C 48.800 110.524,49.160 111.002,49.600 111.400 C 50.040 111.798,50.400 112.006,50.400 111.862 C 50.400 111.718,50.040 111.240,49.600 110.800 C 49.160 110.360,48.800 110.152,48.800 110.338 M332.700 116.176 C 329.895 119.080,327.600 121.555,327.600 121.674 C 327.600 121.794,329.940 119.511,332.800 116.600 C 335.660 113.689,338.000 111.193,338.000 111.054 C 338.000 110.677,338.176 110.506,332.700 116.176 M54.000 115.800 C 55.860 117.670,57.472 119.200,57.582 119.200 C 57.692 119.200,56.260 117.670,54.400 115.800 C 52.540 113.930,50.928 112.400,50.818 112.400 C 50.708 112.400,52.140 113.930,54.000 115.800 M166.618 118.000 C 167.845 119.569,169.199 120.937,169.350 120.761 C 169.425 120.672,168.665 119.790,167.661 118.800 C 166.657 117.810,166.187 117.450,166.618 118.000 M62.025 124.340 C 63.881 126.287,65.670 128.005,66.000 128.159 C 66.330 128.313,64.894 126.720,62.808 124.619 C 58.040 119.817,57.543 119.640,62.025 124.340 M178.797 130.515 C 183.965 135.732,188.279 140.000,188.383 140.000 C 188.689 140.000,171.288 122.536,169.800 121.349 C 169.580 121.174,173.629 125.298,178.797 130.515 M209.796 130.500 L 203.000 137.400 209.900 130.604 C 216.310 124.291,216.981 123.600,216.696 123.600 C 216.638 123.600,213.533 126.705,209.796 130.500 M323.966 125.152 C 322.803 126.340,322.644 127.017,323.792 125.894 C 324.413 125.286,324.849 124.724,324.761 124.646 C 324.672 124.567,324.315 124.795,323.966 125.152 M317.785 131.700 L 315.800 133.800 317.900 131.815 C 319.851 129.971,320.183 129.600,319.885 129.600 C 319.822 129.600,318.877 130.545,317.785 131.700 M70.400 132.517 C 70.400 132.894,72.763 135.372,72.936 135.177 C 73.023 135.080,72.488 134.389,71.747 133.642 C 71.006 132.895,70.400 132.389,70.400 132.517 M315.142 133.946 C 315.064 134.163,312.579 136.812,309.620 139.831 C 306.660 142.850,304.422 145.248,304.645 145.160 C 305.354 144.880,315.727 133.993,315.500 133.767 C 315.381 133.648,315.220 133.728,315.142 133.946 M76.800 139.387 C 78.890 141.581,80.645 143.456,80.700 143.554 C 80.755 143.653,80.884 143.649,80.987 143.546 C 81.090 143.443,79.335 141.568,77.087 139.380 L 73.000 135.400 76.800 139.387 M188.800 140.250 C 188.800 140.461,189.655 141.436,190.700 142.417 L 192.600 144.200 190.800 142.207 C 189.810 141.112,188.955 140.137,188.900 140.041 C 188.845 139.945,188.800 140.039,188.800 140.250 M198.383 141.823 C 197.402 142.825,196.870 143.527,197.200 143.383 C 197.772 143.132,200.670 140.000,200.330 140.000 C 200.240 140.000,199.364 140.820,198.383 141.823 M84.467 147.500 C 86.364 149.425,88.740 151.851,89.747 152.891 C 90.753 153.930,92.347 155.449,93.288 156.264 C 94.230 157.080,91.942 154.655,88.204 150.874 C 84.467 147.093,81.321 144.000,81.213 144.000 C 81.105 144.000,82.569 145.575,84.467 147.500 M296.759 153.027 C 292.711 157.111,289.317 160.576,289.215 160.727 C 289.113 160.877,292.488 157.582,296.715 153.404 C 300.942 149.226,304.400 145.761,304.400 145.704 C 304.400 145.364,303.426 146.297,296.759 153.027 M103.096 166.600 C 105.320 169.020,108.453 172.260,110.059 173.800 C 111.665 175.340,110.657 174.170,107.818 171.200 C 100.422 163.461,98.410 161.501,103.096 166.600 M277.870 172.400 C 274.190 176.140,271.292 179.200,271.431 179.200 C 271.653 179.200,275.230 175.626,282.739 167.900 C 283.969 166.635,284.882 165.600,284.768 165.600 C 284.654 165.600,281.550 168.660,277.870 172.400 M123.620 187.821 C 124.599 188.933,125.481 189.781,125.581 189.707 C 125.680 189.633,124.879 188.723,123.801 187.686 L 121.840 185.800 123.620 187.821 M262.800 187.800 C 261.828 188.790,261.123 189.600,261.233 189.600 C 261.343 189.600,262.228 188.790,263.200 187.800 C 264.172 186.810,264.877 186.000,264.767 186.000 C 264.657 186.000,263.772 186.810,262.800 187.800 M259.700 190.963 C 259.205 191.485,258.800 192.049,258.800 192.215 C 258.800 192.381,259.250 192.031,259.800 191.438 C 260.691 190.477,260.999 189.986,260.700 190.007 C 260.645 190.011,260.195 190.441,259.700 190.963 M128.400 192.766 C 128.400 192.895,130.558 195.161,133.195 197.801 C 135.832 200.440,137.992 202.846,137.995 203.146 C 137.998 203.447,134.827 207.047,130.950 211.146 L 123.899 218.600 131.134 211.200 C 135.113 207.130,138.376 203.539,138.385 203.219 C 138.393 202.899,136.150 200.364,133.400 197.585 C 130.650 194.805,128.400 192.637,128.400 192.766 M253.152 197.819 C 248.990 202.064,248.993 202.047,252.086 205.000 L 254.600 207.400 252.300 204.988 C 249.378 201.924,249.354 202.065,253.492 197.908 C 255.412 195.979,256.875 194.400,256.743 194.400 C 256.611 194.400,254.995 195.938,253.152 197.819 M259.400 212.800 C 260.483 213.900,261.460 214.800,261.570 214.800 C 261.680 214.800,260.883 213.900,259.800 212.800 C 258.717 211.700,257.740 210.800,257.630 210.800 C 257.520 210.800,258.317 211.700,259.400 212.800 M266.800 220.600 C 268.660 222.470,270.272 224.000,270.382 224.000 C 270.492 224.000,269.060 222.470,267.200 220.600 C 265.340 218.730,263.728 217.200,263.618 217.200 C 263.508 217.200,264.940 218.730,266.800 220.600 M121.385 220.900 L 119.400 223.000 121.500 221.015 C 122.655 219.923,123.600 218.978,123.600 218.915 C 123.600 218.617,123.229 218.949,121.385 220.900 M270.800 224.559 C 270.800 224.691,271.790 225.782,273.000 226.983 C 274.210 228.183,275.200 229.028,275.200 228.860 C 275.200 228.692,274.210 227.601,273.000 226.436 C 271.790 225.270,270.800 224.426,270.800 224.559 M278.383 232.500 C 279.364 233.545,280.219 234.400,280.283 234.400 C 280.584 234.400,280.266 234.041,278.500 232.383 L 276.600 230.600 278.383 232.500 M106.613 235.992 L 103.826 239.000 106.795 236.115 C 108.427 234.528,109.681 233.174,109.582 233.107 C 109.482 233.039,108.146 234.337,106.613 235.992 M286.600 241.200 C 288.350 242.960,289.871 244.400,289.981 244.400 C 290.091 244.400,288.750 242.960,287.000 241.200 C 285.250 239.440,283.729 238.000,283.619 238.000 C 283.509 238.000,284.850 239.440,286.600 241.200 M91.396 251.700 L 83.400 259.800 91.500 251.804 C 95.955 247.406,99.600 243.761,99.600 243.704 C 99.600 243.419,98.826 244.174,91.396 251.700 M296.200 251.200 C 298.612 253.620,300.676 255.600,300.786 255.600 C 300.896 255.600,299.012 253.620,296.600 251.200 C 294.188 248.780,292.124 246.800,292.014 246.800 C 291.904 246.800,293.788 248.780,296.200 251.200 M302.800 258.110 C 302.800 258.171,304.195 259.566,305.900 261.210 L 309.000 264.200 306.010 261.100 C 303.233 258.221,302.800 257.817,302.800 258.110 M193.000 259.879 C 193.440 259.982,198.300 264.506,203.800 269.933 L 213.800 279.800 203.803 269.700 C 196.957 262.784,193.553 259.615,193.003 259.646 C 192.203 259.693,192.203 259.693,193.000 259.879 M76.393 267.100 L 71.800 271.800 76.500 267.207 C 80.866 262.940,81.382 262.400,81.093 262.400 C 81.035 262.400,78.920 264.515,76.393 267.100 M315.619 271.500 C 318.138 274.085,320.740 276.634,321.400 277.164 C 322.060 277.694,320.082 275.579,317.005 272.464 C 313.928 269.349,311.327 266.800,311.224 266.800 C 311.121 266.800,313.099 268.915,315.619 271.500 M183.385 269.300 L 181.400 271.400 183.500 269.415 C 184.655 268.323,185.600 267.378,185.600 267.315 C 185.600 267.017,185.229 267.349,183.385 269.300 M176.992 275.700 L 173.000 279.800 177.100 275.808 C 179.355 273.612,181.200 271.767,181.200 271.708 C 181.200 271.418,180.701 271.892,176.992 275.700 M69.385 274.100 L 67.400 276.200 69.500 274.215 C 70.655 273.123,71.600 272.178,71.600 272.115 C 71.600 271.817,71.229 272.149,69.385 274.100 M324.783 280.900 C 326.441 282.666,326.800 282.984,326.800 282.683 C 326.800 282.619,325.945 281.764,324.900 280.783 L 323.000 279.000 324.783 280.900 M58.600 285.200 C 55.967 287.840,53.903 290.000,54.013 290.000 C 54.123 290.000,56.367 287.840,59.000 285.200 C 61.633 282.560,63.697 280.400,63.587 280.400 C 63.477 280.400,61.233 282.560,58.600 285.200 M216.740 283.033 C 217.137 283.827,218.400 285.104,218.400 284.711 C 218.400 284.608,217.933 284.001,217.362 283.362 C 216.669 282.587,216.462 282.477,216.740 283.033 M161.796 291.300 L 153.800 299.400 161.900 291.404 C 166.355 287.006,170.000 283.361,170.000 283.304 C 170.000 283.019,169.226 283.774,161.796 291.300 M334.600 291.200 C 336.571 293.180,338.273 294.800,338.383 294.800 C 338.493 294.800,336.971 293.180,335.000 291.200 C 333.029 289.220,331.327 287.600,331.217 287.600 C 331.107 287.600,332.629 289.220,334.600 291.200 M332.705 304.701 C 328.802 308.605,325.479 311.980,325.319 312.200 C 325.160 312.420,328.398 309.272,332.515 305.204 C 339.443 298.358,340.181 297.599,339.900 297.601 C 339.845 297.601,336.607 300.796,332.705 304.701 M147.613 305.787 C 145.098 308.309,143.121 310.424,143.220 310.487 C 143.319 310.549,145.462 308.485,147.981 305.900 C 150.501 303.315,152.478 301.200,152.375 301.200 C 152.272 301.200,150.129 303.264,147.613 305.787 M239.219 305.900 C 241.738 308.485,244.340 311.034,245.000 311.564 C 245.660 312.094,243.682 309.979,240.605 306.864 C 237.528 303.749,234.927 301.200,234.824 301.200 C 234.721 301.200,236.699 303.315,239.219 305.900 M53.200 305.355 C 53.200 305.510,64.217 316.432,64.730 316.786 C 64.879 316.888,62.392 314.323,59.205 311.086 C 53.624 305.417,53.200 305.012,53.200 305.355 M137.506 316.211 C 136.684 316.975,136.154 317.600,136.327 317.600 C 136.501 317.600,137.254 316.970,138.000 316.200 C 139.741 314.403,139.443 314.410,137.506 316.211 M319.186 317.900 L 317.000 320.200 319.300 318.014 C 321.437 315.982,321.783 315.600,321.486 315.600 C 321.424 315.600,320.389 316.635,319.186 317.900 M249.633 316.500 C 249.725 316.555,250.340 317.050,251.000 317.600 L 252.200 318.600 251.230 317.500 C 250.697 316.895,250.082 316.400,249.864 316.400 C 249.645 316.400,249.542 316.445,249.633 316.500 M66.400 318.600 C 67.146 319.370,67.847 320.000,67.957 320.000 C 68.067 320.000,67.546 319.370,66.800 318.600 C 66.054 317.830,65.353 317.200,65.243 317.200 C 65.133 317.200,65.654 317.830,66.400 318.600 M70.600 322.400 C 71.459 323.280,72.252 324.000,72.362 324.000 C 72.472 324.000,71.859 323.280,71.000 322.400 C 70.141 321.520,69.348 320.800,69.238 320.800 C 69.128 320.800,69.741 321.520,70.600 322.400 M128.786 325.100 L 126.600 327.400 128.900 325.214 C 131.037 323.182,131.383 322.800,131.086 322.800 C 131.024 322.800,129.989 323.835,128.786 325.100 M264.000 331.000 C 267.845 334.850,271.081 338.000,271.191 338.000 C 271.301 338.000,268.245 334.850,264.400 331.000 C 260.555 327.150,257.319 324.000,257.209 324.000 C 257.099 324.000,260.155 327.150,264.000 331.000 M76.600 328.400 C 78.792 330.600,80.675 332.400,80.785 332.400 C 80.895 332.400,79.192 330.600,77.000 328.400 C 74.808 326.200,72.925 324.400,72.815 324.400 C 72.705 324.400,74.408 326.200,76.600 328.400 M302.370 334.300 L 301.400 335.400 302.600 334.400 C 303.260 333.850,303.875 333.355,303.967 333.300 C 304.058 333.245,303.955 333.200,303.736 333.200 C 303.518 333.200,302.903 333.695,302.370 334.300 M113.806 340.400 L 107.412 347.000 113.989 340.516 C 117.606 336.950,120.483 333.980,120.383 333.916 C 120.282 333.852,117.323 336.770,113.806 340.400 M297.591 339.100 L 294.200 342.600 297.700 339.209 C 300.951 336.059,301.382 335.600,301.091 335.600 C 301.031 335.600,299.456 337.175,297.591 339.100 M275.593 342.500 C 279.487 346.494,280.000 346.982,280.000 346.693 C 280.000 346.634,278.065 344.699,275.700 342.393 L 271.400 338.200 275.593 342.500 M95.284 346.589 C 98.520 349.876,101.220 352.483,101.284 352.382 C 101.348 352.282,98.700 349.593,95.400 346.407 L 89.400 340.613 95.284 346.589 M104.020 350.579 L 102.240 352.600 104.201 350.714 C 105.279 349.677,106.080 348.767,105.981 348.693 C 105.881 348.619,104.999 349.467,104.020 350.579 " stroke="none" fill="#f69797" fill-rule="evenodd"></path><path id="path3" d="M93.000 61.462 C 56.542 97.157,46.800 106.847,46.800 107.415 C 46.800 107.695,47.655 108.815,48.700 109.903 C 49.745 110.990,54.110 115.535,58.400 120.001 C 62.690 124.467,67.730 129.679,69.600 131.582 C 71.470 133.486,74.977 137.104,77.393 139.622 C 79.809 142.140,85.389 147.898,89.793 152.417 C 94.197 156.936,99.238 162.156,100.995 164.017 C 105.253 168.525,123.802 187.728,131.800 195.908 C 135.320 199.507,138.262 202.728,138.337 203.065 C 138.415 203.415,136.787 205.419,134.541 207.739 C 117.347 225.493,72.654 271.222,55.800 288.306 C 45.334 298.915,45.695 297.994,50.282 302.367 C 53.718 305.642,80.740 332.039,94.112 345.184 C 102.652 353.579,101.510 353.147,105.142 349.354 C 108.325 346.031,121.842 332.167,135.321 318.400 C 139.737 313.890,145.878 307.590,148.967 304.400 C 170.837 281.818,192.865 259.600,193.383 259.600 C 193.645 259.600,199.418 265.225,206.211 272.100 C 213.005 278.975,227.301 293.429,237.982 304.220 C 248.662 315.011,263.467 329.996,270.882 337.520 C 278.297 345.044,284.556 351.200,284.789 351.200 C 285.023 351.200,288.676 347.803,292.907 343.651 C 297.138 339.499,305.268 331.534,310.974 325.951 C 338.579 298.938,340.131 297.362,339.759 296.720 C 339.415 296.125,329.936 286.163,317.577 273.409 C 310.405 266.007,303.135 258.448,302.600 257.835 C 302.380 257.583,299.860 254.950,297.000 251.984 C 294.140 249.018,289.460 244.150,286.600 241.166 C 283.740 238.183,277.522 231.705,272.782 226.771 C 268.042 221.837,262.732 216.284,260.982 214.431 C 259.232 212.578,256.000 209.185,253.800 206.891 C 251.600 204.597,249.800 202.395,249.800 201.997 C 249.800 201.344,258.115 192.491,271.600 178.787 C 277.221 173.074,285.326 164.783,298.002 151.779 C 302.731 146.928,311.370 138.096,317.200 132.154 C 334.401 114.620,340.000 108.803,340.000 108.465 C 340.000 108.132,334.641 102.829,307.384 76.185 C 286.736 56.001,285.465 54.800,284.745 54.800 C 284.133 54.800,275.253 63.701,250.608 89.017 C 242.693 97.147,232.253 107.841,227.408 112.780 C 222.564 117.719,218.150 122.243,217.600 122.832 C 211.846 128.998,194.958 145.600,194.439 145.600 C 194.069 145.600,176.853 128.569,156.183 107.753 C 107.582 58.811,102.326 53.597,101.602 53.615 C 101.271 53.623,97.400 57.154,93.000 61.462 M148.017 100.400 C 179.036 131.598,194.017 146.402,194.576 146.405 C 195.114 146.408,197.321 144.430,200.935 140.705 C 203.979 137.567,209.919 131.483,214.135 127.184 C 228.036 113.008,254.997 85.442,257.219 83.132 C 271.702 68.077,284.278 55.585,284.852 55.684 C 285.478 55.791,294.833 64.661,308.027 77.655 C 311.011 80.595,319.156 88.565,326.127 95.367 C 333.097 102.170,338.800 108.024,338.800 108.377 C 338.800 108.730,337.315 110.551,335.500 112.422 C 327.336 120.841,304.107 144.652,295.162 153.771 C 289.751 159.287,284.640 164.520,283.805 165.400 C 282.969 166.280,276.830 172.580,270.163 179.400 C 245.133 205.001,247.706 201.424,251.463 205.400 C 257.356 211.637,275.617 230.678,284.646 240.000 C 287.096 242.530,291.058 246.654,293.450 249.165 C 295.843 251.676,298.790 254.753,300.000 256.002 C 301.210 257.252,303.910 260.058,306.000 262.238 C 315.708 272.366,328.687 285.886,333.500 290.885 C 336.415 293.913,338.800 296.721,338.800 297.127 C 338.800 297.566,334.560 301.982,328.330 308.032 C 322.572 313.624,315.223 320.810,312.000 324.000 C 298.037 337.818,285.482 349.809,284.864 349.915 C 284.247 350.021,274.283 340.276,258.981 324.600 C 256.189 321.740,243.082 308.450,229.853 295.067 C 216.624 281.684,203.154 268.049,199.920 264.767 C 196.680 261.479,193.718 258.800,193.322 258.800 C 192.928 258.800,190.804 260.651,188.602 262.914 C 184.515 267.115,158.533 293.708,145.200 307.338 C 141.130 311.499,136.630 316.101,135.200 317.566 C 111.930 341.398,102.157 351.200,101.665 351.200 C 101.335 351.200,97.721 347.899,93.633 343.864 C 86.707 337.029,80.463 330.919,61.444 312.370 C 51.424 302.597,47.605 298.686,47.602 298.193 C 47.600 297.746,51.101 294.076,68.524 276.262 C 74.946 269.696,81.889 262.586,83.954 260.462 C 86.019 258.338,91.239 252.998,95.554 248.595 C 132.869 210.523,139.202 203.968,139.194 203.423 C 139.182 202.618,136.202 199.450,114.156 176.807 C 110.832 173.393,106.242 168.639,103.956 166.242 C 99.206 161.261,96.936 158.911,89.044 150.797 C 85.940 147.606,80.808 142.296,77.640 138.997 C 74.471 135.699,67.524 128.500,62.200 123.000 C 49.254 109.625,47.625 107.877,47.611 107.351 C 47.601 106.959,66.860 87.868,88.957 66.365 C 92.893 62.534,97.213 58.292,98.557 56.938 C 99.901 55.583,101.289 54.458,101.641 54.438 C 101.994 54.417,122.863 75.100,148.017 100.400 " stroke="none" fill="#e47c74" fill-rule="evenodd"></path><path id="path4" d="M96.992 56.598 C 94.869 58.686,92.652 60.755,92.066 61.194 C 90.810 62.134,73.020 79.562,57.186 95.363 C 49.260 103.273,46.000 106.784,46.000 107.413 C 46.000 108.007,47.598 109.930,50.850 113.250 C 53.517 115.972,56.962 119.640,58.504 121.400 C 60.046 123.160,65.198 128.477,69.954 133.215 C 74.709 137.954,79.317 142.724,80.193 143.815 C 81.070 144.907,85.480 149.493,89.993 154.006 C 94.507 158.520,99.820 163.990,101.800 166.162 C 105.685 170.424,113.576 178.477,115.200 179.837 C 115.750 180.298,117.910 182.538,120.000 184.815 C 125.309 190.599,127.919 193.353,133.100 198.634 C 135.575 201.157,137.600 203.307,137.600 203.411 C 137.600 203.659,136.057 205.200,135.809 205.200 C 135.624 205.200,134.061 206.819,126.800 214.537 C 124.930 216.525,119.935 221.609,115.700 225.834 C 111.465 230.060,108.000 233.614,108.000 233.731 C 108.000 233.950,105.645 236.418,96.961 245.300 C 94.219 248.105,91.899 250.400,91.805 250.400 C 91.561 250.400,87.762 254.260,85.279 257.032 C 83.119 259.443,71.367 271.375,68.469 274.098 C 67.593 274.922,65.694 276.916,64.250 278.530 C 62.805 280.144,59.593 283.539,57.112 286.075 C 54.630 288.612,51.552 291.792,50.272 293.143 C 48.991 294.495,47.776 295.600,47.572 295.600 C 47.367 295.600,47.200 295.851,47.200 296.157 C 47.200 296.464,46.930 296.818,46.600 296.945 C 44.408 297.786,45.722 299.205,76.459 329.200 C 83.335 335.910,89.498 341.985,90.154 342.700 C 90.810 343.415,91.508 344.000,91.705 344.000 C 92.125 344.000,95.600 347.657,95.600 348.099 C 95.600 348.265,95.770 348.400,95.977 348.400 C 96.185 348.400,97.291 349.390,98.435 350.600 C 101.373 353.706,102.054 353.637,105.845 349.845 C 107.470 348.220,108.800 346.799,108.800 346.687 C 108.800 346.575,111.159 344.170,114.042 341.342 C 116.925 338.514,119.490 335.985,119.742 335.723 C 119.994 335.460,122.630 332.696,125.600 329.580 C 128.570 326.464,134.240 320.642,138.200 316.641 C 144.664 310.111,167.200 287.075,172.800 281.274 C 175.709 278.260,182.206 271.647,184.142 269.728 C 184.991 268.888,187.310 266.535,189.295 264.500 C 191.281 262.465,193.107 260.801,193.353 260.802 C 193.791 260.804,212.000 278.598,212.000 279.024 C 212.000 279.315,220.202 287.731,224.200 291.543 C 225.960 293.221,229.020 296.273,231.000 298.325 C 232.980 300.377,239.730 307.224,246.000 313.539 C 252.270 319.855,258.989 326.682,260.931 328.711 C 262.873 330.740,264.628 332.400,264.831 332.400 C 265.034 332.400,265.200 332.577,265.200 332.794 C 265.200 333.011,266.631 334.586,268.381 336.294 C 275.946 343.681,279.136 346.883,281.200 349.161 C 284.213 352.486,285.168 352.496,288.432 349.232 C 289.734 347.930,290.800 346.755,290.800 346.621 C 290.800 346.332,294.503 342.817,294.818 342.807 C 294.938 342.803,298.258 339.650,302.194 335.800 C 306.131 331.950,309.392 328.800,309.440 328.800 C 309.489 328.800,310.490 327.776,311.664 326.524 C 315.871 322.042,328.080 310.333,328.827 310.067 C 329.032 309.993,329.200 309.785,329.200 309.604 C 329.200 309.423,331.719 306.783,334.797 303.737 C 341.757 296.851,341.680 297.526,336.176 291.797 C 333.853 289.379,330.208 285.510,328.076 283.200 C 325.944 280.890,321.936 276.714,319.169 273.920 C 316.402 271.125,313.383 268.020,312.461 267.020 C 311.538 266.019,310.607 265.200,310.392 265.200 C 310.176 265.200,310.000 265.028,310.000 264.817 C 310.000 264.607,308.515 262.929,306.700 261.088 C 304.885 259.248,302.898 257.082,302.284 256.276 C 301.669 255.470,297.259 250.873,292.484 246.061 C 287.708 241.249,283.080 236.454,282.200 235.404 C 279.830 232.579,274.768 227.145,273.439 226.000 C 271.629 224.441,263.313 215.834,257.200 209.192 C 256.650 208.594,254.985 206.839,253.500 205.292 C 250.160 201.811,250.110 202.269,254.300 197.948 C 256.225 195.963,257.860 194.173,257.933 193.969 C 258.007 193.766,258.322 193.600,258.633 193.600 C 258.945 193.600,259.200 193.452,259.200 193.271 C 259.200 192.586,265.992 185.524,278.505 173.201 C 281.967 169.792,284.800 166.869,284.800 166.707 C 284.800 166.315,288.757 162.105,291.998 159.050 C 296.868 154.457,303.200 147.980,303.200 147.589 C 303.200 147.375,303.425 147.185,303.700 147.167 C 303.975 147.149,305.084 146.114,306.165 144.867 C 308.292 142.412,314.135 136.424,322.428 128.200 C 325.312 125.340,328.330 122.204,329.136 121.231 C 329.941 120.259,332.805 117.205,335.500 114.447 C 341.725 108.075,341.714 108.698,335.700 102.788 C 333.115 100.248,330.166 97.276,329.147 96.185 C 328.128 95.093,325.068 92.082,322.347 89.493 C 315.125 82.622,308.151 75.796,305.085 72.600 C 301.547 68.912,295.296 62.800,295.062 62.800 C 294.960 62.800,292.834 60.822,290.338 58.403 C 284.429 52.679,285.164 52.601,278.109 59.700 C 274.994 62.835,271.039 66.772,269.322 68.450 C 267.605 70.127,265.133 72.647,263.828 74.050 C 261.025 77.064,250.443 87.877,247.946 90.279 C 246.986 91.202,244.940 93.314,243.400 94.972 C 241.860 96.630,238.800 99.853,236.600 102.134 C 234.400 104.416,231.460 107.479,230.067 108.941 C 228.673 110.404,227.442 111.600,227.330 111.600 C 227.096 111.600,219.561 119.317,216.600 122.589 C 214.788 124.591,208.421 131.013,201.600 137.716 C 200.170 139.121,198.200 141.155,197.222 142.235 C 196.244 143.316,195.220 144.338,194.947 144.506 C 194.519 144.769,167.600 118.581,167.600 117.901 C 167.600 117.790,165.693 115.832,163.363 113.549 C 157.042 107.360,148.895 99.145,142.600 92.612 C 139.520 89.416,136.879 86.800,136.730 86.800 C 136.582 86.800,134.872 85.158,132.930 83.150 C 130.989 81.143,128.966 79.118,128.435 78.650 C 127.905 78.183,127.100 77.350,126.648 76.800 C 123.699 73.213,102.509 52.800,101.735 52.800 C 101.157 52.800,99.517 54.114,96.992 56.598 M125.123 76.100 C 155.338 106.409,189.261 140.582,191.225 142.690 C 194.637 146.355,193.218 147.163,205.926 134.321 C 212.088 128.094,217.618 122.460,218.215 121.800 C 218.813 121.140,223.374 116.451,228.351 111.379 C 233.328 106.308,243.160 96.234,250.200 88.992 C 272.616 65.934,284.133 54.400,284.741 54.400 C 285.483 54.400,286.982 55.811,306.600 74.972 C 333.819 101.557,340.000 107.740,339.998 108.381 C 339.995 109.274,331.729 117.892,298.354 151.800 C 293.590 156.640,287.646 162.740,285.146 165.356 C 282.646 167.973,277.000 173.756,272.600 178.208 C 258.541 192.434,250.200 201.295,250.200 202.005 C 250.200 202.385,252.654 205.284,255.654 208.448 C 258.654 211.611,261.772 214.920,262.584 215.800 C 263.396 216.680,266.792 220.195,270.130 223.612 C 273.469 227.028,277.715 231.438,279.567 233.412 C 281.418 235.385,286.831 241.050,291.595 246.000 C 296.359 250.950,302.134 256.977,304.428 259.393 C 306.723 261.808,311.590 266.848,315.245 270.593 C 318.900 274.337,322.924 278.521,324.188 279.891 C 326.496 282.394,328.194 284.170,335.850 292.096 C 338.132 294.459,340.000 296.719,340.000 297.118 C 340.000 297.862,335.563 302.311,309.402 327.800 C 301.272 335.720,292.587 344.225,290.100 346.700 C 287.549 349.239,285.251 351.200,284.826 351.200 C 284.367 351.200,278.872 345.933,270.743 337.700 C 263.412 330.275,254.260 321.019,250.407 317.130 C 246.553 313.242,232.258 298.797,218.639 285.030 C 205.021 271.264,193.651 260.000,193.373 260.000 C 193.095 260.000,188.488 264.447,183.134 269.881 C 169.624 283.596,153.899 299.655,148.193 305.565 C 145.557 308.296,140.610 313.345,137.200 316.787 C 133.790 320.228,128.570 325.576,125.600 328.670 C 109.239 345.715,102.415 352.457,101.652 352.330 C 101.221 352.259,93.700 345.180,84.938 336.600 C 76.176 328.020,65.871 317.940,62.039 314.200 C 51.635 304.047,46.399 298.696,46.406 298.223 C 46.415 297.669,60.207 283.386,91.041 252.000 C 95.688 247.270,101.629 241.176,104.245 238.458 C 106.860 235.739,112.390 230.069,116.533 225.858 C 130.241 211.922,138.000 203.700,138.000 203.110 C 138.000 202.790,137.415 201.988,136.700 201.328 C 135.985 200.668,132.998 197.624,130.063 194.564 C 127.127 191.504,120.009 184.140,114.245 178.200 C 108.481 172.260,102.693 166.242,101.383 164.827 C 100.072 163.413,96.480 159.702,93.400 156.581 C 90.320 153.460,84.560 147.520,80.600 143.381 C 76.640 139.242,71.600 134.017,69.400 131.771 C 67.200 129.525,63.869 126.093,61.998 124.144 C 60.127 122.195,55.852 117.753,52.498 114.274 C 49.144 110.795,46.400 107.714,46.400 107.427 C 46.400 106.948,53.722 99.611,78.200 75.561 C 83.260 70.589,90.174 63.839,93.565 60.561 C 96.956 57.282,100.011 54.285,100.354 53.900 C 101.553 52.554,102.452 53.360,125.123 76.100 " stroke="none" fill="#fcbcb4" fill-rule="evenodd"></path></g></svg>