<svg id="svg" xmlns="http://www.w3.org/2000/svg" xmlns:xlink="http://www.w3.org/1999/xlink" width="400" height="400" viewBox="0, 0, 400,400"><g id="svgg"><path id="path0" d="M101.428 51.514 C 101.004 51.609,100.449 51.892,100.196 52.143 C 99.582 52.752,93.998 57.763,91.000 60.396 C 89.680 61.555,86.274 64.685,83.431 67.351 C 80.588 70.018,77.973 72.470,77.619 72.800 C 77.265 73.130,75.456 74.750,73.598 76.400 C 71.740 78.050,70.020 79.580,69.775 79.800 C 69.531 80.020,67.827 81.550,65.989 83.200 C 64.152 84.850,61.287 87.476,59.624 89.035 C 57.961 90.595,54.800 93.533,52.600 95.566 C 47.453 100.320,47.517 100.042,50.829 103.200 C 52.329 104.630,57.051 109.220,61.322 113.400 C 65.594 117.580,71.379 123.160,74.179 125.800 C 76.979 128.440,81.734 133.030,84.745 136.000 C 87.757 138.970,91.683 142.750,93.470 144.400 C 95.257 146.050,101.636 152.170,107.644 158.000 C 125.509 175.335,129.050 178.764,134.247 183.770 C 140.326 189.625,140.335 189.663,136.500 193.111 C 135.015 194.446,131.347 197.937,128.349 200.869 C 125.351 203.801,120.774 208.180,118.179 210.600 C 115.584 213.020,112.810 215.630,112.016 216.400 C 105.050 223.150,97.080 230.799,91.799 235.800 C 88.315 239.100,84.074 243.150,82.375 244.800 C 80.677 246.450,77.962 249.046,76.343 250.568 C 70.226 256.322,61.209 264.934,56.024 269.974 C 53.067 272.848,50.524 275.200,50.371 275.200 C 50.219 275.200,49.607 275.839,49.011 276.621 L 47.927 278.042 49.864 279.930 C 50.929 280.969,53.850 283.705,56.356 286.010 C 58.862 288.314,61.675 290.920,62.607 291.800 C 63.540 292.680,65.440 294.390,66.831 295.600 C 69.377 297.815,75.228 303.167,75.600 303.620 C 75.710 303.755,77.600 305.447,79.800 307.382 C 82.000 309.316,84.355 311.462,85.034 312.150 C 86.393 313.527,89.310 316.196,93.239 319.656 C 94.647 320.897,96.262 322.337,96.827 322.856 C 102.123 327.727,101.638 327.693,106.062 323.489 C 107.966 321.680,112.178 317.680,115.422 314.600 C 118.666 311.520,122.070 308.280,122.986 307.400 C 123.902 306.520,127.861 302.740,131.785 299.000 C 135.708 295.260,139.946 291.210,141.202 290.000 C 142.458 288.790,145.176 286.189,147.243 284.221 C 149.309 282.252,152.800 278.922,155.000 276.821 C 157.200 274.719,162.495 269.670,166.766 265.600 C 171.038 261.530,176.888 255.943,179.766 253.184 C 191.636 241.809,192.322 241.200,193.267 241.206 C 194.503 241.214,194.340 241.087,200.248 246.652 C 203.082 249.321,206.201 252.201,207.180 253.052 C 208.159 253.903,209.419 255.060,209.980 255.622 C 212.390 258.038,223.043 268.197,227.992 272.800 C 230.948 275.550,235.085 279.453,237.184 281.474 C 243.482 287.537,247.281 291.122,249.517 293.114 C 250.682 294.151,253.832 297.125,256.517 299.723 C 262.569 305.576,270.951 313.488,274.400 316.604 C 275.830 317.895,277.090 319.053,277.200 319.176 C 278.773 320.939,284.008 325.568,284.649 325.763 C 285.505 326.024,286.875 324.879,295.600 316.620 C 297.030 315.267,300.810 311.851,304.000 309.029 C 307.190 306.207,311.249 302.526,313.019 300.849 C 317.372 296.726,319.459 294.809,324.400 290.398 C 326.710 288.335,328.806 286.457,329.059 286.224 C 329.311 285.991,330.918 284.540,332.630 283.000 C 336.793 279.255,338.396 277.526,338.398 276.779 C 338.399 276.438,335.134 273.018,331.141 269.179 C 324.119 262.427,313.770 252.368,300.021 238.929 C 296.379 235.369,292.140 231.257,290.600 229.791 C 286.684 226.063,266.655 206.576,256.924 197.027 C 251.663 191.865,248.800 188.770,248.800 188.246 C 248.800 187.458,251.235 184.932,260.027 176.600 C 271.622 165.610,282.664 155.087,292.000 146.129 C 298.404 139.984,300.091 138.372,307.563 131.253 C 311.172 127.814,314.952 124.190,315.963 123.200 C 316.973 122.209,320.758 118.609,324.373 115.200 C 330.916 109.028,333.251 106.813,336.356 103.836 C 338.923 101.374,338.896 101.013,335.929 98.222 C 330.265 92.895,326.777 89.687,324.159 87.400 C 322.649 86.080,320.145 83.830,318.596 82.400 C 317.047 80.970,314.003 78.180,311.832 76.200 C 309.661 74.220,307.309 72.060,306.606 71.400 C 305.903 70.740,304.093 69.120,302.585 67.800 C 301.077 66.480,299.203 64.761,298.421 63.980 C 297.640 63.200,295.200 60.950,293.000 58.980 C 290.800 57.011,288.325 54.725,287.500 53.900 C 285.467 51.866,284.601 51.960,281.954 54.500 C 280.750 55.655,278.243 58.028,276.383 59.773 C 270.198 65.575,265.461 70.082,259.356 75.970 C 256.031 79.177,251.357 83.600,248.968 85.800 C 246.580 88.000,242.805 91.600,240.580 93.800 C 235.951 98.377,230.233 103.841,226.185 107.555 C 224.653 108.960,220.147 113.280,216.171 117.155 C 212.195 121.030,208.145 124.900,207.171 125.756 C 206.197 126.613,203.502 129.151,201.183 131.398 C 194.100 138.260,195.583 138.682,182.190 126.000 C 177.628 121.680,174.044 118.316,165.200 110.051 C 161.790 106.864,157.367 102.714,155.371 100.828 C 153.374 98.943,149.324 95.125,146.371 92.343 C 139.036 85.438,135.724 82.316,133.599 80.305 C 132.609 79.367,129.376 76.350,126.417 73.600 C 123.457 70.850,120.193 67.790,119.165 66.800 C 115.808 63.568,107.442 55.778,105.600 54.168 C 102.671 51.608,102.238 51.333,101.428 51.514 " stroke="none" fill="#dd0606" fill-rule="evenodd"></path><path id="path1" d="M0.000 200.000 L 0.000 400.000 200.000 400.000 L 400.000 400.000 400.000 200.000 L 400.000 0.000 200.000 0.000 L 0.000 0.000 0.000 200.000 M108.661 54.649 C 111.047 56.876,114.080 59.591,115.400 60.682 C 116.720 61.773,120.024 64.846,122.743 67.510 C 132.196 76.775,134.900 79.336,136.895 80.912 C 139.233 82.761,141.757 85.142,150.243 93.505 C 153.650 96.863,157.284 100.284,158.319 101.107 C 160.816 103.093,164.548 106.533,169.256 111.187 C 175.366 117.229,179.305 120.970,180.576 121.939 C 181.627 122.740,184.985 125.822,192.153 132.566 L 194.505 134.779 195.553 134.020 C 196.129 133.602,198.049 131.851,199.821 130.130 C 201.592 128.408,204.742 125.442,206.821 123.538 C 208.899 121.634,213.515 117.224,217.078 113.738 C 220.640 110.252,224.618 106.410,225.917 105.200 C 235.307 96.453,238.525 93.395,241.385 90.500 C 243.178 88.685,244.860 87.200,245.123 87.200 C 245.385 87.200,245.600 86.999,245.600 86.754 C 245.600 86.311,247.300 84.634,252.040 80.400 C 253.395 79.190,256.707 76.040,259.400 73.400 C 269.740 63.266,280.794 52.869,282.778 51.412 C 284.641 50.043,285.765 50.134,287.523 51.794 C 288.336 52.561,289.381 53.506,289.847 53.894 C 293.544 56.975,294.733 57.983,296.163 59.254 C 299.404 62.133,302.141 64.626,303.570 66.000 C 310.109 72.287,314.244 76.139,316.245 77.808 C 320.594 81.435,325.771 86.137,329.678 90.007 C 331.810 92.120,334.303 94.468,335.217 95.225 C 341.798 100.670,341.916 101.092,337.865 104.734 C 336.729 105.756,332.920 109.477,329.400 113.003 C 323.363 119.052,319.063 123.107,315.122 126.469 C 313.238 128.076,308.865 132.348,305.941 135.436 C 302.829 138.724,296.923 144.305,292.650 147.996 C 290.423 149.921,287.880 152.273,287.000 153.224 C 284.557 155.864,278.384 161.939,275.644 164.400 C 269.908 169.553,265.843 173.441,258.741 180.563 C 254.593 184.723,251.200 188.239,251.200 188.378 C 251.200 188.772,269.706 207.306,271.837 209.046 C 273.702 210.569,278.097 214.869,286.320 223.217 C 288.586 225.518,291.466 228.300,292.720 229.400 C 293.974 230.500,299.140 235.524,304.200 240.564 C 309.260 245.604,314.840 250.994,316.600 252.543 C 318.360 254.091,323.225 258.787,327.411 262.979 C 331.596 267.170,336.321 271.817,337.911 273.304 C 341.533 276.695,341.570 277.152,338.464 280.033 C 337.179 281.225,334.254 283.941,331.964 286.070 C 329.674 288.198,327.260 290.428,326.600 291.024 C 325.940 291.621,324.230 293.209,322.800 294.554 C 321.370 295.900,319.305 297.720,318.210 298.600 C 317.116 299.480,314.699 301.685,312.839 303.500 C 310.979 305.315,309.347 306.800,309.212 306.800 C 309.077 306.800,307.222 308.465,305.090 310.500 C 298.823 316.481,295.343 319.650,294.270 320.354 C 293.717 320.717,292.709 321.595,292.029 322.307 C 291.349 323.018,290.733 323.600,290.659 323.600 C 290.586 323.600,289.487 324.590,288.218 325.800 C 285.039 328.830,284.354 328.722,280.077 324.518 C 278.556 323.023,275.622 320.232,273.556 318.316 C 267.168 312.392,265.600 310.833,265.600 310.409 C 265.600 310.184,265.343 310.000,265.029 310.000 C 264.426 310.000,263.844 309.474,255.151 301.068 C 249.592 295.693,241.719 288.253,239.200 285.995 C 238.430 285.304,235.632 282.638,232.982 280.070 C 230.333 277.501,226.495 273.870,224.453 272.000 C 218.240 266.308,214.066 262.374,210.240 258.600 C 208.232 256.620,204.530 253.110,202.011 250.800 C 199.493 248.490,196.736 245.925,195.885 245.100 C 193.762 243.043,193.224 243.169,189.686 246.549 C 184.750 251.266,183.533 252.385,181.201 254.348 C 179.991 255.367,176.117 259.080,172.592 262.600 C 166.274 268.909,158.709 276.000,158.295 276.000 C 158.104 276.000,153.241 280.811,152.152 282.079 C 151.341 283.022,138.226 295.549,137.069 296.485 C 136.447 296.988,133.115 300.190,129.663 303.600 C 123.566 309.624,116.401 316.423,114.122 318.347 C 113.505 318.868,110.898 321.336,108.330 323.832 C 101.796 330.181,101.711 330.182,95.310 324.092 C 88.495 317.606,86.721 316.000,86.373 316.000 C 86.190 316.000,85.896 315.775,85.720 315.500 C 85.544 315.225,84.494 314.190,83.386 313.200 C 77.587 308.018,74.015 304.760,71.764 302.600 C 67.197 298.218,65.010 296.206,64.153 295.600 C 62.887 294.704,56.340 288.742,49.579 282.327 C 47.416 280.275,46.000 278.482,46.000 277.795 C 46.000 277.096,47.125 275.979,67.221 256.728 C 68.443 255.557,71.562 252.620,74.152 250.200 C 76.743 247.780,81.709 243.010,85.189 239.600 C 88.669 236.190,91.872 233.130,92.307 232.800 C 93.365 231.997,105.102 220.779,109.989 215.900 C 112.137 213.755,113.987 212.000,114.101 212.000 C 114.215 212.000,115.741 210.605,117.494 208.900 C 119.246 207.195,124.380 202.217,128.903 197.837 C 138.331 188.707,137.940 189.823,133.261 185.400 C 131.399 183.640,126.369 178.735,122.083 174.500 C 117.797 170.265,114.200 166.800,114.090 166.800 C 113.848 166.800,109.296 162.414,100.595 153.800 C 97.040 150.280,92.825 146.230,91.228 144.800 C 89.631 143.370,84.631 138.555,80.117 134.101 C 75.604 129.646,70.108 124.336,67.903 122.301 C 58.965 114.047,46.000 100.904,46.000 100.097 C 46.000 99.606,47.076 98.267,48.699 96.740 C 50.184 95.343,52.408 93.210,53.642 92.000 C 57.073 88.636,64.813 81.606,68.376 78.619 C 70.246 77.051,74.615 73.021,76.833 70.818 C 78.930 68.735,82.809 65.189,87.400 61.157 C 88.501 60.191,89.776 59.040,90.234 58.600 C 90.693 58.160,91.467 57.530,91.955 57.200 C 92.443 56.870,94.171 55.323,95.796 53.762 C 101.752 48.041,101.565 48.028,108.661 54.649 " stroke="none" fill="#f8f8f8" fill-rule="evenodd"></path><path id="path2" d="M101.417 49.510 C 100.184 49.794,98.971 50.713,95.796 53.762 C 94.171 55.323,92.443 56.870,91.955 57.200 C 91.467 57.530,90.693 58.160,90.234 58.600 C 89.776 59.040,88.501 60.191,87.400 61.157 C 82.809 65.189,78.930 68.735,76.833 70.818 C 74.615 73.021,70.246 77.051,68.376 78.619 C 64.813 81.606,57.073 88.636,53.642 92.000 C 52.408 93.210,50.184 95.343,48.699 96.740 C 47.076 98.267,46.000 99.606,46.000 100.097 C 46.000 100.904,58.965 114.047,67.903 122.301 C 70.108 124.336,75.604 129.646,80.117 134.101 C 84.631 138.555,89.631 143.370,91.228 144.800 C 92.825 146.230,97.040 150.280,100.595 153.800 C 109.296 162.414,113.848 166.800,114.090 166.800 C 114.200 166.800,117.797 170.265,122.083 174.500 C 126.369 178.735,131.399 183.640,133.261 185.400 C 137.940 189.823,138.331 188.707,128.903 197.837 C 124.380 202.217,119.246 207.195,117.494 208.900 C 115.741 210.605,114.215 212.000,114.101 212.000 C 113.987 212.000,112.137 213.755,109.989 215.900 C 105.102 220.779,93.365 231.997,92.307 232.800 C 91.872 233.130,88.669 236.190,85.189 239.600 C 81.709 243.010,76.743 247.780,74.152 250.200 C 71.562 252.620,68.443 255.557,67.221 256.728 C 47.125 275.979,46.000 277.096,46.000 277.795 C 46.000 278.482,47.416 280.275,49.579 282.327 C 56.340 288.742,62.887 294.704,64.153 295.600 C 65.010 296.206,67.197 298.218,71.764 302.600 C 74.015 304.760,77.587 308.018,83.386 313.200 C 84.494 314.190,85.544 315.225,85.720 315.500 C 85.896 315.775,86.190 316.000,86.373 316.000 C 86.721 316.000,88.495 317.606,95.310 324.092 C 101.711 330.182,101.796 330.181,108.330 323.832 C 110.898 321.336,113.505 318.868,114.122 318.347 C 116.401 316.423,123.566 309.624,129.663 303.600 C 133.115 300.190,136.447 296.988,137.069 296.485 C 138.226 295.549,151.341 283.022,152.152 282.079 C 153.241 280.811,158.104 276.000,158.295 276.000 C 158.709 276.000,166.274 268.909,172.592 262.600 C 176.117 259.080,179.991 255.367,181.201 254.348 C 183.533 252.385,184.750 251.266,189.686 246.549 C 193.224 243.169,193.762 243.043,195.885 245.100 C 196.736 245.925,199.493 248.490,202.011 250.800 C 204.530 253.110,208.232 256.620,210.240 258.600 C 214.066 262.374,218.240 266.308,224.453 272.000 C 226.495 273.870,230.333 277.501,232.982 280.070 C 235.632 282.638,238.430 285.304,239.200 285.995 C 241.719 288.253,249.592 295.693,255.151 301.068 C 263.844 309.474,264.426 310.000,265.029 310.000 C 265.343 310.000,265.600 310.184,265.600 310.409 C 265.600 310.833,267.168 312.392,273.556 318.316 C 275.622 320.232,278.556 323.023,280.077 324.518 C 284.354 328.722,285.039 328.830,288.218 325.800 C 289.487 324.590,290.586 323.600,290.659 323.600 C 290.733 323.600,291.349 323.018,292.029 322.307 C 292.709 321.595,293.717 320.717,294.270 320.354 C 295.343 319.650,298.823 316.481,305.090 310.500 C 307.222 308.465,309.077 306.800,309.212 306.800 C 309.347 306.800,310.979 305.315,312.839 303.500 C 314.699 301.685,317.116 299.480,318.210 298.600 C 319.305 297.720,321.370 295.900,322.800 294.554 C 324.230 293.209,325.940 291.621,326.600 291.024 C 327.260 290.428,329.674 288.198,331.964 286.070 C 334.254 283.941,337.179 281.225,338.464 280.033 C 341.570 277.152,341.533 276.695,337.911 273.304 C 336.321 271.817,331.596 267.170,327.411 262.979 C 323.225 258.787,318.360 254.091,316.600 252.543 C 314.840 250.994,309.260 245.604,304.200 240.564 C 299.140 235.524,293.974 230.500,292.720 229.400 C 291.466 228.300,288.586 225.518,286.320 223.217 C 278.097 214.869,273.702 210.569,271.837 209.046 C 269.706 207.306,251.200 188.772,251.200 188.378 C 251.200 188.239,254.593 184.723,258.741 180.563 C 265.843 173.441,269.908 169.553,275.644 164.400 C 278.384 161.939,284.557 155.864,287.000 153.224 C 287.880 152.273,290.423 149.921,292.650 147.996 C 296.923 144.305,302.829 138.724,305.941 135.436 C 308.865 132.348,313.238 128.076,315.122 126.469 C 319.063 123.107,323.363 119.052,329.400 113.003 C 332.920 109.477,336.729 105.756,337.865 104.734 C 341.916 101.092,341.798 100.670,335.217 95.225 C 334.303 94.468,331.810 92.120,329.678 90.007 C 325.771 86.137,320.594 81.435,316.245 77.808 C 314.244 76.139,310.109 72.287,303.570 66.000 C 302.141 64.626,299.404 62.133,296.163 59.254 C 294.733 57.983,293.544 56.975,289.847 53.894 C 289.381 53.506,288.336 52.561,287.523 51.794 C 285.765 50.134,284.641 50.043,282.778 51.412 C 280.794 52.869,269.740 63.266,259.400 73.400 C 256.707 76.040,253.395 79.190,252.040 80.400 C 247.300 84.634,245.600 86.311,245.600 86.754 C 245.600 86.999,245.385 87.200,245.123 87.200 C 244.860 87.200,243.178 88.685,241.385 90.500 C 238.525 93.395,235.307 96.453,225.917 105.200 C 224.618 106.410,220.640 110.252,217.078 113.738 C 213.515 117.224,208.899 121.634,206.821 123.538 C 204.742 125.442,201.592 128.408,199.821 130.130 C 198.049 131.851,196.129 133.602,195.553 134.020 L 194.505 134.779 192.153 132.566 C 184.985 125.822,181.627 122.740,180.576 121.939 C 179.305 120.970,175.366 117.229,169.256 111.187 C 164.548 106.533,160.816 103.093,158.319 101.107 C 157.284 100.284,153.650 96.863,150.243 93.505 C 141.757 85.142,139.233 82.761,136.895 80.912 C 134.900 79.336,132.196 76.775,122.743 67.510 C 120.024 64.846,116.720 61.773,115.400 60.682 C 114.080 59.591,111.047 56.876,108.661 54.649 C 103.834 50.145,102.565 49.245,101.417 49.510 M107.331 54.528 C 109.820 56.799,112.213 59.004,112.649 59.428 C 113.084 59.853,115.581 62.180,118.196 64.600 C 120.812 67.020,125.122 71.092,127.776 73.649 C 130.429 76.206,133.495 79.086,134.589 80.049 C 137.026 82.194,141.248 86.137,150.400 94.817 C 154.250 98.468,159.020 102.957,161.000 104.792 C 162.980 106.627,167.660 111.040,171.400 114.598 C 175.140 118.156,179.280 122.029,180.600 123.204 C 181.920 124.379,185.220 127.424,187.934 129.970 C 195.102 136.697,194.462 136.620,199.829 131.402 C 201.793 129.492,204.300 127.104,205.400 126.095 C 209.363 122.458,214.315 117.748,220.606 111.630 C 224.129 108.203,229.700 102.880,232.986 99.800 C 236.272 96.720,240.320 92.850,241.982 91.200 C 243.644 89.550,247.703 85.687,251.002 82.616 C 256.345 77.642,259.439 74.676,268.800 65.555 C 270.230 64.162,272.300 62.227,273.400 61.256 C 274.500 60.284,277.020 57.932,279.000 56.029 C 284.864 50.392,284.903 50.379,287.800 53.059 C 288.900 54.077,293.130 57.898,297.200 61.552 C 301.270 65.205,306.040 69.554,307.800 71.216 C 312.563 75.713,315.812 78.678,319.600 81.985 C 323.232 85.155,324.555 86.366,330.200 91.691 C 336.355 97.497,338.868 99.788,339.444 100.120 C 339.750 100.296,340.000 100.650,340.000 100.906 C 340.000 101.431,322.860 118.317,317.400 123.170 C 316.080 124.344,311.850 128.386,308.000 132.154 C 304.150 135.921,298.582 141.253,295.627 144.002 C 290.008 149.228,289.476 149.735,281.761 157.217 C 279.142 159.757,274.840 163.834,272.200 166.278 C 269.560 168.722,263.361 174.683,258.425 179.525 L 249.450 188.328 257.425 196.204 C 261.811 200.536,267.020 205.630,269.000 207.523 C 276.036 214.250,294.657 232.326,303.073 240.600 C 307.773 245.220,313.808 251.070,316.485 253.600 C 319.162 256.130,325.291 262.070,330.105 266.800 C 334.919 271.530,339.115 275.544,339.429 275.720 C 340.891 276.539,340.179 277.460,333.368 283.563 C 332.286 284.533,329.330 287.258,326.800 289.618 C 324.270 291.978,320.490 295.403,318.400 297.229 C 316.310 299.056,313.356 301.731,311.835 303.175 C 310.314 304.619,308.684 306.160,308.213 306.600 C 306.603 308.101,296.022 317.649,294.552 318.926 C 293.746 319.627,291.650 321.548,289.895 323.196 C 284.834 327.947,284.872 327.943,281.037 324.215 C 280.006 323.213,277.055 320.437,274.481 318.046 C 271.906 315.655,268.790 312.732,267.556 311.550 C 266.322 310.367,264.162 308.334,262.756 307.031 C 261.350 305.728,258.027 302.578,255.371 300.031 C 252.716 297.484,248.576 293.568,246.171 291.328 C 243.767 289.089,240.528 286.029,238.974 284.528 C 237.420 283.028,233.741 279.550,230.797 276.800 C 221.490 268.103,218.341 265.132,212.989 260.000 C 210.122 257.250,205.199 252.570,202.050 249.600 C 198.901 246.630,195.900 243.795,195.380 243.300 C 193.798 241.793,192.891 242.153,189.000 245.837 C 187.020 247.711,183.780 250.749,181.800 252.587 C 179.820 254.425,176.116 257.970,173.569 260.464 C 171.022 262.959,166.527 267.250,163.580 270.000 C 160.633 272.750,155.697 277.454,152.611 280.454 C 144.667 288.177,137.778 294.739,135.122 297.115 C 133.869 298.235,131.248 300.738,129.297 302.676 C 127.346 304.614,123.061 308.718,119.775 311.795 C 116.489 314.871,111.327 319.799,108.304 322.745 C 101.703 329.177,101.976 329.130,97.296 324.665 C 95.593 323.040,93.480 321.109,92.600 320.373 C 91.720 319.638,89.830 317.944,88.400 316.611 C 86.970 315.277,84.188 312.749,82.217 310.993 C 80.246 309.237,77.276 306.540,75.616 305.000 C 73.957 303.460,67.650 297.700,61.601 292.200 C 49.305 281.019,46.798 278.595,46.803 277.887 C 46.805 277.619,49.084 275.240,51.867 272.600 C 58.148 266.641,59.164 265.668,64.835 260.186 C 67.346 257.758,71.470 253.813,74.000 251.418 C 76.530 249.024,81.750 244.056,85.600 240.379 C 89.450 236.702,94.477 231.918,96.771 229.747 C 99.065 227.576,103.835 223.003,107.371 219.584 C 110.907 216.166,115.609 211.666,117.819 209.584 C 136.297 192.186,138.406 190.066,138.063 189.220 C 137.818 188.616,127.835 178.761,115.790 167.232 C 109.812 161.510,93.135 145.406,82.615 135.198 C 78.647 131.347,72.160 125.092,68.200 121.298 C 43.956 98.071,45.733 100.436,49.800 96.812 C 51.120 95.636,53.553 93.397,55.207 91.837 C 56.860 90.277,59.818 87.560,61.778 85.800 C 66.646 81.430,79.392 69.824,81.600 67.752 C 82.590 66.823,83.780 65.733,84.245 65.331 C 84.710 64.929,86.690 63.140,88.645 61.355 C 102.979 48.271,101.188 48.925,107.331 54.528 " stroke="none" fill="#ec9b9c" fill-rule="evenodd"></path><path id="path3" d="M101.402 50.718 C 100.438 50.934,99.275 51.822,96.504 54.461 C 95.351 55.559,93.641 57.092,92.704 57.869 C 90.993 59.288,89.227 60.883,84.394 65.377 C 74.429 74.643,71.210 77.581,66.829 81.404 C 66.075 82.062,65.167 82.870,64.810 83.200 C 64.454 83.530,62.285 85.510,59.991 87.600 C 57.697 89.690,54.466 92.684,52.810 94.253 C 51.155 95.822,49.215 97.593,48.500 98.189 C 46.537 99.823,46.785 100.315,52.251 105.661 C 55.029 108.377,59.142 112.400,61.391 114.600 C 63.640 116.800,68.425 121.390,72.024 124.800 C 75.623 128.210,80.039 132.440,81.839 134.200 C 83.638 135.960,86.975 139.193,89.255 141.385 C 91.535 143.577,96.824 148.707,101.008 152.785 C 105.193 156.863,111.472 162.900,114.960 166.200 C 128.015 178.547,137.943 188.392,138.219 189.260 C 138.450 189.988,132.102 196.442,118.796 209.008 C 116.704 210.984,111.034 216.388,106.196 221.017 C 101.358 225.646,96.059 230.686,94.420 232.217 C 92.781 233.748,88.641 237.708,85.220 241.019 C 81.799 244.329,77.110 248.823,74.800 251.007 C 71.164 254.444,54.680 270.247,49.122 275.625 C 46.667 278.000,46.784 278.362,51.343 282.448 C 53.354 284.252,56.980 287.557,59.400 289.793 C 61.820 292.030,65.960 295.817,68.600 298.209 C 71.240 300.601,74.665 303.738,76.211 305.179 C 77.757 306.621,82.238 310.680,86.169 314.200 C 90.099 317.720,95.014 322.175,97.091 324.100 C 102.243 328.875,101.860 329.020,112.616 318.220 C 113.065 317.769,116.116 314.880,119.396 311.800 C 122.675 308.720,127.005 304.580,129.018 302.600 C 131.030 300.620,133.649 298.109,134.838 297.020 C 137.275 294.788,149.402 283.234,154.948 277.861 C 156.956 275.915,160.833 272.225,163.563 269.661 C 166.293 267.098,169.181 264.370,169.981 263.600 C 192.684 241.746,192.766 241.674,194.173 242.315 C 194.659 242.537,196.935 244.507,199.229 246.694 C 201.523 248.880,204.474 251.644,205.787 252.835 C 207.099 254.026,210.339 257.094,212.987 259.652 C 219.994 266.425,221.369 267.722,225.800 271.734 C 228.000 273.726,230.529 276.086,231.420 276.978 C 233.989 279.549,246.758 291.640,249.400 294.003 C 251.469 295.853,254.347 298.589,262.229 306.200 C 263.694 307.614,267.636 311.313,276.962 320.021 C 278.481 321.439,280.614 323.437,281.702 324.461 C 284.654 327.239,285.161 327.207,288.548 324.038 C 290.116 322.570,292.225 320.656,293.232 319.784 C 294.240 318.913,297.120 316.325,299.632 314.034 C 302.145 311.743,305.280 308.886,306.600 307.685 C 307.920 306.484,310.890 303.748,313.200 301.605 C 315.510 299.462,319.576 295.749,322.235 293.354 C 334.479 282.327,338.920 278.136,339.234 277.311 C 339.534 276.523,338.759 275.622,332.526 269.510 C 321.537 258.734,321.346 258.549,314.792 252.244 C 311.386 248.967,305.270 243.025,301.200 239.038 C 294.691 232.663,276.735 215.261,269.240 208.066 C 261.932 201.051,249.600 188.611,249.600 188.256 C 249.600 188.033,251.085 186.397,252.900 184.619 C 260.614 177.063,268.571 169.447,273.995 164.428 C 277.188 161.474,282.320 156.595,285.400 153.585 C 288.480 150.576,292.890 146.336,295.200 144.162 C 297.510 141.989,301.920 137.776,305.000 134.801 C 311.028 128.978,316.374 123.893,322.405 118.247 C 328.942 112.125,338.439 102.712,339.110 101.688 C 339.740 100.726,339.712 100.667,337.758 98.853 C 326.604 88.496,319.103 81.651,315.839 78.852 C 314.717 77.890,312.810 76.162,311.600 75.012 C 309.212 72.741,299.039 63.354,295.784 60.418 C 285.007 50.697,285.640 51.175,284.313 51.743 C 283.725 51.994,282.379 53.006,281.322 53.992 C 275.409 59.505,271.736 62.990,263.800 70.619 C 258.960 75.271,252.531 81.400,249.513 84.239 C 242.305 91.019,223.224 109.217,216.400 115.820 C 213.430 118.694,209.656 122.295,208.014 123.823 C 206.372 125.350,203.073 128.490,200.683 130.800 C 194.263 137.005,195.185 137.109,186.865 129.251 C 183.419 125.997,179.520 122.362,178.200 121.173 C 176.880 119.984,173.550 116.844,170.800 114.195 C 168.050 111.547,164.629 108.305,163.199 106.990 C 157.285 101.557,149.142 93.925,144.814 89.759 C 142.276 87.317,139.120 84.364,137.800 83.198 C 136.480 82.031,133.413 79.170,130.984 76.838 C 126.696 72.723,118.513 65.034,112.400 59.377 C 110.750 57.850,108.169 55.430,106.665 54.000 C 103.620 51.106,102.577 50.456,101.402 50.718 M105.600 54.168 C 107.442 55.778,115.808 63.568,119.165 66.800 C 120.193 67.790,123.457 70.850,126.417 73.600 C 129.376 76.350,132.609 79.367,133.599 80.305 C 135.724 82.316,139.036 85.438,146.371 92.343 C 149.324 95.125,153.374 98.943,155.371 100.828 C 157.367 102.714,161.790 106.864,165.200 110.051 C 174.044 118.316,177.628 121.680,182.190 126.000 C 195.583 138.682,194.100 138.260,201.183 131.398 C 203.502 129.151,206.197 126.613,207.171 125.756 C 208.145 124.900,212.195 121.030,216.171 117.155 C 220.147 113.280,224.653 108.960,226.185 107.555 C 230.233 103.841,235.951 98.377,240.580 93.800 C 242.805 91.600,246.580 88.000,248.968 85.800 C 251.357 83.600,256.031 79.177,259.356 75.970 C 265.461 70.082,270.198 65.575,276.383 59.773 C 278.243 58.028,280.750 55.655,281.954 54.500 C 284.601 51.960,285.467 51.866,287.500 53.900 C 288.325 54.725,290.800 57.011,293.000 58.980 C 295.200 60.950,297.640 63.200,298.421 63.980 C 299.203 64.761,301.077 66.480,302.585 67.800 C 304.093 69.120,305.903 70.740,306.606 71.400 C 307.309 72.060,309.661 74.220,311.832 76.200 C 314.003 78.180,317.047 80.970,318.596 82.400 C 320.145 83.830,322.649 86.080,324.159 87.400 C 326.777 89.687,330.265 92.895,335.929 98.222 C 338.896 101.013,338.923 101.374,336.356 103.836 C 333.251 106.813,330.916 109.028,324.373 115.200 C 320.758 118.609,316.973 122.209,315.963 123.200 C 314.952 124.190,311.172 127.814,307.563 131.253 C 300.091 138.372,298.404 139.984,292.000 146.129 C 282.664 155.087,271.622 165.610,260.027 176.600 C 251.235 184.932,248.800 187.458,248.800 188.246 C 248.800 188.770,251.663 191.865,256.924 197.027 C 266.655 206.576,286.684 226.063,290.600 229.791 C 292.140 231.257,296.379 235.369,300.021 238.929 C 313.770 252.368,324.119 262.427,331.141 269.179 C 335.134 273.018,338.399 276.438,338.398 276.779 C 338.396 277.526,336.793 279.255,332.630 283.000 C 330.918 284.540,329.311 285.991,329.059 286.224 C 328.806 286.457,326.710 288.335,324.400 290.398 C 319.459 294.809,317.372 296.726,313.019 300.849 C 311.249 302.526,307.190 306.207,304.000 309.029 C 300.810 311.851,297.030 315.267,295.600 316.620 C 286.875 324.879,285.505 326.024,284.649 325.763 C 284.008 325.568,278.773 320.939,277.200 319.176 C 277.090 319.053,275.830 317.895,274.400 316.604 C 270.951 313.488,262.569 305.576,256.517 299.723 C 253.832 297.125,250.682 294.151,249.517 293.114 C 247.281 291.122,243.482 287.537,237.184 281.474 C 235.085 279.453,230.948 275.550,227.992 272.800 C 223.043 268.197,212.390 258.038,209.980 255.622 C 209.419 255.060,208.159 253.903,207.180 253.052 C 206.201 252.201,203.082 249.321,200.248 246.652 C 194.340 241.087,194.503 241.214,193.267 241.206 C 192.322 241.200,191.636 241.809,179.766 253.184 C 176.888 255.943,171.038 261.530,166.766 265.600 C 162.495 269.670,157.200 274.719,155.000 276.821 C 152.800 278.922,149.309 282.252,147.243 284.221 C 145.176 286.189,142.458 288.790,141.202 290.000 C 139.946 291.210,135.708 295.260,131.785 299.000 C 127.861 302.740,123.902 306.520,122.986 307.400 C 122.070 308.280,118.666 311.520,115.422 314.600 C 112.178 317.680,107.966 321.680,106.062 323.489 C 101.638 327.693,102.123 327.727,96.827 322.856 C 96.262 322.337,94.647 320.897,93.239 319.656 C 89.310 316.196,86.393 313.527,85.034 312.150 C 84.355 311.462,82.000 309.316,79.800 307.382 C 77.600 305.447,75.710 303.755,75.600 303.620 C 75.228 303.167,69.377 297.815,66.831 295.600 C 65.440 294.390,63.540 292.680,62.607 291.800 C 61.675 290.920,58.862 288.314,56.356 286.010 C 53.850 283.705,50.929 280.969,49.864 279.930 L 47.927 278.042 49.011 276.621 C 49.607 275.839,50.219 275.200,50.371 275.200 C 50.524 275.200,53.067 272.848,56.024 269.974 C 61.209 264.934,70.226 256.322,76.343 250.568 C 77.962 249.046,80.677 246.450,82.375 244.800 C 84.074 243.150,88.315 239.100,91.799 235.800 C 97.080 230.799,105.050 223.150,112.016 216.400 C 112.810 215.630,115.584 213.020,118.179 210.600 C 120.774 208.180,125.351 203.801,128.349 200.869 C 131.347 197.937,135.015 194.446,136.500 193.111 C 140.335 189.663,140.326 189.625,134.247 183.770 C 129.050 178.764,125.509 175.335,107.644 158.000 C 101.636 152.170,95.257 146.050,93.470 144.400 C 91.683 142.750,87.757 138.970,84.745 136.000 C 81.734 133.030,76.979 128.440,74.179 125.800 C 71.379 123.160,65.594 117.580,61.322 113.400 C 57.051 109.220,52.329 104.630,50.829 103.200 C 47.517 100.042,47.453 100.320,52.600 95.566 C 54.800 93.533,57.961 90.595,59.624 89.035 C 61.287 87.476,64.152 84.850,65.989 83.200 C 67.827 81.550,69.531 80.020,69.775 79.800 C 70.020 79.580,71.740 78.050,73.598 76.400 C 75.456 74.750,77.265 73.130,77.619 72.800 C 77.973 72.470,80.588 70.018,83.431 67.351 C 86.274 64.685,89.680 61.555,91.000 60.396 C 93.998 57.763,99.582 52.752,100.196 52.143 C 101.460 50.889,102.139 51.143,105.600 54.168 " stroke="none" fill="#dc7274" fill-rule="evenodd"></path><path id="path4" d="M302.000 66.200 C 302.746 66.970,303.447 67.600,303.557 67.600 C 303.667 67.600,303.146 66.970,302.400 66.200 C 301.654 65.430,300.953 64.800,300.843 64.800 C 300.733 64.800,301.254 65.430,302.000 66.200 M307.000 70.800 C 307.859 71.680,308.652 72.400,308.762 72.400 C 308.872 72.400,308.259 71.680,307.400 70.800 C 306.541 69.920,305.748 69.200,305.638 69.200 C 305.528 69.200,306.141 69.920,307.000 70.800 M72.981 75.700 L 71.400 77.400 73.100 75.819 C 74.035 74.949,74.800 74.184,74.800 74.119 C 74.800 73.816,74.452 74.119,72.981 75.700 M255.178 78.700 L 253.800 80.200 255.300 78.822 C 256.696 77.538,256.984 77.200,256.678 77.200 C 256.612 77.200,255.937 77.875,255.178 78.700 M320.400 83.000 C 321.146 83.770,321.847 84.400,321.957 84.400 C 322.067 84.400,321.546 83.770,320.800 83.000 C 320.054 82.230,319.353 81.600,319.243 81.600 C 319.133 81.600,319.654 82.230,320.400 83.000 M138.000 83.400 C 138.746 84.170,139.447 84.800,139.557 84.800 C 139.667 84.800,139.146 84.170,138.400 83.400 C 137.654 82.630,136.953 82.000,136.843 82.000 C 136.733 82.000,137.254 82.630,138.000 83.400 M144.800 89.800 C 145.995 91.010,147.063 92.000,147.173 92.000 C 147.283 92.000,146.395 91.010,145.200 89.800 C 144.005 88.590,142.937 87.600,142.827 87.600 C 142.717 87.600,143.605 88.590,144.800 89.800 M242.575 90.500 L 241.400 91.800 242.700 90.625 C 243.415 89.979,244.000 89.394,244.000 89.325 C 244.000 89.016,243.670 89.288,242.575 90.500 M328.400 90.125 C 328.400 90.194,328.985 90.779,329.700 91.425 L 331.000 92.600 329.825 91.300 C 328.730 90.088,328.400 89.816,328.400 90.125 M237.381 95.700 L 235.800 97.400 237.500 95.819 C 239.081 94.348,239.384 94.000,239.081 94.000 C 239.016 94.000,238.251 94.765,237.381 95.700 M50.175 96.500 L 49.000 97.800 50.300 96.625 C 51.512 95.530,51.784 95.200,51.475 95.200 C 51.406 95.200,50.821 95.785,50.175 96.500 M339.398 100.444 C 339.545 100.832,339.203 101.626,338.535 102.444 C 337.652 103.526,337.615 103.639,338.351 103.004 C 339.696 101.845,340.172 100.811,339.613 100.257 C 339.267 99.913,339.213 99.960,339.398 100.444 M229.781 102.900 L 228.200 104.600 229.900 103.019 C 231.481 101.548,231.784 101.200,231.481 101.200 C 231.416 101.200,230.651 101.965,229.781 102.900 M49.600 103.400 C 50.346 104.170,51.047 104.800,51.157 104.800 C 51.267 104.800,50.746 104.170,50.000 103.400 C 49.254 102.630,48.553 102.000,48.443 102.000 C 48.333 102.000,48.854 102.630,49.600 103.400 M159.200 103.400 C 159.946 104.170,160.647 104.800,160.757 104.800 C 160.867 104.800,160.346 104.170,159.600 103.400 C 158.854 102.630,158.153 102.000,158.043 102.000 C 157.933 102.000,158.454 102.630,159.200 103.400 M223.200 109.000 C 222.228 109.990,221.523 110.800,221.633 110.800 C 221.743 110.800,222.628 109.990,223.600 109.000 C 224.572 108.010,225.277 107.200,225.167 107.200 C 225.057 107.200,224.172 108.010,223.200 109.000 M173.400 116.800 C 174.483 117.900,175.460 118.800,175.570 118.800 C 175.680 118.800,174.883 117.900,173.800 116.800 C 172.717 115.700,171.740 114.800,171.630 114.800 C 171.520 114.800,172.317 115.700,173.400 116.800 M321.775 118.900 L 320.600 120.200 321.900 119.025 C 322.615 118.379,323.200 117.794,323.200 117.725 C 323.200 117.416,322.870 117.688,321.775 118.900 M316.778 123.500 L 315.400 125.000 316.900 123.622 C 318.296 122.338,318.584 122.000,318.278 122.000 C 318.212 122.000,317.537 122.675,316.778 123.500 M72.000 124.925 C 72.000 124.994,72.585 125.579,73.300 126.225 L 74.600 127.400 73.425 126.100 C 72.330 124.888,72.000 124.616,72.000 124.925 M184.200 126.800 C 185.283 127.900,186.260 128.800,186.370 128.800 C 186.480 128.800,185.683 127.900,184.600 126.800 C 183.517 125.700,182.540 124.800,182.430 124.800 C 182.320 124.800,183.117 125.700,184.200 126.800 M308.800 131.000 C 307.828 131.990,307.123 132.800,307.233 132.800 C 307.343 132.800,308.228 131.990,309.200 131.000 C 310.172 130.010,310.877 129.200,310.767 129.200 C 310.657 129.200,309.772 130.010,308.800 131.000 M190.600 132.800 C 191.683 133.900,192.660 134.800,192.770 134.800 C 192.880 134.800,192.083 133.900,191.000 132.800 C 189.917 131.700,188.940 130.800,188.830 130.800 C 188.720 130.800,189.517 131.700,190.600 132.800 M305.178 134.700 L 303.800 136.200 305.300 134.822 C 306.696 133.538,306.984 133.200,306.678 133.200 C 306.612 133.200,305.937 133.875,305.178 134.700 M82.400 134.925 C 82.400 134.994,82.985 135.579,83.700 136.225 L 85.000 137.400 83.825 136.100 C 82.730 134.888,82.400 134.616,82.400 134.925 M302.175 137.700 L 301.000 139.000 302.300 137.825 C 303.015 137.179,303.600 136.594,303.600 136.525 C 303.600 136.216,303.270 136.488,302.175 137.700 M87.200 139.800 C 88.395 141.010,89.463 142.000,89.573 142.000 C 89.683 142.000,88.795 141.010,87.600 139.800 C 86.405 138.590,85.337 137.600,85.227 137.600 C 85.117 137.600,86.005 138.590,87.200 139.800 M297.781 141.700 L 296.200 143.400 297.900 141.819 C 299.481 140.348,299.784 140.000,299.481 140.000 C 299.416 140.000,298.651 140.765,297.781 141.700 M94.800 147.000 C 95.995 148.210,97.063 149.200,97.173 149.200 C 97.283 149.200,96.395 148.210,95.200 147.000 C 94.005 145.790,92.937 144.800,92.827 144.800 C 92.717 144.800,93.605 145.790,94.800 147.000 M109.600 161.400 C 110.346 162.170,111.047 162.800,111.157 162.800 C 111.267 162.800,110.746 162.170,110.000 161.400 C 109.254 160.630,108.553 160.000,108.443 160.000 C 108.333 160.000,108.854 160.630,109.600 161.400 M118.600 170.000 C 119.906 171.320,121.065 172.400,121.175 172.400 C 121.285 172.400,120.306 171.320,119.000 170.000 C 117.694 168.680,116.535 167.600,116.425 167.600 C 116.315 167.600,117.294 168.680,118.600 170.000 M261.375 176.500 L 260.200 177.800 261.500 176.625 C 262.215 175.979,262.800 175.394,262.800 175.325 C 262.800 175.016,262.470 175.288,261.375 176.500 M131.600 182.600 C 133.681 184.690,135.474 186.400,135.584 186.400 C 135.694 186.400,134.081 184.690,132.000 182.600 C 129.919 180.510,128.126 178.800,128.016 178.800 C 127.906 178.800,129.519 180.510,131.600 182.600 M252.800 184.600 C 251.161 186.250,249.910 187.600,250.020 187.600 C 250.130 187.600,251.561 186.250,253.200 184.600 C 254.839 182.950,256.090 181.600,255.980 181.600 C 255.870 181.600,254.439 182.950,252.800 184.600 M257.800 196.800 C 258.883 197.900,259.860 198.800,259.970 198.800 C 260.080 198.800,259.283 197.900,258.200 196.800 C 257.117 195.700,256.140 194.800,256.030 194.800 C 255.920 194.800,256.717 195.700,257.800 196.800 M124.187 203.700 L 121.800 206.200 124.300 203.813 C 126.622 201.595,126.983 201.200,126.687 201.200 C 126.626 201.200,125.501 202.325,124.187 203.700 M118.191 209.300 L 115.000 212.600 118.300 209.409 C 121.365 206.446,121.782 206.000,121.491 206.000 C 121.430 206.000,119.945 207.485,118.191 209.300 M274.000 212.600 C 275.195 213.810,276.263 214.800,276.373 214.800 C 276.483 214.800,275.595 213.810,274.400 212.600 C 273.205 211.390,272.137 210.400,272.027 210.400 C 271.917 210.400,272.805 211.390,274.000 212.600 M110.392 216.700 L 106.600 220.600 110.500 216.808 C 112.645 214.722,114.400 212.967,114.400 212.908 C 114.400 212.618,113.914 213.078,110.392 216.700 M98.786 227.900 L 96.600 230.200 98.900 228.014 C 100.165 226.811,101.200 225.776,101.200 225.714 C 101.200 225.417,100.818 225.763,98.786 227.900 M291.800 230.000 C 293.106 231.320,294.265 232.400,294.375 232.400 C 294.485 232.400,293.506 231.320,292.200 230.000 C 290.894 228.680,289.735 227.600,289.625 227.600 C 289.515 227.600,290.494 228.680,291.800 230.000 M299.600 237.400 C 301.460 239.270,303.072 240.800,303.182 240.800 C 303.292 240.800,301.860 239.270,300.000 237.400 C 298.140 235.530,296.528 234.000,296.418 234.000 C 296.308 234.000,297.740 235.530,299.600 237.400 M306.000 243.800 C 307.417 245.230,308.667 246.400,308.777 246.400 C 308.887 246.400,307.817 245.230,306.400 243.800 C 304.983 242.370,303.733 241.200,303.623 241.200 C 303.513 241.200,304.583 242.370,306.000 243.800 M190.400 244.200 C 189.428 245.190,188.723 246.000,188.833 246.000 C 188.943 246.000,189.828 245.190,190.800 244.200 C 191.772 243.210,192.477 242.400,192.367 242.400 C 192.257 242.400,191.372 243.210,190.400 244.200 M80.000 245.800 C 79.028 246.790,78.323 247.600,78.433 247.600 C 78.543 247.600,79.428 246.790,80.400 245.800 C 81.372 244.810,82.077 244.000,81.967 244.000 C 81.857 244.000,80.972 244.810,80.000 245.800 M198.783 246.500 C 200.441 248.266,200.800 248.584,200.800 248.283 C 200.800 248.219,199.945 247.364,198.900 246.383 L 197.000 244.600 198.783 246.500 M74.391 251.100 L 71.000 254.600 74.500 251.209 C 76.425 249.344,78.000 247.769,78.000 247.709 C 78.000 247.418,77.541 247.849,74.391 251.100 M183.988 250.300 L 181.400 253.000 184.100 250.412 C 186.608 248.007,186.983 247.600,186.688 247.600 C 186.627 247.600,185.412 248.815,183.988 250.300 M201.200 248.925 C 201.200 248.994,201.785 249.579,202.500 250.225 L 203.800 251.400 202.625 250.100 C 201.530 248.888,201.200 248.616,201.200 248.925 M206.400 253.800 C 207.146 254.570,207.847 255.200,207.957 255.200 C 208.067 255.200,207.546 254.570,206.800 253.800 C 206.054 253.030,205.353 252.400,205.243 252.400 C 205.133 252.400,205.654 253.030,206.400 253.800 M318.600 256.000 C 319.906 257.320,321.065 258.400,321.175 258.400 C 321.285 258.400,320.306 257.320,319.000 256.000 C 317.694 254.680,316.535 253.600,316.425 253.600 C 316.315 253.600,317.294 254.680,318.600 256.000 M176.175 257.700 L 175.000 259.000 176.300 257.825 C 177.512 256.730,177.784 256.400,177.475 256.400 C 177.406 256.400,176.821 256.985,176.175 257.700 M66.581 258.500 L 65.000 260.200 66.700 258.619 C 68.281 257.148,68.584 256.800,68.281 256.800 C 68.216 256.800,67.451 257.565,66.581 258.500 M214.200 261.200 C 216.171 263.180,217.873 264.800,217.983 264.800 C 218.093 264.800,216.571 263.180,214.600 261.200 C 212.629 259.220,210.927 257.600,210.817 257.600 C 210.707 257.600,212.229 259.220,214.200 261.200 M172.778 261.100 L 171.400 262.600 172.900 261.222 C 174.296 259.938,174.584 259.600,174.278 259.600 C 174.212 259.600,173.537 260.275,172.778 261.100 M63.178 261.900 L 61.800 263.400 63.300 262.022 C 64.125 261.263,64.800 260.588,64.800 260.522 C 64.800 260.216,64.462 260.504,63.178 261.900 M170.323 263.100 C 169.618 263.921,169.090 264.800,169.301 264.800 C 169.383 264.800,169.849 264.260,170.337 263.600 C 171.301 262.296,171.292 261.972,170.323 263.100 M164.600 268.647 C 162.400 270.748,159.790 273.197,158.800 274.089 C 157.810 274.981,157.360 275.514,157.800 275.274 C 158.628 274.822,169.155 264.823,168.800 264.825 C 168.690 264.826,166.800 266.546,164.600 268.647 M331.800 268.800 C 333.992 271.000,335.875 272.800,335.985 272.800 C 336.095 272.800,334.392 271.000,332.200 268.800 C 330.008 266.600,328.125 264.800,328.015 264.800 C 327.905 264.800,329.608 266.600,331.800 268.800 M222.383 268.900 C 223.364 269.945,224.219 270.800,224.283 270.800 C 224.584 270.800,224.266 270.441,222.500 268.783 L 220.600 267.000 222.383 268.900 M54.101 270.500 C 52.513 272.095,51.081 273.580,50.918 273.800 C 50.756 274.020,52.103 272.764,53.912 271.009 C 55.720 269.255,57.200 267.770,57.200 267.709 C 57.200 267.429,56.799 267.790,54.101 270.500 M225.600 271.681 C 225.600 271.762,226.989 273.167,228.686 274.804 C 230.383 276.441,231.486 277.373,231.138 276.876 C 230.526 276.002,225.600 271.381,225.600 271.681 M48.778 275.500 L 47.400 277.000 48.900 275.622 C 50.296 274.338,50.584 274.000,50.278 274.000 C 50.212 274.000,49.537 274.675,48.778 275.500 M339.340 276.681 C 339.306 277.233,338.587 278.431,337.740 279.343 L 336.201 281.000 338.100 279.217 C 339.849 277.575,340.446 276.323,339.700 275.862 C 339.535 275.760,339.373 276.129,339.340 276.681 M46.800 277.776 C 46.800 278.093,46.969 278.457,47.176 278.585 C 47.382 278.713,47.524 278.453,47.491 278.009 C 47.422 277.095,46.800 276.886,46.800 277.776 M234.383 280.100 C 235.364 281.145,236.219 282.000,236.283 282.000 C 236.584 282.000,236.266 281.641,234.500 279.983 L 232.600 278.200 234.383 280.100 M49.400 281.069 C 51.265 282.927,54.029 285.191,52.800 283.853 C 52.030 283.016,50.860 281.957,50.200 281.500 C 49.540 281.044,49.180 280.850,49.400 281.069 M148.788 283.900 L 146.200 286.600 148.990 284.000 C 150.524 282.570,151.859 281.355,151.956 281.300 C 152.054 281.245,151.963 281.200,151.755 281.200 C 151.547 281.200,150.212 282.415,148.788 283.900 M334.175 282.500 L 333.000 283.800 334.398 282.600 C 335.167 281.940,335.872 281.355,335.965 281.300 C 336.057 281.245,335.957 281.200,335.742 281.200 C 335.526 281.200,334.821 281.785,334.175 282.500 M241.800 287.200 C 243.106 288.520,244.265 289.600,244.375 289.600 C 244.485 289.600,243.506 288.520,242.200 287.200 C 240.894 285.880,239.735 284.800,239.625 284.800 C 239.515 284.800,240.494 285.880,241.800 287.200 M328.788 287.500 L 326.200 290.200 328.900 287.612 C 330.385 286.188,331.600 284.973,331.600 284.912 C 331.600 284.617,331.193 284.992,328.788 287.500 M56.400 287.400 C 57.595 288.610,58.663 289.600,58.773 289.600 C 58.883 289.600,57.995 288.610,56.800 287.400 C 55.605 286.190,54.537 285.200,54.427 285.200 C 54.317 285.200,55.205 286.190,56.400 287.400 M140.649 291.700 L 136.948 295.400 140.574 292.015 C 142.568 290.154,144.371 288.489,144.580 288.315 C 144.789 288.142,144.823 288.000,144.655 288.000 C 144.488 288.000,142.685 289.665,140.649 291.700 M244.800 290.125 C 244.800 290.194,245.385 290.779,246.100 291.425 L 247.400 292.600 246.225 291.300 C 245.130 290.088,244.800 289.816,244.800 290.125 M323.595 292.128 C 322.388 293.268,320.040 295.460,318.378 297.000 C 314.716 300.393,316.351 299.054,321.800 294.197 C 324.000 292.236,325.875 290.580,325.967 290.516 C 326.058 290.452,326.056 290.323,325.962 290.228 C 325.867 290.134,324.802 290.989,323.595 292.128 M61.983 292.500 C 62.964 293.545,63.819 294.400,63.883 294.400 C 64.184 294.400,63.866 294.041,62.100 292.383 L 60.200 290.600 61.983 292.500 M247.847 292.900 C 247.969 293.175,248.729 293.930,249.535 294.577 L 251.000 295.754 249.419 294.077 C 247.731 292.287,247.497 292.111,247.847 292.900 M66.200 296.400 C 67.283 297.500,68.260 298.400,68.370 298.400 C 68.480 298.400,67.683 297.500,66.600 296.400 C 65.517 295.300,64.540 294.400,64.430 294.400 C 64.320 294.400,65.117 295.300,66.200 296.400 M134.581 297.300 L 133.000 299.000 134.700 297.419 C 136.281 295.948,136.584 295.600,136.281 295.600 C 136.216 295.600,135.451 296.365,134.581 297.300 M256.000 300.544 C 257.650 302.258,259.900 304.399,261.000 305.302 C 263.389 307.263,263.102 306.967,257.400 301.583 C 253.831 298.213,253.567 298.017,256.000 300.544 M70.600 300.400 C 71.683 301.500,72.660 302.400,72.770 302.400 C 72.880 302.400,72.083 301.500,71.000 300.400 C 69.917 299.300,68.940 298.400,68.830 298.400 C 68.720 298.400,69.517 299.300,70.600 300.400 M75.600 305.000 C 77.017 306.430,78.267 307.600,78.377 307.600 C 78.487 307.600,77.417 306.430,76.000 305.000 C 74.583 303.570,73.333 302.400,73.223 302.400 C 73.113 302.400,74.183 303.570,75.600 305.000 M310.181 304.500 L 308.600 306.200 310.394 304.600 C 311.380 303.720,312.265 302.955,312.361 302.900 C 312.456 302.845,312.360 302.800,312.148 302.800 C 311.936 302.800,311.051 303.565,310.181 304.500 M122.600 308.678 C 121.060 310.132,120.160 311.127,120.600 310.890 C 121.369 310.475,125.968 305.982,125.586 306.017 C 125.484 306.027,124.140 307.224,122.600 308.678 M78.800 307.725 C 78.800 307.794,79.385 308.379,80.100 309.025 L 81.400 310.200 80.225 308.900 C 79.130 307.688,78.800 307.416,78.800 307.725 M302.400 311.435 C 300.090 313.524,297.660 315.796,297.000 316.484 C 296.340 317.171,298.275 315.523,301.300 312.822 C 306.106 308.530,307.134 307.539,306.700 307.618 C 306.645 307.628,304.710 309.346,302.400 311.435 M81.643 310.300 C 81.667 310.465,82.702 311.494,83.943 312.587 L 86.200 314.574 84.014 312.287 C 81.784 309.955,81.567 309.773,81.643 310.300 M115.988 315.100 L 113.400 317.800 116.100 315.212 C 118.608 312.807,118.983 312.400,118.688 312.400 C 118.627 312.400,117.412 313.615,115.988 315.100 M271.400 315.200 C 272.928 316.740,274.269 318.000,274.379 318.000 C 274.489 318.000,273.328 316.740,271.800 315.200 C 270.272 313.660,268.931 312.400,268.821 312.400 C 268.711 312.400,269.872 313.660,271.400 315.200 M89.040 317.050 C 90.382 318.343,93.262 320.999,95.440 322.954 C 99.028 326.174,99.116 326.230,96.379 323.554 C 94.717 321.929,91.837 319.273,89.979 317.650 C 87.343 315.350,87.137 315.218,89.040 317.050 M276.600 320.000 C 277.683 321.100,278.660 322.000,278.770 322.000 C 278.880 322.000,278.083 321.100,277.000 320.000 C 275.917 318.900,274.940 318.000,274.830 318.000 C 274.720 318.000,275.517 318.900,276.600 320.000 M106.992 323.612 C 104.932 325.683,102.888 327.375,102.200 327.576 C 101.125 327.891,101.100 327.932,101.962 327.964 C 102.668 327.990,103.997 326.938,106.962 324.005 C 109.183 321.808,110.906 320.008,110.792 320.005 C 110.677 320.002,108.967 321.626,106.992 323.612 M288.809 323.767 C 286.316 326.099,285.439 326.693,284.718 326.540 C 283.912 326.369,283.886 326.400,284.502 326.794 C 285.032 327.132,285.387 327.114,285.948 326.721 C 286.975 326.001,292.466 320.800,292.199 320.800 C 292.079 320.800,290.554 322.135,288.809 323.767 " stroke="none" fill="#d97c7c" fill-rule="evenodd"></path></g></svg>