<?xml version="1.0" encoding="UTF-8"?>
<svg xmlns="http://www.w3.org/2000/svg" xmlns:xlink="http://www.w3.org/1999/xlink" viewBox="0 0 48 48" version="1.1" width="48px" height="48px">
<g id="surface1">
<path style=" fill:#FF6E40;" d="M 40 24.003906 C 40 24.003906 40 24.003906 40 24 C 40 23.996094 40 23.996094 40 23.996094 C 40 23.925781 39.988281 23.851563 39.988281 23.777344 C 39.867188 15.046875 32.761719 8 24 8 C 23.351563 8 22.714844 8.050781 22.089844 8.125 C 22.253906 5.9375 23.953125 3.585938 23.953125 3.585938 C 24.140625 3.203125 23.714844 2.84375 23.347656 3.0625 C 20.4375 4.773438 8 10.082031 8 23.996094 C 8 23.996094 8 23.996094 8 24 C 8 32.835938 15.164063 40 24 40 C 24.648438 40 25.28125 39.949219 25.910156 39.875 C 25.742188 42.0625 24.046875 44.410156 24.046875 44.410156 C 23.855469 44.789063 24.285156 45.148438 24.652344 44.929688 C 27.558594 43.222656 40 38.082031 40 24.003906 Z M 30 24 C 30 27.3125 27.3125 30 24 30 C 20.6875 30 18 27.3125 18 24 C 18 20.6875 20.6875 18 24 18 C 27.3125 18 30 20.6875 30 24 Z "/>
</g>
</svg>
