<?xml version="1.0" encoding="UTF-8"?>
<svg xmlns="http://www.w3.org/2000/svg" xmlns:xlink="http://www.w3.org/1999/xlink" viewBox="0 0 48 48" version="1.1" width="48px" height="48px">
<g id="surface1">
<path style=" fill:#388E3C;" d="M 6 10 C 6 7.800781 7.800781 6 10 6 L 38 6 C 40.199219 6 42 7.800781 42 10 L 42 38 C 42 40.199219 40.199219 42 38 42 L 10 42 C 7.800781 42 6 40.199219 6 38 Z "/>
<path style=" fill:#263238;" d="M 30 19 C 29.601563 19 29.199219 19.101563 28.800781 19.199219 C 28.898438 18.699219 29 18.199219 29 17.699219 C 29 14 26.5 11.101563 23 11.101563 C 21.699219 11.101563 20.898438 11.601563 20 12.101563 L 16 12.101563 L 16 30.101563 L 20 29.101563 L 20 23.601563 C 20.699219 23.898438 21.898438 24 22.699219 24 C 22.800781 24 22.898438 24 23 24 L 23 38 L 27 37 L 27 31.5 C 27.699219 31.800781 28.898438 31.898438 29.699219 31.898438 C 33.199219 31.898438 36 29.199219 36 25.601563 C 36 22 33.5 19 30 19 Z M 21.199219 21 C 20.800781 21 20.300781 20.898438 20 20.601563 L 20 14.398438 C 20.398438 14.199219 20.800781 14 21.199219 14 C 22.699219 14 24 15.601563 24 17.5 C 24 18.5 23.699219 19.398438 23.199219 20 L 23 20 L 23 20.199219 C 22.5 20.699219 21.898438 21 21.199219 21 Z M 28.199219 29 C 27.800781 29 27.300781 28.898438 27 28.601563 L 27 22.398438 C 27.398438 22.199219 27.800781 22 28.199219 22 C 29.699219 22 31 23.601563 31 25.5 C 31 27.398438 29.800781 29 28.199219 29 Z "/>
<path style=" fill:#FFFFFF;" d="M 22 10 C 20.699219 10 19.898438 10.5 19 11 L 15 11 L 15 29 L 19 28 L 19 22.5 C 19.699219 22.800781 20.898438 22.898438 21.699219 22.898438 C 25.199219 22.898438 28 20.199219 28 16.601563 C 28 13 25.5 10 22 10 Z M 20.199219 20 C 19.800781 20 19.300781 19.898438 19 19.601563 L 19 13.398438 C 19.398438 13.199219 19.800781 13 20.199219 13 C 21.699219 13 23 14.601563 23 16.5 C 23 18.398438 21.800781 20 20.199219 20 Z M 35 24.601563 C 35 28.300781 32.199219 30.898438 28.699219 30.898438 C 27.898438 30.898438 26.699219 30.800781 26 30.5 L 26 36 L 22 37 L 22 23.898438 C 22.199219 23.898438 22.5 23.898438 22.699219 23.898438 C 23.898438 23.898438 25.101563 23.601563 26 23 L 26 27.601563 C 26.398438 27.800781 26.800781 28 27.199219 28 C 28.699219 28 30 26.398438 30 24.5 C 30 22.898438 29.101563 21.601563 28 21.101563 C 28.601563 20.199219 28.898438 19.101563 29 18 C 32.5 18 35 21 35 24.601563 Z "/>
</g>
</svg>
