<?xml version="1.0" encoding="UTF-8"?>
<svg xmlns="http://www.w3.org/2000/svg" xmlns:xlink="http://www.w3.org/1999/xlink" viewBox="0 0 48 48" version="1.1" width="48px" height="48px">
<g id="surface1">
<path style=" fill:#E1E7EA;" d="M 36.726563 32 C 40.742188 32 44 28.675781 44 24.570313 C 44 21.445313 42.109375 18.777344 39.433594 17.679688 C 39.234375 13.777344 36.097656 10.671875 32.230469 10.644531 C 30.894531 7.894531 28.121094 6 24.910156 6 C 21.300781 6 18.242188 8.390625 17.15625 11.703125 C 16.722656 11.617188 16.273438 11.570313 15.816406 11.570313 C 12.257813 11.570313 9.300781 14.1875 8.671875 17.640625 C 5.941406 18.710938 4 21.40625 4 24.570313 C 4 28.675781 7.257813 32 11.273438 32 Z "/>
<path style=" fill:#546E7A;" d="M 30 28 L 19 28 C 17.898438 28 17 27.101563 17 26 C 17 24.898438 17.898438 24 19 24 L 30 24 C 31.101563 24 32 24.898438 32 26 C 32 27.101563 31.101563 28 30 28 Z "/>
<path style=" fill:#FFC107;" d="M 19 26 L 30 26 L 27 34 L 32 34 L 20 42 L 22 35 L 16 35 Z "/>
</g>
</svg>
