<?xml version="1.0" encoding="UTF-8"?>
<svg xmlns="http://www.w3.org/2000/svg" xmlns:xlink="http://www.w3.org/1999/xlink" viewBox="0 0 48 48" version="1.1" width="48px" height="48px">
<g id="surface1">
<path style=" fill:#0D47A1;" d="M 21.199219 15 C 21.199219 14.699219 21 14.601563 20.800781 14.601563 C 19.601563 14.601563 17.898438 17.699219 17.898438 19.601563 C 19.800781 18.5 21.199219 16.199219 21.199219 15 Z M 14.800781 31.398438 C 14.800781 32.300781 15.199219 32.898438 16.101563 32.898438 C 18.601563 32.898438 20.101563 29 20.601563 25.601563 C 18 26.800781 14.800781 29 14.800781 31.398438 Z M 31.199219 15.199219 C 31.199219 14.898438 31.101563 14.601563 30.800781 14.601563 C 30 14.601563 28.601563 16.398438 28.601563 18.699219 C 30.300781 17.199219 31.199219 16 31.199219 15.199219 Z M 24 4 C 13 4 4 13 4 24 C 4 35 13 44 24 44 C 35 44 44 35 44 24 C 44 13 35 4 24 4 Z M 24 42 C 14.101563 42 6 34 6 24 C 6 14.101563 14.101563 6 24 6 C 33.898438 6 42 14.101563 42 24 C 42 33.898438 33.898438 42 24 42 Z M 31.300781 9.800781 C 29.898438 9.398438 28.800781 9.101563 27.398438 9.101563 C 24.300781 9.101563 24.199219 10.800781 22.800781 10.800781 C 22 10.800781 21.5 10.199219 21.5 9.5 C 21.5 8.300781 22.898438 7.300781 25.199219 7.300781 C 27.300781 7.300781 28.898438 7.800781 29.300781 8 L 29.398438 7.898438 C 28.800781 7.699219 26.800781 7 24 7 C 17.898438 7 11.699219 10.101563 9.699219 16.699219 C 9.300781 18.101563 9 19.199219 9 20.601563 C 9 23.699219 10.699219 23.800781 10.699219 25.199219 C 10.699219 25.898438 10.101563 26.5 9.398438 26.5 C 8.199219 26.5 7.199219 25.101563 7.199219 22.800781 C 7.199219 20.699219 7.699219 19.101563 7.800781 18.699219 L 7.699219 18.601563 C 7.699219 19.300781 7 21.199219 7 24 C 7 30.101563 10.101563 36.300781 16.699219 38.300781 C 18.101563 38.699219 19.199219 39 20.601563 39 C 23.699219 39 23.800781 37.199219 25.199219 37.199219 C 25.898438 37.199219 26.5 37.800781 26.5 38.5 C 26.5 39.699219 25.101563 40.601563 22.800781 40.601563 C 20.699219 40.601563 19 40.101563 18.699219 40 L 18.601563 40.199219 C 19.199219 40.5 21.199219 41 24 41 C 30.101563 41 36.300781 37.898438 38.300781 31.300781 C 38.699219 30 39 28.800781 39 27.5 C 39 24.398438 37.300781 24.300781 37.300781 22.898438 C 37.300781 22.101563 37.800781 21.601563 38.601563 21.601563 C 39.800781 21.601563 40.800781 23 40.800781 25.300781 C 40.800781 27.398438 40.300781 29 40.199219 29.398438 L 40.398438 29.5 C 40.601563 28.898438 41.199219 26.898438 41.199219 24.101563 C 41 18 37.898438 11.800781 31.300781 9.800781 Z M 29.898438 34.601563 C 26 34.601563 24 31.300781 24 28.398438 C 24 24.300781 26.800781 22.5 28 21.898438 C 27.800781 21.699219 27.601563 21.5 27.398438 21.199219 C 26 22.199219 24.800781 23 22.199219 24.5 C 22.101563 26.300781 21.898438 28.300781 21.5 29.601563 C 20.5 32.5 18.601563 34.601563 16 34.601563 C 13.800781 34.601563 12.699219 33 12.699219 31.300781 C 12.699219 30.101563 13.398438 28.5 14.699219 27.300781 C 16.300781 25.800781 18.101563 24.898438 20.601563 23.601563 C 20.699219 23.300781 20.699219 22.898438 20.800781 22.5 C 20.199219 23.101563 19.300781 23.300781 18.5 23.300781 C 17.300781 23.300781 16.398438 22.300781 16.101563 21.199219 C 14.5 21.101563 13.300781 20 13.300781 18.199219 C 13.300781 16.898438 13.800781 15.800781 14.699219 15.800781 C 15 15.800781 15.101563 16.101563 15.101563 16.300781 C 15.101563 16.5 14.800781 17.300781 14.800781 18 C 14.800781 18.699219 15.101563 19.699219 16 19.699219 C 16 16.800781 18.101563 13 20.699219 13 C 22.398438 13 22.601563 14.199219 22.601563 14.800781 C 22.601563 17.5 19.898438 20.398438 17.800781 21.101563 C 17.898438 21.300781 18.101563 22 18.800781 22 C 19.601563 22 20.699219 21.199219 21.199219 20.601563 C 21.398438 19.398438 22.300781 17.699219 23.398438 17.699219 C 23.800781 17.699219 24.101563 18 24.101563 18.398438 C 24.101563 19.199219 23.199219 20.300781 22.5 21 C 22.398438 21.601563 22.300781 22.199219 22.300781 22.699219 C 24.300781 21.5 25.300781 20.898438 26.800781 19.800781 C 26.699219 19.398438 26.699219 18.898438 26.699219 18.5 C 26.699219 15.898438 28.5 12.898438 30.800781 12.898438 C 32.101563 12.898438 32.800781 13.800781 32.800781 14.800781 C 32.800781 16.699219 31.199219 18.398438 28.898438 20.199219 C 29.101563 20.601563 29.300781 21 29.800781 21.300781 C 29.898438 21.199219 30.601563 21.101563 31.199219 21.101563 C 31.898438 21.101563 32.800781 21.300781 32.800781 22 C 32.800781 22.800781 31.699219 23 30.898438 23 C 30.5 23.101563 29.699219 22.898438 29.699219 22.898438 C 28.5 23.199219 26.101563 24.699219 26.101563 28.300781 C 26.101563 30.699219 27.601563 33 30 33 C 31.800781 33 33.300781 31.699219 33.300781 29.601563 C 33.300781 28.300781 32.699219 26.800781 31.398438 26.800781 C 30.699219 26.800781 30.101563 27.300781 30.101563 28 C 30 29.101563 30.898438 29.199219 30.898438 30 C 30.898438 30.5 30.5 30.699219 30.101563 30.699219 C 29 30.699219 28.101563 29.601563 28.101563 28.199219 C 28.101563 26.5 29.601563 25.101563 31.5 25.101563 C 34 25.101563 35.300781 27.199219 35.300781 29.601563 C 35.300781 32 33.101563 34.601563 29.898438 34.601563 Z "/>
</g>
</svg>
