<?xml version="1.0" encoding="UTF-8"?>
<svg xmlns="http://www.w3.org/2000/svg" xmlns:xlink="http://www.w3.org/1999/xlink" viewBox="0 0 48 48" version="1.1" width="48px" height="48px">
<g id="surface1">
<path style=" fill:#FFFFFF;" d="M 44 24 C 44 35.046875 35.046875 44 24 44 C 12.953125 44 4 35.046875 4 24 C 4 12.953125 12.953125 4 24 4 C 35.046875 4 44 12.953125 44 24 Z "/>
<path style=" fill:#1976D2;" d="M 24 43.996094 C 23.800781 43.996094 23.347656 44.003906 23.148438 43.996094 L 27.148438 32.996094 L 32.773438 32.996094 C 33.761719 32.996094 34.847656 32.238281 35.183594 31.3125 L 39.933594 18.625 C 40.65625 16.628906 39.515625 15 37.394531 15 L 29.589844 15 L 23.070313 33.257813 L 19.355469 43.453125 C 10.550781 41.359375 4 33.445313 4 24 C 4 14.824219 10.179688 7.09375 18.601563 4.738281 L 14.769531 15.265625 L 8.148438 32.996094 L 12.390625 32.996094 L 17.964844 18 L 21.148438 18 L 15.574219 32.996094 L 19.492188 33 L 24.929688 18.625 C 25.65625 16.628906 24.515625 15 22.394531 15 L 19.148438 15 L 23.101563 4.019531 C 23.398438 4.007813 23.699219 4 24 4 C 35.046875 4 44 12.953125 44 24 C 44 35.046875 35.046875 43.996094 24 43.996094 Z M 36.148438 18 L 32.964844 18 L 28.457031 29.996094 L 31.640625 29.996094 Z "/>
</g>
</svg>
