<?xml version="1.0" standalone="no"?>
<!DOCTYPE svg PUBLIC "-//W3C//DTD SVG 20010904//EN"
 "http://www.w3.org/TR/2001/REC-SVG-20010904/DTD/svg10.dtd">
<svg version="1.0" xmlns="http://www.w3.org/2000/svg"
 width="81.000000pt" height="78.000000pt" viewBox="0 0 81.000000 78.000000"
 preserveAspectRatio="xMidYMid meet">

<g transform="translate(0.000000,78.000000) scale(0.100000,-0.100000)"
fill="#000000" stroke="none">
<path d="M291 623 c-56 -28 -93 -112 -55 -127 9 -3 29 -6 45 -6 22 0 29 5 29
20 0 27 43 54 75 46 14 -4 31 -18 37 -32 17 -36 -8 -81 -81 -145 -71 -62 -119
-125 -127 -168 l-6 -31 156 0 156 0 0 45 0 45 -92 0 -93 0 77 73 c106 100 131
165 88 235 -36 59 -137 80 -209 45z"/>
</g>
</svg>
