<?xml version="1.0" standalone="no"?>
<!DOCTYPE svg PUBLIC "-//W3C//DTD SVG 20010904//EN"
 "http://www.w3.org/TR/2001/REC-SVG-20010904/DTD/svg10.dtd">
<svg version="1.0" xmlns="http://www.w3.org/2000/svg"
 width="81.000000pt" height="78.000000pt" viewBox="0 0 81.000000 78.000000"
 preserveAspectRatio="xMidYMid meet">

<g transform="translate(0.000000,78.000000) scale(0.100000,-0.100000)"
fill="#000000" stroke="none">
<path d="M293 574 c-28 -14 -83 -98 -72 -108 2 -2 23 -7 47 -11 33 -5 42 -4
42 8 0 20 33 47 57 47 51 0 57 -65 8 -90 -38 -19 -45 -28 -45 -61 0 -23 3 -26
25 -21 40 7 75 -22 75 -63 0 -38 -28 -75 -58 -75 -24 0 -62 28 -62 45 0 21
-17 27 -59 20 -38 -6 -39 -7 -30 -37 25 -87 138 -135 218 -93 81 42 108 141
55 204 -14 17 -32 31 -41 31 -9 0 -4 11 16 31 44 44 43 96 -2 146 -29 31 -41
37 -88 40 -37 2 -64 -2 -86 -13z"/>
</g>
</svg>
