<?xml version="1.0" standalone="no"?>
<!DOCTYPE svg PUBLIC "-//W3C//DTD SVG 20010904//EN"
 "http://www.w3.org/TR/2001/REC-SVG-20010904/DTD/svg10.dtd">
<svg version="1.0" xmlns="http://www.w3.org/2000/svg"
 width="81.000000pt" height="78.000000pt" viewBox="0 0 81.000000 78.000000"
 preserveAspectRatio="xMidYMid meet">

<g transform="translate(0.000000,78.000000) scale(0.100000,-0.100000)"
fill="#000000" stroke="none">
<path d="M270 592 c0 -5 -9 -60 -20 -122 -17 -91 -18 -115 -8 -121 20 -13 61
-10 82 6 50 38 116 3 116 -60 0 -76 -76 -100 -115 -37 -18 30 -24 32 -58 28
-21 -2 -41 -7 -44 -9 -11 -12 20 -78 48 -101 52 -44 141 -47 198 -7 43 31 64
84 59 148 -4 46 -10 60 -42 91 -34 34 -40 37 -97 37 -55 0 -60 2 -55 20 3 11
6 26 6 33 0 9 24 12 85 12 l85 0 0 45 0 45 -120 0 c-66 0 -120 -4 -120 -8z"/>
</g>
</svg>
