<?xml version="1.0" standalone="no"?>
<!DOCTYPE svg PUBLIC "-//W3C//DTD SVG 20010904//EN"
 "http://www.w3.org/TR/2001/REC-SVG-20010904/DTD/svg10.dtd">
<svg version="1.0" xmlns="http://www.w3.org/2000/svg"
 width="81.000000pt" height="78.000000pt" viewBox="0 0 81.000000 78.000000"
 preserveAspectRatio="xMidYMid meet">

<g transform="translate(0.000000,78.000000) scale(0.100000,-0.100000)"
fill="#000000" stroke="none">
<path d="M309 608 c-20 -11 -47 -39 -60 -62 -21 -36 -24 -54 -24 -151 0 -90 4
-117 20 -149 26 -52 62 -77 119 -83 55 -7 98 9 131 49 96 114 -26 300 -155
233 -31 -16 -32 -16 -26 0 3 9 6 25 6 35 0 11 10 31 23 46 19 21 29 26 50 20
14 -3 29 -15 32 -26 5 -15 15 -20 38 -20 52 0 61 11 43 53 -30 72 -124 98
-197 55z m111 -248 c39 -39 15 -120 -36 -120 -58 0 -89 91 -42 124 30 21 54
20 78 -4z"/>
</g>
</svg>
