<?xml version="1.0" standalone="no"?>
<!DOCTYPE svg PUBLIC "-//W3C//DTD SVG 20010904//EN"
 "http://www.w3.org/TR/2001/REC-SVG-20010904/DTD/svg10.dtd">
<svg version="1.0" xmlns="http://www.w3.org/2000/svg"
 width="81.000000pt" height="78.000000pt" viewBox="0 0 81.000000 78.000000"
 preserveAspectRatio="xMidYMid meet">

<g transform="translate(0.000000,78.000000) scale(0.100000,-0.100000)"
fill="#000000" stroke="none">
<path d="M293 576 c-65 -29 -85 -128 -35 -174 l27 -25 -32 -32 c-28 -28 -33
-40 -33 -82 0 -87 58 -143 150 -143 90 0 150 57 150 145 0 40 -5 52 -34 81
l-33 33 23 22 c44 41 37 117 -15 163 -28 26 -123 32 -168 12z m111 -72 c20
-20 20 -58 0 -78 -32 -33 -86 -9 -86 39 0 48 54 72 86 39z m6 -184 c41 -41 14
-130 -40 -130 -56 0 -84 102 -38 134 30 21 54 20 78 -4z"/>
</g>
</svg>
