<?xml version="1.0" standalone="no"?>
<!DOCTYPE svg PUBLIC "-//W3C//DTD SVG 20010904//EN"
 "http://www.w3.org/TR/2001/REC-SVG-20010904/DTD/svg10.dtd">
<svg version="1.0" xmlns="http://www.w3.org/2000/svg"
 width="81.000000pt" height="78.000000pt" viewBox="0 0 81.000000 78.000000"
 preserveAspectRatio="xMidYMid meet">

<g transform="translate(0.000000,78.000000) scale(0.100000,-0.100000)"
fill="#000000" stroke="none">
<path d="M295 627 c-37 -21 -85 -90 -72 -103 3 -3 24 -8 46 -11 33 -5 41 -3
41 10 0 22 48 57 79 57 39 0 71 -26 71 -58 0 -20 -13 -41 -46 -72 -47 -46 -74
-93 -74 -130 0 -17 6 -20 45 -20 42 0 45 2 45 27 0 18 14 39 49 72 58 54 71
78 71 125 0 42 -39 92 -87 112 -49 21 -122 17 -168 -9z"/>
<path d="M340 225 l0 -45 45 0 45 0 0 45 0 45 -45 0 -45 0 0 -45z"/>
</g>
</svg>
